{"glyphs":{"0":{"ha":821,"x_min":0,"x_max":0,"o":"m 503 1257 b 226 1172 400 1292 295 1253 b 188 1119 212 1156 199 1138 b 128 1086 161 1118 134 1106 b 141 253 47 823 49 514 b 369 4 180 142 240 22 b 641 175 492 -14 583 78 b 745 531 706 283 734 407 b 710 970 758 678 751 828 b 503 1257 676 1085 626 1215 z m 715 604 b 656 280 711 494 696 383 b 403 39 619 186 530 13 b 235 298 294 63 259 205 b 206 466 221 353 212 409 b 254 412 220 447 236 429 b 284 426 264 404 297 414 b 201 541 247 459 220 498 b 243 1079 194 720 221 900 b 221 1114 246 1097 236 1108 b 457 1245 272 1197 354 1265 b 674 966 588 1219 641 1080 b 715 604 708 849 719 726 z "},"1":{"ha":563,"x_min":0,"x_max":0,"o":"m 474 24 b 423 27 457 20 440 23 b 425 36 424 30 425 33 b 438 633 441 234 438 433 b 438 920 438 728 438 824 b 436 1221 437 1020 442 1121 b 301 1216 433 1274 318 1263 b 236 1135 280 1189 260 1161 b 184 1096 223 1121 204 1101 b 104 1144 150 1086 122 1121 b 71 1135 96 1155 62 1147 b 211 1083 105 1090 154 1056 b 297 1162 246 1099 273 1130 b 298 913 294 1080 298 996 b 297 618 297 815 297 716 b 309 41 297 425 294 233 b 225 9 280 32 254 17 b 235 -8 205 4 220 -12 b 284 10 252 -4 268 3 b 311 20 294 14 302 17 b 409 10 318 -14 380 -13 b 484 7 434 3 457 0 b 474 24 504 12 489 27 z "},"2":{"ha":665,"x_min":0,"x_max":0,"o":"m 145 1205 b 71 1002 90 1153 63 1077 b 185 843 78 933 114 861 b 201 863 200 839 223 857 b 110 1079 114 884 94 1005 b 247 1239 125 1151 177 1215 b 467 920 430 1302 466 1042 b 400 461 469 766 440 609 b 326 243 380 387 356 313 b 272 138 310 207 293 171 b 238 92 261 122 250 106 b 220 71 232 85 226 78 b 219 70 220 70 219 70 b 164 31 196 67 157 55 b 245 -12 174 -4 210 -15 b 291 1 261 -10 276 -6 b 562 13 381 9 471 16 b 569 33 580 12 592 32 b 329 25 489 36 409 32 b 355 51 338 33 347 41 b 474 261 408 111 445 187 b 592 772 538 425 577 598 b 486 1190 604 916 590 1079 b 145 1205 395 1287 244 1297 z "},"3":{"ha":681,"x_min":0,"x_max":0,"o":"m 365 614 b 581 1017 472 725 573 861 b 449 1256 585 1112 539 1216 b 210 1211 370 1292 272 1272 b 214 923 135 1137 115 986 b 242 936 225 916 256 927 b 285 1236 130 1007 181 1184 b 465 1198 337 1262 443 1268 b 462 1043 480 1151 469 1090 b 211 616 438 873 333 732 b 232 552 184 591 193 558 b 460 380 334 535 416 474 b 479 237 481 336 488 286 b 426 101 471 193 452 138 b 113 131 348 -14 153 -17 b 240 425 81 244 144 364 b 218 438 255 434 228 444 b 69 183 128 385 69 289 b 240 -8 70 81 138 3 b 540 124 351 -20 465 46 b 590 422 612 200 630 327 b 365 614 551 515 461 582 z "},"4":{"ha":736,"x_min":0,"x_max":0,"o":"m 663 1221 b 526 1206 660 1278 530 1262 b 526 1201 526 1204 526 1203 b 444 1004 506 1133 475 1068 b 299 737 400 913 351 824 b 157 526 255 664 210 592 b 152 521 156 524 154 523 b 99 507 134 520 117 516 b 129 458 39 477 81 426 b 174 498 145 469 160 483 b 194 495 182 497 189 496 b 324 438 240 484 280 454 b 418 421 354 426 386 421 b 524 438 455 421 490 427 b 537 24 524 300 526 162 b 652 36 541 -25 648 -10 b 665 633 669 234 665 433 b 665 920 665 728 665 824 b 663 1221 665 1020 670 1121 z m 129 496 b 105 472 121 488 113 480 b 129 496 107 485 117 492 z m 100 467 b 100 467 99 466 99 466 z m 454 444 b 292 480 394 437 345 454 b 191 518 261 496 226 512 b 269 632 221 555 246 597 b 437 921 330 725 385 822 b 523 1098 467 978 498 1037 b 525 913 523 1036 525 974 b 524 618 525 815 524 716 b 524 462 524 566 524 514 b 454 444 501 453 478 447 z "},"5":{"ha":683,"x_min":0,"x_max":0,"o":"m 598 1277 b 224 1252 473 1266 348 1258 b 157 1250 204 1259 179 1257 b 85 1247 133 1249 109 1248 b 87 1225 63 1246 65 1225 b 123 1227 99 1226 111 1227 b 115 1206 118 1221 115 1214 b 113 918 108 1111 113 1013 b 126 628 113 821 109 724 b 234 618 132 590 211 589 b 259 637 244 622 251 631 b 345 679 284 656 314 674 b 469 479 452 694 467 554 b 397 127 473 363 463 226 b 158 109 339 40 223 16 b 125 224 135 142 123 184 b 273 339 129 298 195 366 b 294 355 284 335 312 348 b 91 201 187 393 87 311 b 260 10 94 101 167 32 b 474 44 334 -8 412 -4 b 587 257 538 93 570 181 b 492 653 616 389 606 562 b 343 697 451 686 396 705 b 268 669 316 693 291 683 b 242 649 264 667 253 658 b 254 924 256 741 254 832 b 252 1221 254 1023 258 1123 b 249 1233 251 1225 250 1229 b 600 1257 366 1239 483 1247 b 598 1277 620 1259 618 1278 z "},"6":{"ha":700,"x_min":0,"x_max":0,"o":"m 215 458 b 309 819 226 582 261 704 b 541 1212 367 960 447 1092 b 510 1266 561 1238 534 1260 b 417 1242 480 1274 437 1267 b 152 780 306 1103 215 946 b 88 229 89 612 42 407 b 224 25 108 150 152 68 b 447 13 292 -15 375 -17 b 602 176 520 43 572 104 b 605 404 631 245 646 337 b 215 458 528 531 331 540 z m 538 133 b 344 44 497 73 420 13 b 239 194 287 67 256 140 b 213 403 218 262 211 333 b 213 420 213 409 213 415 b 589 344 315 526 561 512 b 538 133 601 274 577 192 z "},"7":{"ha":732,"x_min":0,"x_max":0,"o":"m 498 1258 b 76 1108 350 1232 208 1181 b 95 1092 57 1097 82 1085 b 500 1238 221 1163 358 1213 b 601 1204 524 1242 629 1264 b 552 1113 587 1174 567 1144 b 469 907 521 1046 493 977 b 250 40 372 625 304 333 b 389 31 239 -24 379 -22 b 497 535 419 201 456 369 b 630 1031 539 701 590 864 b 659 1153 640 1071 650 1112 b 641 1239 666 1189 666 1210 b 498 1258 606 1280 545 1266 z "},"8":{"ha":707,"x_min":0,"x_max":0,"o":"m 579 1217 b 79 1056 427 1349 134 1239 b 270 625 31 897 174 734 b 387 495 308 582 355 539 b 454 160 456 398 497 276 b 364 30 437 115 408 54 b 164 118 284 -15 197 45 b 277 563 92 272 191 438 b 246 570 287 578 254 581 b 104 237 177 471 108 362 b 267 -9 100 129 155 17 b 558 94 370 -32 492 10 b 585 409 629 185 623 306 b 451 612 555 487 505 551 b 616 915 525 700 586 802 b 579 1217 641 1009 662 1145 z m 600 995 b 432 632 583 860 520 735 b 295 788 385 683 337 733 b 193 1002 249 851 199 922 b 348 1222 185 1103 259 1188 b 551 1204 413 1246 495 1250 b 600 995 613 1154 609 1066 z "},"9":{"ha":706,"x_min":0,"x_max":0,"o":"m 473 1241 b 249 1255 405 1282 321 1285 b 96 1090 176 1225 124 1163 b 101 850 67 1017 53 919 b 492 817 184 729 381 728 b 420 456 489 693 461 572 b 212 50 370 312 298 176 b 335 21 171 -9 305 -22 b 574 496 438 165 521 326 b 611 1042 627 665 662 868 b 473 1241 587 1120 544 1197 z m 113 909 b 160 1134 97 984 119 1070 b 351 1221 198 1194 277 1255 b 456 1076 406 1196 437 1129 b 492 876 480 1012 490 944 b 493 855 493 869 493 862 b 113 909 398 747 150 742 z "},"\u0000":{"ha":0,"x_min":0,"x_max":0,"o":""},"\n":{"ha":0,"x_min":0,"x_max":0,"o":""},"\r":{"ha":0,"x_min":0,"x_max":0,"o":""}," ":{"ha":361,"x_min":0,"x_max":0,"o":""},"!":{"ha":282,"x_min":0,"x_max":0,"o":"m 191 37 b 180 44 188 39 184 42 b 150 51 170 48 160 51 b 123 49 141 52 132 51 b 99 42 115 48 107 46 b 81 30 92 39 86 35 b 71 15 76 26 73 21 b 69 4 70 11 70 8 b 81 -15 71 -4 74 -10 b 92 -22 84 -18 88 -20 b 122 -29 102 -27 112 -29 b 149 -27 131 -30 140 -29 b 173 -20 157 -26 166 -24 b 191 -8 180 -17 186 -13 b 201 7 196 -4 199 1 b 203 18 202 11 202 14 b 191 37 201 26 198 32 z m 211 407 b 211 688 211 500 211 594 b 209 1242 211 873 210 1058 b 78 1229 209 1295 79 1284 b 76 674 77 1044 76 859 b 76 401 76 583 76 492 b 80 111 76 305 71 207 b 208 125 84 57 203 74 b 211 407 216 218 212 313 z "},"\"":{"ha":365,"x_min":0,"x_max":0,"o":"m 101 1252 b 74 1132 120 1206 112 1165 b 103 1118 57 1116 92 1110 b 188 1268 149 1153 185 1210 b 101 1252 189 1305 83 1296 z m 210 1252 b 183 1132 229 1206 221 1165 b 212 1118 166 1116 200 1110 b 296 1268 258 1153 294 1210 b 210 1252 298 1305 192 1296 z "},"”":{"ha":365,"x_min":0,"x_max":0,"o":"m 101 1252 b 74 1132 120 1206 112 1165 b 103 1118 57 1116 92 1110 b 188 1268 149 1153 185 1210 b 101 1252 189 1305 83 1296 z m 210 1252 b 183 1132 229 1206 221 1165 b 212 1118 166 1116 200 1110 b 296 1268 258 1153 294 1210 b 210 1252 298 1305 192 1296 z "},"#":{"ha":975,"x_min":0,"x_max":0,"o":"m 873 792 b 704 692 835 729 783 674 b 701 693 703 692 702 692 b 750 1087 718 824 734 955 b 618 1095 758 1149 625 1145 b 574 751 603 980 589 866 b 521 783 556 762 539 773 b 459 815 501 794 480 805 b 493 1087 470 906 482 996 b 361 1095 500 1149 368 1145 b 329 850 350 1013 340 932 b 123 767 250 854 180 820 b 147 755 108 754 138 747 b 326 828 201 803 260 831 b 288 532 314 729 301 630 b 281 532 286 532 283 532 b 73 449 201 537 131 502 b 98 437 59 436 89 429 b 286 509 154 487 216 515 b 229 71 267 363 248 217 b 362 63 220 8 356 12 b 415 466 380 197 398 332 b 528 402 453 446 490 423 b 529 401 528 402 529 401 b 486 71 515 291 501 181 b 620 63 478 8 613 12 b 657 350 633 159 645 255 b 698 349 671 349 684 348 b 855 466 769 355 819 408 b 823 474 864 482 830 485 b 660 373 786 413 736 359 b 698 670 673 472 686 571 b 747 667 714 667 730 666 b 904 784 819 673 868 726 b 873 792 913 800 880 803 z m 533 429 b 472 465 512 441 492 454 b 418 493 454 475 437 484 b 456 788 431 591 443 690 b 571 724 495 769 533 745 b 533 429 558 625 545 527 z "},"$":{"ha":1090,"x_min":0,"x_max":0,"o":"m 1018 256 b 802 747 1002 436 910 606 b 676 896 773 785 725 837 b 806 1121 736 962 782 1042 b 798 1345 827 1193 838 1277 b 660 1430 768 1395 716 1421 b 664 1470 661 1443 662 1457 b 632 1466 664 1482 633 1480 b 630 1433 631 1455 631 1444 b 444 1369 561 1437 492 1419 b 382 1213 403 1326 381 1272 b 556 858 385 1080 479 958 b 571 837 561 851 566 844 b 416 763 525 801 473 773 b 246 828 350 753 283 768 b 200 993 215 877 202 935 b 166 989 200 1007 165 1004 b 265 764 167 910 193 808 b 476 756 327 727 411 734 b 580 810 513 769 547 787 b 541 327 567 649 554 488 b 370 342 490 347 431 353 b 71 57 224 317 87 212 b 298 -285 55 -99 155 -233 b 490 -315 358 -306 424 -316 b 487 -358 489 -329 488 -344 b 518 -355 486 -370 517 -368 b 522 -314 519 -341 520 -327 b 795 -223 619 -307 716 -275 b 1018 256 955 -115 1036 65 z m 658 1405 b 724 1378 683 1401 707 1391 b 787 1245 766 1346 785 1295 b 687 960 792 1144 745 1040 b 656 921 677 947 667 934 b 623 963 645 934 634 948 b 658 1405 635 1110 647 1258 z m 579 1393 b 628 1407 593 1402 610 1407 b 595 1001 617 1272 606 1136 b 579 1393 498 1140 437 1294 z m 503 -148 b 494 -269 500 -188 497 -228 b 315 -256 436 -278 376 -275 b 186 224 117 -192 36 70 b 465 325 255 296 366 337 b 539 304 492 322 517 314 b 503 -148 527 153 515 2 z m 796 -73 b 526 -262 728 -164 632 -235 b 570 287 541 -79 556 104 b 686 143 621 253 661 201 b 719 152 691 131 725 138 b 572 314 687 225 636 281 b 609 788 585 472 597 630 b 814 473 687 689 761 590 b 796 -73 892 299 917 88 z "},"%":{"ha":747,"x_min":0,"x_max":0,"o":"m 530 1279 b 72 -33 378 841 228 403 b 205 -41 51 -89 187 -91 b 662 1271 362 395 513 833 b 530 1279 681 1327 547 1328 z m 187 822 b 365 998 291 800 362 906 b 191 1145 368 1094 296 1194 b 177 1138 187 1143 182 1141 b 106 1114 150 1140 117 1129 b 187 822 46 1033 71 846 z m 217 1108 b 208 1127 217 1116 213 1123 b 317 1073 255 1152 299 1118 b 326 964 331 1039 333 1000 b 293 887 322 935 311 909 b 208 915 252 839 221 871 b 217 1108 189 982 224 1043 z m 503 425 b 489 417 499 423 494 420 b 418 394 462 419 429 408 b 499 101 358 312 383 125 b 677 277 603 80 674 186 b 503 425 680 374 608 473 z m 638 243 b 605 167 634 215 623 189 b 520 194 564 119 533 150 b 529 387 501 261 536 322 b 520 407 529 396 525 402 b 629 352 567 431 611 397 b 638 243 643 318 645 279 z "},"&":{"ha":604,"x_min":0,"x_max":0,"o":"m 529 157 b 460 244 506 185 482 214 b 453 253 462 248 458 251 b 271 549 383 345 318 444 b 381 687 308 597 347 642 b 468 831 415 731 451 778 b 397 1048 494 910 476 1006 b 163 1002 318 1089 227 1058 b 71 749 89 937 62 846 b 171 457 81 648 123 548 b 120 183 118 374 69 267 b 261 122 149 135 208 118 b 370 159 301 125 337 139 b 401 121 380 147 390 134 b 487 102 421 97 457 94 b 529 157 504 107 549 132 z m 255 965 b 377 1012 282 1004 327 1037 b 439 862 433 985 449 920 b 348 695 428 799 386 745 b 258 579 319 656 288 618 b 221 689 243 615 231 652 b 255 965 197 781 198 884 z m 200 153 b 142 312 137 180 129 252 b 187 426 151 352 167 390 b 189 422 188 425 189 423 b 354 179 237 336 293 256 b 200 153 308 147 254 130 z "},"'":{"ha":257,"x_min":0,"x_max":0,"o":"m 101 1252 b 74 1132 120 1206 112 1165 b 103 1118 57 1116 92 1110 b 188 1268 149 1153 185 1210 b 101 1252 189 1305 83 1296 z "},"‘":{"ha":257,"x_min":0,"x_max":0,"o":"m 101 1252 b 74 1132 120 1206 112 1165 b 103 1118 57 1116 92 1110 b 188 1268 149 1153 185 1210 b 101 1252 189 1305 83 1296 z "},"’":{"ha":257,"x_min":0,"x_max":0,"o":"m 101 1252 b 74 1132 120 1206 112 1165 b 103 1118 57 1116 92 1110 b 188 1268 149 1153 185 1210 b 101 1252 189 1305 83 1296 z "},"(":{"ha":535,"x_min":0,"x_max":0,"o":"m 458 1382 b 437 1430 475 1403 457 1422 b 353 1418 411 1439 375 1435 b 181 1176 276 1357 221 1264 b 88 859 134 1075 105 968 b 145 93 49 603 73 341 b 353 -353 191 -68 254 -217 b 449 -327 374 -383 468 -372 b 216 440 342 -78 244 169 b 292 1116 192 667 208 903 b 458 1382 332 1218 392 1296 z "},")":{"ha":536,"x_min":0,"x_max":0,"o":"m 375 1137 b 188 1421 335 1238 276 1353 b 106 1428 166 1438 132 1438 b 74 1379 90 1422 58 1401 b 228 1145 131 1302 188 1233 b 314 836 272 1047 299 942 b 254 98 350 590 324 336 b 85 -337 210 -51 147 -195 b 180 -351 67 -379 163 -374 b 456 434 344 -123 426 157 b 375 1137 481 670 463 915 z "},"*":{"ha":294,"x_min":0,"x_max":0,"o":"m 212 1211 b 169 1211 198 1211 184 1211 b 206 1270 182 1231 194 1251 b 175 1277 216 1285 182 1289 b 146 1233 166 1263 156 1248 b 117 1278 137 1248 127 1263 b 84 1269 110 1290 76 1282 b 121 1211 96 1250 109 1230 b 84 1209 108 1211 96 1210 b 82 1189 68 1208 62 1191 b 85 1189 83 1189 84 1189 b 89 1189 86 1189 88 1189 b 118 1189 99 1189 109 1189 b 86 1136 107 1172 96 1154 b 115 1129 77 1121 109 1118 b 145 1173 125 1143 135 1158 b 175 1128 155 1158 165 1143 b 207 1137 182 1117 214 1124 b 174 1190 196 1155 185 1172 b 205 1190 184 1190 195 1190 b 212 1211 223 1190 236 1212 z "},"+":{"ha":478,"x_min":0,"x_max":0,"o":"m 396 428 b 308 428 367 428 338 428 b 308 606 308 487 309 547 b 174 592 308 660 175 648 b 172 427 173 537 172 482 b 84 423 143 426 113 425 b 82 403 68 422 63 405 b 90 402 84 403 87 402 b 99 403 93 402 96 402 b 172 405 123 404 148 405 b 171 228 171 346 171 287 b 307 242 170 174 307 185 b 308 406 307 297 308 352 b 389 407 335 407 362 407 b 396 428 407 407 420 428 z "},",":{"ha":272,"x_min":0,"x_max":0,"o":"m 191 40 b 180 47 188 42 184 45 b 150 54 170 51 160 54 b 123 52 141 55 132 54 b 99 45 115 51 107 49 b 81 33 92 42 86 38 b 71 18 76 29 73 24 b 69 7 70 14 70 11 b 81 -12 71 -1 74 -7 b 92 -19 84 -15 88 -17 b 122 -26 102 -24 112 -26 b 128 -27 124 -27 126 -27 b 120 -127 146 -55 134 -99 b 151 -132 113 -139 146 -141 b 176 -63 164 -110 172 -88 b 181 -13 178 -46 179 -29 b 191 -5 185 -11 188 -8 b 201 10 196 -1 199 4 b 203 21 202 14 202 17 b 191 40 201 29 198 35 z "},"-":{"ha":478,"x_min":0,"x_max":0,"o":"m 396 428 b 84 423 292 428 188 429 b 82 403 68 422 63 405 b 90 402 84 403 87 402 b 99 403 93 402 96 402 b 389 407 196 406 292 406 b 396 428 407 407 420 428 z "},".":{"ha":272,"x_min":0,"x_max":0,"o":"m 191 40 b 180 47 188 42 184 45 b 150 54 170 51 160 54 b 123 52 141 55 132 54 b 99 45 115 51 107 49 b 81 33 92 42 86 38 b 71 18 76 29 73 24 b 69 7 70 14 70 11 b 81 -12 71 -1 74 -7 b 92 -19 84 -15 88 -17 b 122 -26 102 -24 112 -26 b 149 -24 131 -27 140 -27 b 173 -17 157 -23 166 -21 b 191 -5 180 -14 186 -10 b 201 10 196 -1 199 4 b 203 21 202 14 202 17 b 191 40 201 29 198 35 z "},"/":{"ha":733,"x_min":0,"x_max":0,"o":"m 530 1279 b 72 -33 378 841 228 403 b 205 -41 51 -89 187 -91 b 662 1271 362 395 513 833 b 530 1279 681 1327 547 1328 z "},":":{"ha":274,"x_min":0,"x_max":0,"o":"m 123 674 b 202 710 149 674 193 680 b 150 755 211 740 173 755 b 71 718 124 755 80 749 b 123 674 62 689 100 674 z m 150 382 b 71 345 124 382 80 376 b 123 301 62 316 100 301 b 202 338 149 301 193 307 b 150 382 211 367 173 382 z "},";":{"ha":274,"x_min":0,"x_max":0,"o":"m 123 674 b 202 710 149 674 193 680 b 150 755 211 740 173 755 b 71 718 124 755 80 749 b 123 674 62 689 100 674 z m 150 382 b 71 345 124 382 80 376 b 123 301 62 316 100 301 b 127 301 124 301 125 301 b 115 206 140 272 129 232 b 147 201 109 194 141 192 b 171 270 159 223 168 245 b 175 310 173 283 174 297 b 202 338 188 316 199 324 b 150 382 211 367 173 382 z "},"<":{"ha":407,"x_min":0,"x_max":0,"o":"m 334 328 b 176 422 306 378 224 397 b 149 454 163 429 138 435 b 209 485 155 466 196 479 b 298 528 239 499 269 512 b 277 545 318 540 291 553 b 147 485 235 523 190 506 b 70 424 124 473 66 461 b 145 357 73 393 122 373 b 265 287 183 331 219 298 b 334 328 285 282 353 293 z "},"=":{"ha":508,"x_min":0,"x_max":0,"o":"m 427 315 b 84 309 313 315 198 316 b 82 289 68 308 63 291 b 90 288 85 289 87 289 b 101 290 94 288 98 289 b 420 294 207 293 313 294 b 427 315 437 294 450 315 z m 82 472 b 90 471 85 472 87 472 b 101 473 94 471 98 471 b 420 477 207 476 313 476 b 427 498 437 477 450 498 b 84 492 313 498 198 499 b 82 472 68 491 63 474 z "},">":{"ha":406,"x_min":0,"x_max":0,"o":"m 267 482 b 130 546 222 504 175 523 b 106 528 118 553 87 539 b 194 484 135 511 164 498 b 244 459 210 477 231 471 b 234 421 268 440 258 434 b 74 326 186 393 105 375 b 135 288 52 289 112 282 b 252 356 179 300 214 331 b 335 426 277 373 328 393 b 267 482 343 463 290 471 z "},"?":{"ha":669,"x_min":0,"x_max":0,"o":"m 391 37 b 380 44 387 39 383 42 b 349 51 370 48 360 51 b 323 49 340 52 331 51 b 298 42 314 48 306 46 b 281 30 291 39 286 35 b 270 15 276 26 272 21 b 269 4 270 11 269 8 b 280 -15 270 -4 274 -10 b 291 -22 284 -18 288 -20 b 322 -29 301 -27 311 -29 b 349 -27 331 -30 340 -29 b 373 -20 357 -26 365 -24 b 390 -8 380 -17 386 -13 b 401 7 395 -4 399 1 b 402 18 401 11 402 14 b 391 37 401 26 397 32 z m 598 1040 b 364 1242 582 1154 479 1246 b 88 1044 246 1238 132 1153 b 95 851 64 985 60 907 b 262 773 131 795 199 773 b 269 794 280 773 293 795 b 104 938 180 793 112 847 b 196 1148 98 1019 137 1094 b 443 1205 259 1206 360 1248 b 500 1026 508 1172 511 1090 b 412 812 487 950 446 881 b 320 588 375 739 344 665 b 264 353 295 511 277 432 b 250 236 258 314 252 275 b 271 123 248 194 254 162 b 393 146 288 83 397 98 b 466 608 378 299 418 463 b 556 832 491 685 524 758 b 598 1040 584 896 608 969 z "},"@":{"ha":1440,"x_min":0,"x_max":0,"o":"m 1014 1285 b 230 1007 725 1383 403 1247 b 149 133 54 763 16 404 b 452 -159 213 4 319 -103 b 908 -174 597 -220 758 -216 b 896 -154 932 -167 914 -149 b 233 60 647 -224 384 -159 b 165 817 82 276 74 576 b 813 1294 265 1086 518 1295 b 1214 1105 972 1293 1116 1231 b 1332 617 1322 967 1356 788 b 1252 356 1320 527 1295 436 b 1031 212 1221 296 1109 154 b 952 467 962 264 956 389 b 970 774 947 569 958 672 b 833 759 975 824 837 819 b 833 757 833 759 833 758 b 805 799 826 772 817 786 b 661 839 768 838 713 851 b 489 482 517 806 474 608 b 584 303 496 418 526 338 b 737 324 631 274 701 281 b 820 519 783 378 803 452 b 826 540 822 526 824 533 b 831 447 826 509 828 478 b 920 188 840 361 856 252 b 1153 176 983 126 1083 124 b 1297 371 1218 225 1263 299 b 1014 1285 1445 685 1384 1159 z m 766 453 b 667 348 755 420 716 303 b 606 480 631 380 614 434 b 666 761 591 572 612 684 b 703 805 676 775 689 795 b 790 764 736 826 774 789 b 819 659 811 734 817 696 b 766 453 805 589 790 520 z "},"A":{"ha":1224,"x_min":0,"x_max":0,"o":"m 1410 -206 b 1329 -270 1390 -233 1364 -265 b 1240 -222 1291 -275 1263 -249 b 1150 -42 1198 -170 1175 -103 b 1046 415 1093 104 1062 259 b 1032 616 1039 482 1035 549 b 1074 636 1046 622 1060 629 b 1055 652 1094 647 1068 659 b 1031 640 1047 648 1039 644 b 1027 900 1028 727 1028 813 b 1023 1147 1026 982 1025 1064 b 1016 1278 1022 1190 1019 1234 b 994 1408 1013 1324 1005 1363 b 927 1406 988 1433 933 1430 b 925 1398 926 1403 926 1401 b 708 618 849 1140 785 877 b 571 663 662 633 619 652 b 257 479 430 696 321 594 b 292 477 250 467 285 465 b 466 641 331 548 385 618 b 700 593 549 665 622 615 b 563 200 659 460 615 329 b 427 -65 526 107 484 17 b 204 -270 371 -147 297 -231 b -30 -140 91 -318 -5 -253 b 3 127 -50 -51 -34 45 b 259 359 48 229 141 346 b 441 140 381 372 497 261 b 472 138 435 127 467 126 b 386 356 512 224 469 317 b 124 323 299 398 199 379 b -33 -218 -27 213 -136 -43 b 186 -298 13 -296 101 -322 b 435 -100 289 -269 372 -184 b 721 561 579 90 652 336 b 729 586 724 569 726 578 b 893 579 783 574 839 572 b 897 507 894 555 895 531 b 963 85 906 364 925 223 b 1134 -267 996 -34 1037 -183 b 1323 -322 1183 -310 1258 -334 b 1451 -216 1379 -311 1424 -263 b 1410 -206 1463 -195 1420 -193 z m 810 597 b 736 610 784 599 760 603 b 899 1200 795 805 845 1003 b 898 1183 899 1194 899 1189 b 891 951 893 1106 892 1028 b 893 600 890 834 889 717 b 810 597 865 596 838 595 z "},"B":{"ha":1044,"x_min":0,"x_max":0,"o":"m 947 988 b 1028 1313 1023 1074 1078 1200 b 785 1409 985 1412 882 1431 b 451 1121 641 1377 528 1237 b 221 660 355 978 284 819 b 135 432 191 585 163 508 b 117 382 129 416 123 399 b 117 479 118 414 118 447 b 107 762 114 574 109 668 b 118 1386 104 970 106 1179 b -23 1371 121 1441 -19 1431 b -33 741 -35 1162 -37 951 b 22 272 -30 589 -44 414 b 111 287 36 241 105 255 b 111 287 111 287 111 287 b 205 528 152 362 177 447 b 228 518 211 523 219 520 b 663 348 380 486 541 449 b 797 -1 766 264 841 134 b 481 -251 752 -139 620 -230 b 250 -186 398 -263 311 -247 b 198 44 190 -125 178 -36 b 330 261 219 123 263 211 b 472 289 369 290 425 307 b 547 213 507 275 529 245 b 580 222 554 201 588 209 b 430 318 547 281 500 319 b 240 209 351 316 286 271 b 276 -250 138 69 99 -151 b 884 285 587 -423 1100 -64 b 397 575 780 454 585 529 b 648 731 484 621 568 674 b 947 988 754 806 861 891 z m 230 595 b 397 975 279 724 332 853 b 673 1329 467 1105 552 1239 b 920 1367 737 1376 849 1431 b 879 1057 1015 1283 946 1133 b 567 797 790 956 676 875 b 230 595 460 720 349 652 z "},"C":{"ha":883,"x_min":0,"x_max":0,"o":"m 894 278 b 702 -130 852 135 796 -12 b 417 -246 632 -215 531 -282 b 210 -33 317 -213 256 -123 b 104 351 150 86 119 219 b 277 1184 73 632 117 945 b 544 1380 339 1278 429 1364 b 796 1265 647 1395 747 1361 b 792 977 841 1176 834 1066 b 697 865 771 933 739 891 b 590 838 666 846 626 831 b 498 915 547 846 520 881 b 465 906 491 927 457 919 b 616 815 500 851 547 811 b 759 878 669 819 720 843 b 866 1144 832 945 866 1046 b 736 1392 866 1248 821 1333 b 355 1377 627 1466 463 1437 b -46 524 59 1216 -42 838 b 304 -264 -49 247 18 -137 b 927 276 652 -418 849 16 b 894 278 931 291 898 291 z "},"D":{"ha":1193,"x_min":0,"x_max":0,"o":"m 776 1415 b 440 1270 635 1452 522 1381 b 224 784 335 1128 276 951 b 118 404 185 658 155 530 b 117 479 118 429 118 454 b 107 762 114 574 109 668 b 118 1386 104 970 106 1179 b -23 1371 121 1441 -19 1431 b -33 741 -35 1162 -37 951 b 22 272 -30 589 -44 414 b 111 287 36 241 105 255 b 111 287 111 287 111 287 b 151 402 130 322 140 364 b 204 600 169 468 186 534 b 365 1078 248 762 296 925 b 630 1386 416 1190 496 1357 b 868 1247 731 1408 822 1329 b 969 885 932 1136 957 1011 b 944 429 984 733 974 579 b 796 13 915 286 869 140 b 553 -232 739 -88 664 -189 b 387 -243 503 -251 443 -255 b 214 -89 303 -223 241 -173 b 393 291 167 53 234 254 b 547 213 465 308 513 273 b 580 222 554 201 588 209 b 471 315 555 266 522 304 b 337 296 427 325 378 314 b 183 127 264 264 211 200 b 340 -282 126 -24 174 -225 b 1015 184 661 -392 917 -81 b 1115 693 1076 346 1108 520 b 1044 1161 1121 851 1106 1013 b 776 1415 995 1278 903 1381 z "},"E":{"ha":953,"x_min":0,"x_max":0,"o":"m 949 278 b 370 -236 876 44 687 -366 b 240 222 197 -165 155 68 b 503 377 296 325 393 372 b 511 378 506 377 508 377 b 534 378 519 378 526 378 b 600 428 559 379 603 397 b 525 463 597 461 548 463 b 128 682 358 458 201 525 b 125 1104 68 812 70 973 b 299 1322 162 1190 223 1267 b 598 1408 387 1384 492 1407 b 939 1090 779 1410 934 1271 b 856 885 941 1014 916 934 b 568 916 772 818 631 827 b 535 907 560 927 526 919 b 956 972 641 756 892 811 b 785 1395 1020 1132 936 1321 b 419 1435 676 1449 537 1460 b 108 1258 300 1409 192 1346 b -33 720 -25 1119 -88 907 b 141 472 -4 620 54 531 b 281 407 185 443 232 422 b 138 287 225 378 175 339 b 78 -31 73 197 50 77 b 669 -225 146 -284 462 -361 b 982 276 836 -114 924 91 b 949 278 987 290 953 290 z "},"F":{"ha":838,"x_min":0,"x_max":0,"o":"m 1165 1286 b 1194 1278 1149 1271 1184 1269 b 1234 1413 1231 1312 1250 1365 b 1098 1494 1214 1471 1154 1493 b 809 1413 998 1497 898 1455 b 543 1263 716 1369 629 1316 b 528 1253 538 1260 533 1257 b 531 1369 529 1292 530 1331 b 390 1355 533 1425 392 1414 b 386 1164 388 1291 387 1227 b 252 1093 344 1139 298 1114 b 219 1164 242 1117 231 1141 b 33 1289 182 1234 124 1314 b -61 1114 -41 1270 -83 1187 b 127 1030 -34 1030 50 1016 b 227 1059 162 1036 195 1046 b 291 856 254 993 275 925 b 352 484 321 734 337 609 b 255 451 320 474 287 463 b 275 428 224 439 252 419 b 355 456 301 438 328 447 b 382 240 364 384 372 312 b 392 -30 383 149 386 59 b 427 -266 398 -112 406 -188 b 520 -257 438 -304 517 -295 b 530 -52 526 -188 530 -121 b 525 248 530 48 527 148 b 523 499 524 332 523 416 b 723 528 589 513 655 522 b 729 557 747 530 763 560 b 523 527 660 551 591 541 b 523 974 522 676 522 825 b 527 1226 524 1058 526 1142 b 725 1345 593 1267 658 1308 b 903 1430 783 1377 841 1406 b 1128 1467 970 1457 1055 1488 b 1165 1286 1210 1443 1225 1342 z m -29 1144 b 48 1269 -36 1196 -9 1261 b 171 1177 106 1277 145 1221 b 219 1079 189 1145 204 1112 b -29 1144 99 1031 -11 1022 z m 261 1073 b 385 1140 304 1093 345 1116 b 381 635 382 972 381 803 b 381 553 382 608 381 581 b 335 836 370 648 356 743 b 261 1073 316 917 292 997 z "},"G":{"ha":1061,"x_min":0,"x_max":0,"o":"m 839 376 b 831 375 837 376 834 376 b 647 325 769 358 708 341 b 456 281 585 307 521 284 b 458 261 436 279 438 259 b 642 303 521 264 582 286 b 801 348 695 318 748 333 b 799 336 800 344 799 340 b 799 294 799 322 799 308 b 648 -120 766 152 727 4 b 379 -241 588 -215 494 -288 b 183 -11 280 -199 225 -105 b 97 377 130 111 106 245 b 313 1214 77 664 139 979 b 597 1394 381 1307 477 1390 b 827 1255 700 1398 788 1351 b 805 960 865 1161 853 1048 b 700 851 781 915 746 874 b 594 835 668 834 629 825 b 513 914 556 847 532 881 b 479 905 506 926 472 919 b 624 809 511 849 556 808 b 765 862 675 810 725 830 b 888 1129 844 927 883 1030 b 776 1393 894 1234 858 1326 b 404 1403 676 1475 513 1454 b -45 542 91 1257 -29 860 b 269 -254 -59 265 -7 -112 b 619 -203 388 -316 525 -302 b 797 155 710 -108 761 24 b 806 -272 796 12 796 -130 b 912 -261 809 -316 909 -304 b 920 349 926 -58 921 146 b 839 376 920 379 874 386 z "},"H":{"ha":1369,"x_min":0,"x_max":0,"o":"m 1388 -155 b 1382 -159 1377 -158 1366 -153 b 1356 -151 1374 -156 1365 -154 b 1331 -136 1350 -149 1341 -145 b 1286 -50 1313 -118 1295 -76 b 1223 278 1251 55 1234 167 b 1208 672 1211 409 1208 540 b 1259 695 1225 679 1242 687 b 1240 711 1279 705 1253 718 b 1208 696 1230 706 1219 701 b 1220 1096 1209 830 1215 963 b 1224 1369 1223 1186 1232 1279 b 1104 1357 1220 1420 1106 1406 b 1070 691 1090 1135 1072 914 b 1069 655 1069 679 1069 667 b 961 648 1034 649 997 647 b 687 718 862 651 780 691 b 554 725 640 732 596 733 b 549 989 554 813 552 901 b 538 1419 546 1132 547 1276 b 411 1406 535 1472 415 1457 b 409 1078 402 1297 407 1187 b 414 718 411 958 414 838 b 414 655 414 697 414 676 b 302 519 370 618 332 571 b 334 512 293 503 327 500 b 414 621 357 551 383 589 b 379 57 414 433 409 243 b 315 -168 366 -18 350 -100 b 180 -261 288 -221 243 -261 b -27 85 17 -263 -28 -39 b 37 323 -27 166 -12 256 b 120 380 57 350 85 374 b 269 245 203 393 246 309 b 302 253 274 232 307 238 b 189 394 281 311 251 373 b 77 389 153 407 112 405 b -44 226 11 361 -25 291 b 54 -244 -86 79 -72 -139 b 261 -279 111 -291 191 -300 b 432 -134 336 -256 391 -197 b 525 155 486 -51 510 59 b 554 534 544 281 551 407 b 555 704 555 590 555 647 b 806 650 642 721 721 676 b 1069 634 892 625 982 620 b 1084 248 1069 505 1072 376 b 1169 -94 1095 135 1109 6 b 1271 -188 1193 -134 1228 -169 b 1412 -183 1320 -211 1368 -203 b 1388 -155 1444 -169 1407 -151 z "},"I":{"ha":704,"x_min":0,"x_max":0,"o":"m 752 -239 b 570 -239 691 -236 630 -236 b 572 174 574 -102 569 36 b 577 603 574 317 578 460 b 484 1286 577 828 581 1078 b 99 1414 415 1433 243 1498 b -46 973 -45 1329 -80 1125 b 84 779 -29 896 10 816 b 217 767 124 759 174 753 b 334 912 281 789 313 852 b 300 914 339 926 305 927 b 162 781 278 851 240 776 b 75 819 129 783 99 798 b -15 1005 21 864 -5 937 b 140 1404 -37 1144 -3 1340 b 317 1381 198 1430 271 1428 b 393 1203 362 1335 380 1263 b 437 577 439 1000 437 783 b 433 160 437 438 434 299 b 441 -251 432 24 427 -116 b 268 -282 383 -259 326 -269 b 275 -309 239 -289 245 -316 b 453 -278 334 -295 394 -285 b 558 -269 477 -298 533 -293 b 733 -268 616 -265 674 -265 b 752 -239 753 -269 784 -240 z "},"J":{"ha":1022,"x_min":0,"x_max":0,"o":"m 756 1426 b 525 1382 684 1394 605 1378 b 289 1445 440 1386 369 1422 b -54 1266 140 1487 17 1390 b -22 1259 -63 1251 -29 1247 b 162 1427 20 1332 77 1403 b 404 1379 248 1451 324 1401 b 756 1402 520 1347 645 1357 b 785 553 797 1122 808 835 b 718 149 774 417 755 281 b 588 -154 689 43 655 -65 b 378 -262 537 -222 466 -268 b 139 -105 275 -254 193 -190 b 53 568 16 85 -3 353 b 224 834 78 669 127 783 b 387 838 275 862 335 866 b 520 591 477 791 514 687 b 555 595 521 577 556 580 b 288 877 546 738 452 898 b 74 717 193 865 120 799 b 44 3 -43 510 -37 221 b 239 -252 82 -98 143 -197 b 549 -277 331 -305 449 -317 b 901 359 791 -181 866 129 b 893 1425 955 708 951 1076 b 756 1426 884 1476 772 1469 z "},"K":{"ha":1132,"x_min":0,"x_max":0,"o":"m 1199 -97 b 1160 -113 1181 -107 1179 -109 b 1156 -114 1160 -113 1158 -113 b 1153 -114 1155 -114 1154 -114 b 1150 -113 1154 -114 1153 -114 b 1141 -111 1147 -113 1144 -112 b 1139 -110 1140 -111 1140 -111 b 1119 -101 1132 -107 1126 -104 b 1108 -93 1110 -96 1119 -102 b 1085 -75 1100 -87 1093 -81 b 943 127 1024 -19 983 56 b 802 382 894 211 852 299 b 655 561 763 449 720 516 b 605 585 639 572 623 581 b 606 587 605 586 606 586 b 685 741 637 636 662 688 b 818 1086 734 854 770 973 b 1051 1401 864 1196 934 1350 b 1193 1375 1095 1421 1168 1428 b 1160 1283 1209 1339 1190 1303 b 1185 1272 1144 1273 1174 1265 b 1212 1400 1228 1300 1248 1357 b 1025 1414 1168 1453 1079 1441 b 826 1183 932 1369 872 1271 b 703 879 776 1085 741 981 b 632 701 681 819 659 759 b 585 611 617 671 602 640 b 573 590 581 605 577 597 b 566 590 570 590 568 590 b 554 589 562 590 558 589 b 549 989 556 722 553 855 b 538 1419 546 1132 547 1276 b 411 1406 535 1472 415 1457 b 409 1078 402 1297 407 1187 b 414 718 411 958 414 838 b 379 57 415 498 414 274 b 315 -168 366 -18 350 -100 b 180 -261 288 -221 243 -261 b -27 86 17 -263 -28 -39 b 37 323 -27 166 -12 257 b 120 380 57 350 85 374 b 269 245 203 393 246 309 b 302 254 274 232 307 238 b 189 394 281 311 251 373 b 77 389 153 407 112 405 b -44 226 11 361 -25 291 b 54 -244 -86 79 -72 -139 b 261 -279 111 -291 191 -300 b 432 -134 336 -256 391 -197 b 525 155 486 -51 510 60 b 553 522 543 277 550 399 b 580 549 563 529 572 539 b 630 482 600 529 619 500 b 739 260 673 412 705 335 b 862 13 778 177 815 92 b 1017 -163 902 -54 949 -123 b 1269 -141 1096 -210 1200 -201 b 1199 -97 1315 -100 1229 -82 z m 554 561 b 554 566 554 563 554 564 b 557 565 555 565 556 565 b 554 561 556 563 555 562 z "},"L":{"ha":500,"x_min":0,"x_max":0,"o":"m 663 -107 b 473 -245 625 -186 566 -248 b 242 -176 393 -242 315 -207 b 40 -98 176 -148 109 -119 b 142 472 128 76 136 280 b 141 945 147 630 145 787 b 129 1426 137 1105 139 1266 b 2 1413 126 1480 6 1464 b 0 1030 -8 1286 -2 1157 b 5 647 3 902 5 775 b -42 15 5 438 8 219 b -68 -74 -49 -15 -57 -45 b -228 -100 -123 -67 -181 -70 b -235 -294 -293 -140 -321 -259 b 3 -161 -138 -333 -44 -233 b 29 -119 13 -147 21 -133 b 351 -244 138 -152 242 -210 b 548 -256 414 -264 483 -276 b 696 -109 620 -234 665 -175 b 663 -107 702 -96 668 -95 z m -83 -112 b -158 -245 -102 -157 -122 -210 b -235 -152 -221 -308 -261 -203 b -85 -96 -207 -95 -140 -90 b -76 -97 -82 -96 -79 -96 b -83 -112 -79 -102 -80 -107 z "},"M":{"ha":1807,"x_min":0,"x_max":0,"o":"m 1787 -221 b 1779 -222 1786 -222 1783 -222 b 1776 -223 1778 -223 1777 -223 b 1779 -223 1777 -223 1778 -223 b 1776 -223 1778 -223 1777 -223 b 1775 -223 1776 -223 1775 -223 b 1772 -221 1774 -222 1772 -220 b 1768 -218 1771 -220 1770 -219 b 1754 -206 1764 -214 1759 -210 b 1746 -194 1753 -205 1748 -199 b 1734 -172 1741 -187 1737 -180 b 1717 -122 1724 -150 1723 -145 b 1678 216 1687 -13 1682 104 b 1653 1081 1667 504 1683 794 b 1418 1435 1642 1184 1598 1514 b 1264 1205 1334 1397 1292 1286 b 1160 769 1214 1065 1184 916 b 1098 296 1134 613 1113 455 b 1086 548 1097 380 1094 465 b 884 937 1074 667 1062 948 b 724 813 813 933 760 869 b 624 588 680 744 650 666 b 543 310 594 496 568 403 b 554 534 549 384 552 459 b 549 989 557 685 553 837 b 538 1419 546 1132 547 1276 b 411 1406 535 1472 415 1457 b 409 1078 402 1297 407 1187 b 414 718 411 958 414 838 b 379 57 415 498 414 274 b 315 -168 366 -18 350 -100 b 180 -261 288 -221 243 -261 b -27 85 17 -263 -28 -39 b 37 323 -27 166 -12 257 b 120 380 57 350 85 374 b 269 245 203 393 246 309 b 302 254 274 232 307 238 b 189 394 281 311 251 373 b 77 389 153 407 112 405 b -44 226 11 361 -25 291 b 54 -244 -86 79 -72 -139 b 240 -284 106 -287 176 -298 b 241 -284 241 -284 241 -284 b 247 -283 243 -284 245 -283 b 261 -279 252 -282 256 -280 b 432 -134 336 -256 391 -197 b 521 133 482 -57 506 43 b 571 307 538 191 555 249 b 743 795 616 470 654 648 b 820 890 764 829 788 865 b 920 904 849 912 887 928 b 955 836 940 890 950 857 b 969 568 975 750 970 655 b 967 -62 967 358 953 148 b 1107 -48 970 -119 1110 -106 b 1106 -44 1107 -46 1107 -46 b 1108 18 1110 -24 1107 8 b 1119 169 1111 68 1115 119 b 1168 613 1132 318 1147 466 b 1256 1075 1190 768 1216 924 b 1396 1390 1284 1180 1317 1310 b 1479 1421 1417 1411 1448 1432 b 1525 1357 1505 1412 1518 1382 b 1542 1229 1538 1316 1540 1272 b 1548 1056 1545 1171 1547 1114 b 1538 194 1551 769 1527 481 b 1582 -141 1542 82 1546 -34 b 1643 -245 1595 -179 1613 -217 b 1696 -275 1658 -259 1676 -270 b 1725 -280 1705 -278 1715 -279 b 1746 -280 1732 -280 1739 -280 b 1746 -280 1746 -280 1746 -280 b 1784 -274 1755 -283 1777 -276 b 1800 -268 1789 -272 1795 -270 b 1802 -267 1807 -266 1827 -259 b 1787 -221 1848 -253 1822 -219 z m 1772 -222 b 1772 -222 1770 -222 1769 -221 z m 1745 -279 b 1746 -280 1745 -279 1745 -279 b 1745 -279 1745 -279 1745 -279 z m 1747 -280 b 1752 -280 1749 -280 1750 -280 b 1747 -280 1776 -278 1755 -281 z "},"N":{"ha":1494,"x_min":0,"x_max":0,"o":"m 1451 -223 b 1447 -223 1457 -221 1451 -222 b 1440 -216 1444 -221 1441 -218 b 1431 -208 1436 -213 1431 -208 b 1421 -192 1427 -203 1424 -198 b 1390 -92 1404 -162 1398 -131 b 1365 254 1370 22 1366 139 b 1342 1093 1361 533 1374 815 b 1095 1437 1330 1205 1277 1509 b 934 1223 1012 1404 967 1299 b 785 790 873 1083 830 936 b 619 287 733 622 682 452 b 493 5 583 192 543 95 b 525 155 507 55 517 107 b 554 534 544 281 551 407 b 549 989 557 685 553 837 b 538 1419 546 1132 547 1276 b 411 1406 535 1472 415 1457 b 409 1078 402 1297 407 1187 b 414 718 411 958 414 838 b 379 57 415 498 414 274 b 315 -168 366 -18 350 -100 b 180 -261 288 -221 243 -261 b -27 86 17 -263 -28 -39 b 37 323 -27 166 -12 257 b 120 380 57 350 85 374 b 269 245 203 393 246 309 b 302 254 274 232 307 238 b 189 394 281 311 251 373 b 77 389 153 407 112 405 b -44 226 11 361 -25 291 b 54 -244 -86 79 -72 -139 b 261 -279 111 -291 191 -300 b 405 -172 320 -261 367 -220 b 591 140 484 -81 542 30 b 770 638 663 301 717 470 b 922 1112 820 796 865 956 b 1084 1403 957 1208 998 1339 b 1237 1028 1244 1524 1237 1090 b 1226 174 1241 743 1218 459 b 1265 -149 1229 66 1232 -46 b 1323 -250 1277 -186 1294 -224 b 1338 -262 1328 -254 1333 -258 b 1343 -265 1339 -262 1341 -263 b 1343 -265 1343 -265 1343 -265 b 1355 -271 1347 -267 1350 -270 b 1375 -278 1361 -274 1368 -276 b 1404 -282 1385 -280 1394 -281 b 1424 -281 1411 -282 1418 -282 b 1426 -281 1425 -281 1426 -281 b 1431 -280 1427 -281 1429 -281 b 1460 -274 1441 -279 1450 -277 b 1477 -267 1467 -272 1505 -257 b 1451 -223 1527 -249 1490 -209 z "},"O":{"ha":1057,"x_min":0,"x_max":0,"o":"m 545 1452 b 39 1130 333 1448 139 1313 b 7 498 -66 940 -90 696 b 205 320 48 415 117 347 b 202 260 204 300 203 280 b 258 -137 196 128 193 -18 b 504 -273 310 -232 393 -289 b 748 -85 621 -257 688 -179 b 906 256 815 21 868 136 b 981 1044 985 503 1029 786 b 545 1452 940 1265 785 1458 z m 867 258 b 723 -57 831 148 784 42 b 479 -239 671 -141 593 -253 b 362 -73 400 -229 374 -138 b 342 283 342 45 337 164 b 344 314 343 294 344 304 b 496 415 404 329 457 365 b 572 558 529 458 553 508 b 538 560 577 572 543 573 b 346 336 502 467 445 365 b 504 1109 363 598 416 864 b 369 1117 525 1167 389 1166 b 265 740 320 997 291 867 b 207 344 238 609 218 477 b 40 508 134 372 75 437 b 56 1093 -49 690 -31 913 b 557 1430 147 1281 341 1434 b 955 966 808 1426 933 1187 b 867 258 978 728 940 484 z "},"P":{"ha":1453,"x_min":0,"x_max":0,"o":"m 1200 1413 b 882 1376 1094 1462 973 1450 b 660 1016 772 1286 709 1145 b 555 685 618 908 586 796 b 549 989 554 786 552 887 b 538 1419 546 1132 547 1276 b 411 1406 535 1472 415 1457 b 409 1078 402 1297 407 1187 b 414 718 411 958 414 838 b 379 57 415 498 414 274 b 315 -168 366 -18 350 -100 b 180 -261 288 -221 243 -261 b -27 85 17 -263 -28 -39 b 37 323 -27 166 -12 257 b 120 380 57 350 85 374 b 269 245 203 393 246 309 b 302 254 274 232 307 238 b 189 394 281 311 251 373 b 77 389 153 407 112 405 b -44 226 11 361 -25 291 b 54 -244 -86 79 -72 -139 b 261 -279 111 -291 191 -300 b 432 -134 336 -256 391 -197 b 525 155 486 -51 510 60 b 554 534 544 281 551 407 b 554 561 554 543 554 552 b 795 1230 627 787 668 1025 b 1063 1403 851 1321 942 1431 b 1233 1248 1146 1384 1196 1321 b 1299 954 1279 1158 1294 1054 b 1261 603 1305 836 1291 717 b 1126 299 1233 496 1190 389 b 915 128 1073 223 1006 153 b 734 139 856 111 791 117 b 625 299 668 165 630 230 b 688 478 620 364 643 431 b 780 535 713 505 745 525 b 928 478 845 554 893 532 b 961 487 935 467 969 474 b 618 435 873 624 685 557 b 693 106 555 321 583 179 b 1065 116 798 37 960 61 b 1324 393 1180 177 1265 279 b 1434 784 1385 514 1419 650 b 1403 1164 1448 912 1443 1042 b 1200 1413 1368 1271 1304 1365 z "},"Q":{"ha":1061,"x_min":0,"x_max":0,"o":"m 545 1452 b 39 1130 333 1448 139 1313 b 7 498 -66 940 -90 696 b 205 320 48 415 117 347 b 202 260 204 300 203 280 b 258 -137 196 128 193 -18 b 504 -273 310 -232 393 -289 b 592 -245 537 -268 566 -259 b 606 -318 595 -270 600 -294 b 793 -417 629 -405 708 -448 b 773 -400 815 -409 787 -395 b 624 -226 672 -437 638 -333 b 748 -85 674 -191 712 -141 b 906 256 815 21 868 136 b 981 1044 985 503 1029 786 b 545 1452 940 1265 785 1458 z m 867 258 b 723 -57 831 148 784 42 b 620 -189 696 -101 662 -152 b 610 -60 615 -136 613 -88 b 571 80 606 -22 606 53 b 464 61 537 106 493 81 b 491 48 447 48 480 40 b 569 -26 557 95 563 14 b 580 -119 574 -56 577 -88 b 588 -213 583 -150 585 -181 b 479 -239 556 -233 520 -244 b 362 -73 400 -229 374 -138 b 342 283 342 45 337 164 b 344 314 343 294 344 304 b 496 415 404 329 457 365 b 572 558 529 458 553 508 b 538 560 577 572 543 573 b 346 336 502 467 445 365 b 504 1109 363 598 416 864 b 369 1117 525 1167 389 1166 b 265 740 320 997 291 867 b 207 344 238 609 218 477 b 40 508 134 372 75 437 b 56 1093 -49 690 -31 913 b 557 1430 147 1281 341 1434 b 955 966 808 1426 933 1187 b 867 258 978 728 940 484 z "},"R":{"ha":1299,"x_min":0,"x_max":0,"o":"m 1186 1425 b 747 1200 994 1503 836 1357 b 555 676 653 1035 608 855 b 549 989 554 780 552 884 b 538 1419 546 1132 547 1276 b 411 1406 535 1472 415 1457 b 409 1078 402 1297 407 1187 b 414 718 411 958 414 838 b 379 57 415 498 414 274 b 315 -168 366 -18 350 -100 b 180 -261 288 -221 243 -261 b -27 86 17 -263 -28 -39 b 37 323 -27 166 -12 257 b 120 380 57 350 85 374 b 269 245 203 393 246 309 b 302 254 274 232 307 238 b 189 394 281 311 251 373 b 77 389 153 407 112 405 b -44 226 11 361 -25 291 b 54 -244 -86 79 -72 -139 b 261 -279 111 -291 191 -300 b 432 -134 336 -256 391 -197 b 525 155 486 -51 510 60 b 548 381 536 230 543 305 b 676 370 591 382 634 380 b 794 269 734 355 767 319 b 895 -24 843 177 846 69 b 1086 -221 938 -104 998 -186 b 1318 -172 1161 -251 1270 -247 b 1269 -149 1336 -145 1284 -140 b 1075 -78 1197 -192 1119 -132 b 932 190 1008 2 975 97 b 753 369 893 273 838 334 b 691 388 732 377 712 383 b 1083 555 835 402 974 458 b 1351 1047 1226 680 1327 858 b 1186 1425 1370 1192 1335 1365 z m 1218 1094 b 1028 655 1206 932 1136 775 b 796 488 964 583 884 526 b 551 446 718 455 634 445 b 554 534 552 475 553 504 b 554 561 554 543 554 552 b 715 1067 609 730 645 903 b 1090 1392 774 1205 898 1460 b 1218 1094 1204 1352 1227 1202 z "},"S":{"ha":1014,"x_min":0,"x_max":0,"o":"m 670 767 b 545 915 641 805 593 856 b 674 1141 604 982 650 1062 b 666 1364 696 1212 706 1297 b 507 1452 632 1421 571 1447 b 312 1389 436 1458 362 1441 b 250 1232 271 1346 249 1292 b 424 877 253 1100 347 978 b 440 857 429 870 434 864 b 284 783 393 820 341 792 b 114 847 218 772 151 787 b 68 1012 83 897 70 954 b 34 1008 68 1026 33 1023 b 133 784 35 930 61 827 b 344 776 195 747 279 753 b 456 835 384 790 421 810 b 682 492 541 726 625 620 b 664 -53 760 319 785 108 b 183 -236 553 -202 370 -296 b 54 244 -15 -173 -96 90 b 333 344 123 316 234 356 b 554 163 438 332 513 256 b 587 172 559 151 593 157 b 238 362 525 313 391 389 b -61 76 92 337 -45 232 b 166 -265 -77 -80 23 -214 b 663 -203 326 -322 523 -297 b 886 276 823 -95 904 85 b 670 767 870 456 778 626 z m 447 1412 b 592 1397 488 1440 555 1425 b 655 1264 634 1366 653 1315 b 555 980 660 1163 613 1060 b 524 940 545 967 535 953 b 447 1412 398 1097 276 1294 z "},"T":{"ha":692,"x_min":0,"x_max":0,"o":"m 925 1492 b 610 1443 820 1501 710 1472 b 297 1341 505 1411 402 1371 b -10 1413 207 1314 -19 1252 b -47 1410 -9 1429 -46 1423 b 407 1354 -59 1187 303 1319 b 421 1359 412 1355 416 1357 b 418 1347 419 1355 418 1351 b 417 1013 409 1236 415 1124 b 421 663 419 896 421 780 b 381 21 422 450 422 231 b 165 -259 360 -89 316 -280 b -20 100 13 -239 -24 -22 b 48 327 -17 178 -1 265 b 131 380 68 354 96 376 b 277 245 212 391 254 308 b 309 254 281 232 314 238 b 89 391 275 349 199 435 b -33 239 25 366 -13 302 b 46 -230 -80 93 -67 -115 b 245 -286 98 -283 173 -299 b 428 -162 322 -272 381 -222 b 528 113 485 -87 512 22 b 560 478 550 233 557 356 b 557 927 564 628 561 777 b 545 1360 553 1071 555 1216 b 516 1391 544 1377 533 1387 b 731 1452 587 1415 658 1437 b 1030 1373 811 1469 1034 1510 b 1067 1376 1029 1357 1066 1363 b 925 1492 1069 1456 993 1485 z "},"U":{"ha":1310,"x_min":0,"x_max":0,"o":"m 1357 -184 b 1309 -201 1340 -192 1327 -198 b 1309 -201 1309 -201 1309 -201 b 1309 -202 1309 -202 1309 -202 b 1309 -202 1309 -202 1309 -202 b 1309 -202 1309 -202 1309 -202 b 1305 -201 1307 -202 1305 -202 b 1300 -201 1303 -202 1301 -202 b 1293 -198 1298 -201 1295 -199 b 1282 -188 1291 -196 1283 -189 b 1258 -153 1275 -182 1266 -167 b 1194 122 1215 -71 1205 32 b 1162 988 1160 409 1161 700 b 1159 1417 1162 1131 1169 1275 b 1033 1413 1155 1467 1048 1457 b 1030 1409 1032 1412 1031 1410 b 883 700 971 1175 927 937 b 748 85 844 494 808 286 b 666 -127 727 12 702 -60 b 552 -241 641 -173 606 -227 b 477 -222 520 -249 496 -242 b 436 -133 456 -201 443 -164 b 424 201 411 -25 420 91 b 448 630 429 344 440 487 b 453 1047 456 769 462 908 b 370 1348 447 1150 436 1264 b 90 1400 299 1437 192 1461 b -56 1159 7 1350 -43 1254 b 41 867 -71 1053 -55 931 b 165 833 79 842 120 832 b 163 854 187 834 184 855 b -18 1157 4 850 -36 1034 b 44 1313 -10 1213 11 1268 b 166 1395 69 1348 118 1401 b 285 1239 238 1386 267 1308 b 319 893 315 1127 319 1008 b 305 472 320 752 312 612 b 300 74 298 340 290 206 b 364 -205 307 -18 316 -125 b 568 -273 407 -276 490 -306 b 755 -7 669 -231 721 -101 b 890 551 819 173 854 364 b 1023 1236 934 780 973 1009 b 1025 1245 1024 1239 1025 1242 b 1026 508 1018 999 1018 752 b 1062 70 1030 362 1037 214 b 1163 -209 1078 -24 1100 -134 b 1408 -207 1230 -287 1341 -282 b 1357 -184 1431 -181 1370 -177 z m 1299 -201 b 1299 -201 1299 -201 1299 -201 b 1297 -200 1299 -201 1298 -201 b 1299 -201 1298 -201 1299 -201 z m 1309 -202 b 1309 -202 1309 -202 1309 -202 b 1310 -202 1310 -202 1310 -202 b 1309 -202 1310 -202 1309 -202 z "},"V":{"ha":1221,"x_min":0,"x_max":0,"o":"m 1301 1426 b 1187 1212 1218 1429 1199 1266 b 1102 677 1150 1035 1128 855 b 999 98 1074 483 1046 288 b 927 -122 980 23 959 -52 b 829 -245 907 -168 879 -225 b 810 -249 821 -248 816 -248 b 801 -249 809 -250 803 -249 b 790 -244 797 -247 787 -243 b 784 -241 784 -241 787 -244 b 767 -225 778 -237 770 -229 b 711 -91 736 -189 722 -136 b 648 381 674 63 665 224 b 574 931 628 564 609 749 b 411 1354 546 1076 514 1242 b 259 1445 371 1398 320 1438 b 50 1396 191 1452 109 1437 b 32 929 -98 1293 -96 1048 b 156 863 67 896 110 875 b 172 883 171 859 194 877 b 48 1354 -23 936 -90 1209 b 178 1412 80 1387 130 1416 b 202 1408 184 1412 197 1409 b 215 1401 205 1406 214 1402 b 224 1395 219 1399 218 1399 b 319 1288 268 1368 295 1339 b 520 329 459 989 474 651 b 618 -121 541 177 564 24 b 692 -249 635 -168 657 -214 b 808 -287 727 -284 764 -294 b 991 -54 908 -272 960 -141 b 1106 465 1049 113 1078 291 b 1190 1034 1136 654 1160 845 b 1230 1254 1201 1108 1214 1181 b 1277 1388 1241 1298 1251 1350 b 1289 1403 1280 1393 1284 1399 b 1294 1406 1293 1406 1295 1406 b 1301 1426 1311 1405 1323 1425 z "},"W":{"ha":1476,"x_min":0,"x_max":0,"o":"m 1415 1429 b 1354 1347 1372 1431 1361 1380 b 1333 1118 1339 1272 1336 1194 b 1318 415 1323 884 1326 650 b 1293 73 1313 301 1307 186 b 1237 -175 1283 -10 1270 -98 b 1140 -236 1219 -215 1185 -271 b 1084 -140 1112 -213 1096 -173 b 1042 25 1065 -86 1052 -31 b 947 1056 979 364 964 713 b 809 1042 945 1112 807 1099 b 810 1038 809 1041 810 1039 b 689 314 769 797 734 555 b 623 27 670 218 650 121 b 540 -177 603 -42 581 -117 b 442 -241 518 -209 478 -246 b 400 -201 427 -239 412 -225 b 367 39 364 -131 366 -38 b 399 802 369 293 392 547 b 390 1157 402 920 403 1039 b 299 1394 380 1242 355 1328 b 189 1448 269 1428 230 1444 b 15 1364 117 1455 57 1421 b -55 1046 -51 1275 -69 1154 b 139 847 -43 942 26 843 b 137 868 161 848 158 869 b -3 984 69 866 18 925 b -18 1165 -24 1040 -24 1105 b 123 1414 -9 1252 32 1380 b 229 1295 184 1437 220 1345 b 256 631 271 1076 264 853 b 264 -70 247 399 222 160 b 347 -259 276 -135 293 -215 b 550 -223 412 -312 504 -287 b 714 259 649 -86 681 97 b 818 873 754 463 785 668 b 911 95 831 612 849 347 b 1038 -224 937 -13 966 -136 b 1216 -260 1081 -276 1157 -309 b 1298 -100 1262 -221 1283 -157 b 1340 189 1322 -6 1333 92 b 1363 928 1361 435 1359 682 b 1376 1264 1365 1040 1366 1152 b 1392 1369 1379 1299 1383 1335 b 1404 1400 1395 1380 1399 1390 b 1408 1409 1408 1408 1416 1409 b 1415 1429 1425 1409 1438 1428 z "},"X":{"ha":1124,"x_min":0,"x_max":0,"o":"m 1435 1389 b 1150 1355 1356 1492 1220 1435 b 931 920 1042 1232 990 1069 b 760 511 877 783 820 646 b 683 740 734 588 709 664 b 559 1073 645 852 606 964 b 414 1331 522 1162 480 1258 b 221 1451 363 1386 298 1441 b -5 1363 140 1461 47 1431 b -38 1045 -72 1274 -77 1146 b 255 848 10 920 125 852 b 262 870 273 848 286 869 b -5 1065 138 874 34 945 b 28 1349 -35 1156 -30 1270 b 145 1418 54 1384 99 1420 b 209 1390 169 1417 194 1400 b 334 1230 267 1351 300 1290 b 576 638 439 1044 506 840 b 679 340 610 540 642 439 b 467 -43 615 209 545 81 b 287 -258 418 -120 364 -206 b 89 -68 150 -349 118 -155 b 53 -72 84 -54 49 -59 b 137 -272 76 -139 82 -220 b 288 -287 179 -312 238 -312 b 448 -129 354 -253 405 -188 b 583 88 497 -60 541 14 b 695 298 622 157 659 227 b 824 21 732 202 773 109 b 1228 -222 905 -116 1046 -295 b 1208 -189 1259 -210 1230 -185 b 1130 -186 1179 -193 1154 -194 b 1053 -133 1100 -175 1075 -155 b 922 81 994 -74 955 6 b 775 466 866 207 819 336 b 1017 1045 862 656 939 850 b 1149 1304 1053 1135 1093 1225 b 1404 1381 1203 1380 1321 1484 b 1435 1389 1412 1371 1444 1378 z "},"Y":{"ha":1325,"x_min":0,"x_max":0,"o":"m 1195 1426 b 1068 1421 1187 1475 1080 1467 b 1068 1420 1068 1421 1068 1421 b 837 792 995 1209 936 993 b 646 534 790 698 733 596 b 475 541 595 497 516 491 b 421 752 429 597 424 683 b 420 1039 416 848 420 944 b 270 1452 421 1166 438 1418 b -38 1224 126 1482 8 1344 b -28 972 -68 1146 -77 1045 b 136 899 8 916 70 885 b 126 917 157 904 141 920 b -28 1102 22 895 -28 1020 b 68 1337 -28 1189 11 1272 b 212 1399 103 1378 167 1428 b 257 1342 234 1385 246 1368 b 292 1127 286 1276 289 1198 b 296 850 295 1034 292 942 b 462 462 301 720 304 504 b 847 743 638 414 777 612 b 1069 1330 947 929 1005 1131 b 1083 1063 1073 1241 1080 1152 b 1087 692 1087 940 1089 816 b 1019 36 1083 473 1070 249 b 785 -261 991 -78 939 -277 b 593 93 630 -245 591 -30 b 661 327 595 173 611 263 b 741 380 681 353 708 374 b 890 245 824 393 866 309 b 922 254 894 232 928 238 b 815 393 902 309 873 369 b 700 390 779 407 736 405 b 578 232 635 363 598 297 b 666 -236 534 85 547 -125 b 1049 -153 789 -351 961 -265 b 1170 130 1113 -73 1147 32 b 1219 502 1199 252 1212 377 b 1224 974 1229 659 1229 817 b 1195 1426 1220 1124 1217 1278 z "},"Z":{"ha":781,"x_min":0,"x_max":0,"o":"m 802 -137 b 592 -272 765 -216 682 -279 b 359 -119 495 -266 419 -190 b 322 -75 348 -105 335 -90 b 424 14 360 -48 394 -18 b 648 429 534 129 602 278 b 705 440 667 432 686 436 b 695 455 723 444 709 459 b 653 447 681 452 667 450 b 656 459 654 451 655 455 b 704 983 705 628 727 808 b 497 1398 684 1131 631 1313 b 115 1354 376 1475 217 1452 b 36 903 -1 1241 -51 1047 b 404 779 110 781 272 730 b 386 794 425 786 399 799 b 53 942 258 747 108 820 b 132 1331 -5 1069 36 1232 b 352 1412 188 1388 270 1431 b 484 1295 413 1398 456 1349 b 575 902 547 1177 570 1034 b 517 460 581 752 560 603 b 510 435 515 452 512 443 b 473 436 498 435 485 436 b 467 419 458 437 448 420 b 504 418 480 418 492 418 b 334 84 466 299 413 182 b 251 -2 310 55 282 25 b 23 60 187 56 112 95 b -112 -89 -35 37 -103 -25 b 2 -183 -121 -155 -51 -180 b 297 -92 105 -189 209 -151 b 542 -287 367 -173 431 -259 b 842 -143 668 -319 775 -245 b 802 -137 855 -124 810 -119 z m -39 -106 b -8 4 -63 -71 -32 -21 b 214 -7 57 75 148 48 b 229 -21 219 -11 224 -16 b 28 -123 169 -69 100 -109 b -39 -106 5 -128 -25 -127 z "},"[":{"ha":396,"x_min":0,"x_max":0,"o":"m 313 -324 b 200 -324 275 -324 238 -324 b 203 -313 201 -321 202 -317 b 206 120 211 -169 206 -24 b 206 560 206 267 206 413 b 204 1421 206 847 205 1134 b 203 1428 204 1423 203 1426 b 305 1427 237 1428 271 1428 b 313 1450 324 1427 337 1449 b 180 1449 269 1450 224 1450 b 73 1407 143 1464 73 1447 b 71 546 72 1120 71 833 b 71 114 71 402 71 258 b 74 -327 71 -33 66 -180 b 180 -346 77 -366 144 -368 b 305 -347 222 -347 264 -346 b 313 -324 324 -347 337 -325 z "},"\\":{"ha":650,"x_min":0,"x_max":0,"o":"m 579 -48 b 487 289 556 66 519 177 b 392 625 456 401 424 513 b 201 1287 329 846 265 1066 b 70 1273 186 1340 57 1323 b 259 602 133 1050 196 826 b 354 267 291 491 323 379 b 455 -71 386 154 415 39 b 579 -48 470 -113 589 -95 z "},"]":{"ha":396,"x_min":0,"x_max":0,"o":"m 325 120 b 325 560 325 267 325 413 b 322 1421 325 847 323 1134 b 233 1449 322 1453 272 1461 b 90 1450 186 1450 138 1450 b 83 1427 72 1449 58 1427 b 199 1428 122 1428 160 1428 b 192 1407 195 1422 192 1415 b 190 546 191 1120 190 833 b 189 114 190 402 189 258 b 193 -324 189 -32 185 -179 b 90 -325 159 -324 124 -324 b 83 -347 72 -325 58 -347 b 202 -346 122 -346 162 -347 b 321 -313 230 -375 319 -358 b 325 120 329 -169 325 -24 z "},"^":{"ha":339,"x_min":0,"x_max":0,"o":"m 252 1198 b 220 1260 244 1219 234 1242 b 165 1282 205 1279 190 1293 b 70 1122 107 1257 83 1177 b 104 1120 66 1106 101 1107 b 165 1252 115 1168 129 1217 b 170 1257 166 1254 168 1255 b 171 1251 170 1255 170 1253 b 174 1206 168 1237 173 1220 b 183 1119 177 1177 173 1147 b 269 1136 195 1087 266 1105 b 252 1198 271 1157 260 1178 z "},"_":{"ha":556,"x_min":0,"x_max":0,"o":"m 473 -2 b 84 -7 344 -2 213 0 b 82 -27 68 -8 63 -25 b 92 -28 85 -27 88 -28 b 101 -27 95 -28 98 -28 b 466 -23 222 -24 344 -23 b 473 -2 484 -23 497 -2 z "},"`":{"ha":274,"x_min":0,"x_max":0,"o":"m 150 1284 b 71 1247 124 1284 80 1278 b 101 1206 65 1226 82 1213 b 104 1177 102 1196 102 1186 b 125 1121 108 1157 115 1138 b 157 1130 131 1110 164 1116 b 145 1204 147 1148 137 1180 b 202 1239 169 1207 196 1216 b 150 1284 211 1268 173 1284 z "},"a":{"ha":554,"x_min":0,"x_max":0,"o":"m 564 290 b 505 90 542 223 532 155 b 450 -3 496 67 477 6 b 444 519 412 -16 426 373 b 322 527 451 576 329 573 b 316 475 320 510 318 492 b 289 515 309 490 300 503 b 145 556 252 555 197 568 b -28 198 1 522 -42 324 b 67 19 -20 134 9 54 b 221 41 114 -10 184 -3 b 302 227 264 92 284 162 b 368 -22 299 148 295 27 b 594 288 521 -126 568 206 b 564 290 599 301 568 301 z m 250 169 b 150 64 238 136 199 20 b 89 197 114 96 97 150 b 158 494 74 288 92 427 b 274 480 194 530 232 534 b 302 375 296 451 300 412 b 250 169 289 306 273 236 z "},"b":{"ha":610,"x_min":0,"x_max":0,"o":"m 666 296 b 486 265 607 291 545 282 b 490 336 489 289 490 313 b 412 535 491 407 470 490 b 267 532 365 571 314 566 b 142 329 203 486 168 401 b 111 225 130 295 120 260 b 107 340 110 263 109 302 b 317 824 213 480 279 656 b 344 1083 336 908 349 996 b 288 1242 341 1137 331 1203 b 59 1143 199 1323 92 1228 b -15 628 -3 982 -9 797 b -16 292 -20 516 -18 404 b -5 23 -15 202 -16 112 b 104 28 0 -22 91 -11 b 109 35 107 30 109 32 b 187 355 128 143 147 252 b 261 489 206 402 228 450 b 355 536 278 508 325 555 b 376 475 373 525 374 494 b 339 204 382 385 364 292 b 247 134 305 185 274 162 b 159 -55 199 87 154 15 b 284 -96 164 -116 241 -113 b 436 82 361 -65 406 9 b 482 241 457 131 473 186 b 669 275 542 260 605 270 b 666 296 690 277 688 298 z m 102 504 b 117 1019 100 675 94 849 b 244 1240 124 1072 147 1286 b 311 1101 293 1217 306 1150 b 293 860 319 1021 309 938 b 105 384 261 696 202 524 b 102 504 104 424 102 464 z m 325 160 b 256 11 308 108 287 58 b 220 -41 244 -6 232 -24 b 205 -59 215 -47 209 -53 b 206 2 202 -41 206 0 b 240 80 213 30 224 57 b 327 166 262 114 293 142 b 325 160 326 164 325 162 z "},"c":{"ha":375,"x_min":0,"x_max":0,"o":"m 387 279 b 303 137 360 230 335 182 b 206 42 279 105 246 56 b 130 91 176 32 144 68 b 94 198 110 124 100 160 b 135 448 80 283 94 372 b 200 525 148 472 170 517 b 263 416 266 540 279 458 b 294 414 257 403 289 403 b 192 558 328 495 274 555 b -11 387 90 561 18 476 b 10 92 -41 293 -39 180 b 207 17 50 20 129 -16 b 418 277 309 59 378 180 b 387 279 423 290 392 288 z "},"d":{"ha":646,"x_min":0,"x_max":0,"o":"m 652 274 b 636 221 646 256 642 238 b 530 -5 606 145 584 58 b 482 -17 513 -25 498 -37 b 452 85 467 1 455 52 b 432 389 441 186 435 287 b 663 948 563 544 649 746 b 568 1257 670 1044 675 1223 b 315 838 368 1321 325 959 b 304 495 306 724 304 610 b 289 515 300 502 295 509 b 145 556 252 555 197 568 b -28 198 1 522 -42 324 b 67 19 -20 134 9 54 b 221 41 114 -10 184 -3 b 311 265 260 88 295 189 b 360 32 317 185 330 106 b 534 -47 389 -38 460 -99 b 671 219 613 9 639 134 b 687 272 677 236 681 254 b 652 274 692 286 657 287 z m 250 169 b 150 64 238 136 199 20 b 89 197 114 96 97 150 b 158 494 74 288 92 427 b 274 480 194 530 232 534 b 302 375 296 451 300 412 b 250 169 289 306 273 236 z m 431 775 b 457 1090 432 879 436 987 b 530 1229 464 1127 487 1214 b 612 1144 574 1244 602 1175 b 629 954 631 1084 633 1017 b 431 433 619 768 543 582 b 431 775 428 547 429 661 z "},"e":{"ha":374,"x_min":0,"x_max":0,"o":"m 386 279 b 265 92 350 213 316 147 b 186 40 249 74 214 35 b 142 72 173 42 151 62 b 92 323 87 134 77 235 b 287 403 167 316 247 333 b 229 553 322 464 299 536 b -26 323 85 588 -9 447 b 119 4 -42 211 -16 33 b 416 277 263 -26 372 172 b 386 279 422 290 391 288 z m 118 415 b 221 524 134 453 168 536 b 270 457 252 517 270 487 b 96 343 270 364 174 337 b 118 415 101 369 109 394 z "},"f":{"ha":272,"x_min":0,"x_max":0,"o":"m 186 113 b 117 154 166 131 142 145 b 309 270 178 199 241 238 b 291 285 329 279 304 291 b 100 172 224 254 160 216 b 100 175 100 173 100 174 b 108 462 102 271 104 366 b 110 694 111 539 119 617 b 0 691 105 735 5 729 b -13 467 -9 616 -11 542 b -17 192 -16 375 -20 284 b 63 -279 -13 41 -14 -142 b 184 -357 89 -325 129 -357 b 303 -275 238 -357 284 -325 b 186 113 350 -149 284 29 z m 224 -320 b 145 -256 184 -329 158 -286 b 107 -73 119 -200 112 -134 b 100 135 101 -4 100 66 b 143 115 114 131 128 125 b 216 36 172 94 196 66 b 283 -167 254 -24 278 -96 b 224 -320 287 -214 283 -306 z "},"g":{"ha":576,"x_min":0,"x_max":0,"o":"m 597 288 b 441 191 542 260 491 227 b 432 533 438 305 433 419 b 315 521 431 580 315 570 b 316 474 315 505 316 490 b 288 515 309 489 300 503 b 145 556 251 555 197 568 b -28 198 0 522 -43 324 b 67 19 -21 134 9 54 b 220 41 114 -10 184 -3 b 304 235 266 95 286 168 b 319 301 309 257 315 279 b 323 95 321 232 323 164 b 279 54 308 82 293 68 b 33 -281 180 -42 88 -153 b -19 -681 -18 -398 -58 -555 b 137 -812 2 -750 62 -808 b 390 -541 284 -819 358 -660 b 444 16 439 -362 442 -168 b 442 161 444 65 443 113 b 616 272 497 203 555 240 b 597 288 636 282 610 295 z m 249 169 b 150 64 238 136 199 20 b 89 197 114 96 97 150 b 149 477 74 288 96 400 b 186 521 159 491 172 511 b 274 480 219 542 257 505 b 302 375 294 450 300 412 b 249 169 289 306 273 236 z m 299 -396 b 255 -612 290 -469 277 -542 b 179 -744 240 -660 217 -714 b 133 -762 161 -758 153 -759 b 45 -727 103 -766 69 -758 b 35 -378 -27 -636 6 -478 b 264 -1 76 -233 161 -110 b 324 59 283 20 303 40 b 299 -396 324 -93 320 -244 z "},"h":{"ha":589,"x_min":0,"x_max":0,"o":"m 601 276 b 488 14 570 187 539 93 b 438 -34 473 -9 452 -38 b 456 264 417 -28 452 105 b 386 541 458 347 466 489 b 200 445 297 600 233 509 b 112 203 161 369 134 286 b 107 340 111 248 109 294 b 317 824 213 480 279 656 b 344 1083 336 908 349 996 b 288 1242 341 1137 331 1203 b 59 1143 199 1323 92 1228 b -15 628 -3 982 -9 797 b -16 292 -20 516 -18 404 b -5 23 -15 202 -16 112 b 105 34 0 -24 101 -9 b 107 58 106 42 107 50 b 213 404 135 175 164 294 b 308 534 228 438 263 528 b 336 459 338 538 336 479 b 316 120 337 346 322 233 b 412 -70 313 47 311 -68 b 515 0 459 -70 490 -37 b 631 274 569 82 600 181 b 601 276 636 287 605 287 z m 117 1019 b 244 1240 124 1072 147 1286 b 311 1101 293 1217 306 1150 b 293 860 319 1021 309 938 b 105 384 261 696 202 524 b 102 504 104 424 102 464 b 117 1019 100 675 94 849 z "},"i":{"ha":231,"x_min":0,"x_max":0,"o":"m 241 290 b 182 90 220 223 209 155 b 127 -3 173 67 154 4 b 122 519 84 -15 103 373 b -1 527 129 576 7 573 b -21 235 -15 430 -19 332 b 45 -22 -23 156 -31 29 b 272 288 199 -126 245 206 b 241 290 276 301 245 301 z m 18 615 b 29 609 22 613 25 611 b 58 602 38 604 48 602 b 83 604 66 601 75 602 b 106 611 91 605 99 607 b 123 622 112 613 118 617 b 133 636 127 626 131 631 b 134 647 133 640 133 643 b 123 665 133 654 129 660 b 113 671 120 667 116 669 b 84 678 103 675 94 678 b 59 676 75 679 67 678 b 36 669 51 675 43 673 b 19 658 29 667 24 663 b 9 644 14 654 11 649 b 8 633 9 640 8 637 b 18 615 9 626 12 620 z "},"j":{"ha":247,"x_min":0,"x_max":0,"o":"m -14 615 b -4 609 -11 613 -7 611 b 25 602 6 604 15 602 b 50 604 34 601 42 602 b 73 611 59 605 66 607 b 90 622 80 613 85 617 b 100 636 95 626 98 631 b 101 647 100 640 101 643 b 91 665 100 654 97 660 b 80 671 87 667 84 669 b 51 678 71 675 61 678 b 26 676 43 679 34 678 b 3 669 18 675 10 673 b -14 658 -3 667 -9 663 b -24 644 -18 654 -22 649 b -25 633 -24 640 -24 637 b -14 615 -24 626 -20 620 z m 267 288 b 112 191 213 260 162 227 b 103 533 109 305 104 419 b -14 521 102 580 -14 570 b -6 95 -13 379 -7 237 b -50 54 -21 82 -36 68 b -297 -281 -149 -42 -241 -153 b -348 -681 -347 -398 -387 -555 b -192 -812 -327 -750 -267 -808 b 61 -541 -45 -819 29 -660 b 114 16 110 -362 113 -168 b 113 161 115 65 114 113 b 287 272 168 203 226 240 b 267 288 307 282 281 295 z m -30 -396 b -74 -612 -40 -469 -52 -542 b -151 -744 -90 -660 -112 -714 b -196 -762 -168 -758 -177 -759 b -284 -727 -226 -766 -260 -758 b -295 -378 -356 -636 -323 -478 b -65 -1 -253 -233 -168 -110 b -5 59 -46 20 -26 40 b -30 -396 -5 -93 -9 -244 z "},"k":{"ha":482,"x_min":0,"x_max":0,"o":"m 493 287 b 397 43 455 208 434 122 b 352 -25 389 26 372 -18 b 321 -2 338 -29 329 -14 b 253 152 290 44 273 101 b 213 243 241 181 232 217 b 406 418 289 282 371 340 b 363 554 427 467 420 534 b 178 408 279 584 207 466 b 135 305 162 375 148 340 b 112 293 128 301 120 297 b 109 292 111 293 110 292 b 107 340 109 308 108 324 b 317 824 213 480 279 656 b 344 1083 336 908 349 996 b 288 1242 341 1137 331 1203 b 59 1143 199 1323 92 1228 b -15 628 -3 982 -9 798 b -16 292 -20 516 -18 404 b -5 23 -15 202 -16 112 b 105 34 0 -24 101 -9 b 108 65 106 45 107 55 b 121 129 112 86 117 108 b 150 71 130 109 140 90 b 293 -66 179 16 225 -58 b 416 6 347 -73 391 -38 b 462 112 436 39 449 76 b 523 285 483 169 506 226 b 493 287 527 299 498 296 z m 105 384 b 102 504 104 424 102 464 b 117 1019 100 675 94 849 b 244 1240 124 1072 147 1286 b 311 1101 293 1217 306 1150 b 293 860 319 1021 309 938 b 105 384 261 696 202 524 z m 218 424 b 330 534 241 467 278 527 b 292 422 401 542 307 437 b 178 330 258 386 219 356 b 218 424 189 362 202 394 z "},"l":{"ha":318,"x_min":0,"x_max":0,"o":"m 325 274 b 308 221 318 256 314 238 b 202 -5 279 145 256 58 b 154 -17 186 -25 167 -46 b 132 85 140 14 135 52 b 113 389 122 186 116 287 b 335 948 244 544 322 746 b 215 1265 342 1044 341 1239 b -13 838 12 1309 -3 959 b -22 401 -24 693 -25 547 b 32 32 -19 277 -15 147 b 206 -47 61 -38 132 -99 b 343 219 285 9 311 134 b 359 272 349 236 353 254 b 325 274 365 286 329 287 z m 111 775 b 137 1090 113 879 116 987 b 202 1229 145 1127 159 1214 b 284 1144 247 1244 274 1175 b 302 954 303 1084 305 1017 b 112 433 291 768 224 582 b 111 775 109 547 109 661 z "},"m":{"ha":718,"x_min":0,"x_max":0,"o":"m 729 276 b 636 49 701 199 673 122 b 589 -21 624 26 597 -22 b 594 368 558 -18 602 282 b 521 540 589 428 576 505 b 400 496 470 573 428 545 b 332 308 368 439 348 374 b 294 486 330 371 322 433 b 183 513 272 528 218 558 b 112 296 138 456 126 364 b 109 283 111 292 110 288 b 105 533 108 367 105 450 b -16 521 104 582 -16 572 b -8 23 -16 355 -19 188 b 102 34 -5 -24 99 -10 b 105 71 103 47 104 59 b 187 459 122 201 140 337 b 222 517 191 467 210 520 b 216 436 224 517 216 441 b 194 130 205 334 198 232 b 322 125 192 84 295 85 b 327 131 325 126 327 129 b 375 341 342 201 356 272 b 444 513 391 398 407 465 b 483 531 451 522 471 547 b 476 368 499 508 479 410 b 460 65 468 267 460 166 b 490 -39 460 26 464 -11 b 575 -63 515 -66 541 -71 b 655 20 615 -53 637 -13 b 760 274 700 100 730 188 b 729 276 764 287 733 287 z "},"n":{"ha":585,"x_min":0,"x_max":0,"o":"m 595 276 b 482 14 564 187 534 93 b 433 -34 468 -9 446 -38 b 450 264 411 -28 446 105 b 381 541 452 347 460 489 b 194 445 292 600 227 509 b 109 215 157 373 131 294 b 105 533 110 321 106 428 b -16 521 104 582 -16 572 b -8 23 -16 355 -19 188 b 102 34 -5 -24 99 -10 b 103 48 103 39 103 43 l 104 68 b 207 404 131 182 160 297 b 302 534 222 438 257 528 b 331 459 332 538 331 479 b 311 120 332 346 316 233 b 406 -70 307 47 305 -68 b 509 0 454 -70 484 -37 b 626 274 563 82 595 181 b 595 276 630 287 599 287 z "},"o":{"ha":442,"x_min":0,"x_max":0,"o":"m 461 291 b 333 252 422 274 378 260 b 332 340 336 282 335 312 b 233 531 322 408 291 490 b 67 530 182 566 118 560 b -11 382 15 499 -20 444 b -10 381 -11 382 -10 381 b 133 -5 -46 252 -41 2 b 286 101 202 -7 255 44 b 330 229 308 140 323 184 b 481 275 383 238 435 254 b 461 291 501 284 475 297 z m 244 94 b 132 71 217 54 167 26 b 100 158 113 95 105 128 b 100 256 96 191 96 224 b 294 225 159 227 226 219 b 244 94 285 176 268 130 z m 297 248 b 126 275 238 242 178 249 b 104 287 118 279 111 283 b 133 392 111 323 121 358 b 30 431 148 435 76 448 b 212 510 47 508 143 565 b 297 248 286 451 309 346 z "},"p":{"ha":599,"x_min":0,"x_max":0,"o":"m 633 288 b 481 292 582 291 532 295 b 483 378 485 321 486 350 b 387 547 476 441 447 516 b 232 519 334 574 275 557 b 123 335 179 473 147 400 b 107 286 117 319 112 302 b 108 529 107 367 107 448 b -13 516 109 577 -12 567 b -14 -733 -18 100 -21 -316 b 97 -721 -13 -777 95 -767 b 107 137 109 -435 108 -149 b 163 346 120 208 137 278 b 228 472 180 390 200 434 b 286 526 243 493 263 515 b 355 491 329 547 348 527 b 338 253 369 413 362 330 b 234 179 300 234 264 208 b 159 14 194 140 149 74 b 296 -14 169 -44 258 -31 b 438 152 367 20 406 84 b 477 269 456 189 469 228 b 626 267 525 273 575 270 b 633 288 643 266 656 287 z m 325 214 b 257 86 307 169 285 126 b 206 12 240 61 218 38 b 206 76 199 26 205 72 b 237 139 213 99 223 120 b 326 218 260 171 292 196 b 325 214 325 216 325 215 z "},"q":{"ha":568,"x_min":0,"x_max":0,"o":"m 626 -556 b 554 -299 621 -467 593 -378 b 467 -162 531 -250 502 -203 b 436 -133 458 -152 447 -142 b 436 -124 436 -130 436 -127 b 625 276 499 9 559 144 b 591 278 631 289 597 290 b 435 -53 537 168 486 57 b 435 -13 435 -40 435 -27 b 433 283 434 85 432 184 b 430 528 434 365 438 446 b 320 525 426 569 325 563 b 315 476 318 509 317 492 b 289 515 309 490 300 503 b 145 556 252 555 197 568 b -28 198 1 522 -42 324 b 67 19 -20 134 9 54 b 221 41 114 -10 184 -3 b 304 235 266 95 286 168 b 308 251 305 240 306 246 b 315 -1 309 167 312 82 b 380 -543 322 -182 334 -368 b 574 -708 401 -623 464 -772 b 626 -556 624 -678 628 -607 z m 250 169 b 150 64 238 136 199 20 b 89 197 114 96 97 150 b 150 477 74 288 96 400 b 187 521 159 491 172 511 b 274 480 219 542 257 505 b 302 375 294 450 300 412 b 250 169 289 306 273 236 z m 582 -656 b 505 -668 564 -698 527 -711 b 465 -516 483 -622 473 -566 b 436 -170 446 -403 439 -286 b 461 -199 445 -179 453 -189 b 575 -444 514 -272 553 -357 b 582 -656 592 -508 609 -592 z "},"r":{"ha":482,"x_min":0,"x_max":0,"o":"m 493 281 b 449 116 476 227 468 170 b 370 -18 439 89 404 -24 b 359 38 355 -15 359 23 b 357 124 358 67 358 95 b 359 303 356 184 356 243 b 311 335 360 324 337 335 b 170 304 262 341 218 318 b 72 307 139 294 99 290 b 150 509 110 367 149 440 b -6 554 150 595 46 604 b 13 262 -75 487 -86 309 b 159 271 59 240 114 254 b 237 305 183 280 210 295 b 233 290 235 301 233 295 b 247 40 230 208 220 119 b 364 -58 264 -10 303 -67 b 455 48 412 -51 438 9 b 523 280 488 123 499 202 b 493 281 527 293 497 293 z m 51 330 b 25 474 26 371 20 427 b 105 547 28 506 60 601 b 109 463 123 525 115 488 b 51 330 97 416 76 371 z "},"s":{"ha":342,"x_min":0,"x_max":0,"o":"m 363 285 b 175 174 299 254 232 220 b 170 183 173 177 171 180 b 52 376 130 243 67 304 b 177 539 35 450 105 532 b 230 425 251 546 252 471 b 161 311 211 385 184 348 b 187 305 153 298 181 296 b 273 487 218 355 279 424 b 180 560 269 538 227 561 b -46 332 70 556 -87 458 b 62 138 -24 262 25 201 b 93 83 73 121 84 102 b 85 72 90 79 88 76 b 86 -53 66 39 42 -29 b 222 -7 131 -77 200 -50 b 189 152 248 43 218 104 b 203 165 194 157 199 161 b 382 270 257 209 319 240 b 363 285 401 279 376 291 z m 97 5 b 105 47 97 19 100 33 b 106 46 106 47 106 46 b 112 -6 110 29 112 12 b 109 -28 111 -13 110 -21 b 97 5 110 -50 106 -39 z "},"t":{"ha":310,"x_min":0,"x_max":0,"o":"m 315 274 b 299 221 309 256 305 238 b 193 -5 269 145 247 58 b 144 -17 176 -25 158 -46 b 123 85 130 14 126 52 b 103 389 113 186 107 287 b 326 948 234 544 312 746 b 323 1090 329 984 329 1039 b 480 1046 378 1091 431 1088 b 519 1070 493 1035 539 1057 b 319 1114 458 1110 389 1117 b 205 1265 306 1186 275 1257 b 18 1078 100 1278 46 1191 b -199 1091 -85 1068 -198 1063 b -239 1087 -199 1108 -239 1107 b 11 1053 -239 1027 -110 1046 b -14 838 -6 973 -10 886 b -23 401 -25 693 -26 547 b 31 32 -20 277 -16 147 b 197 -47 60 -38 123 -99 b 334 219 276 9 302 134 b 350 272 340 236 344 254 b 315 274 355 286 320 287 z m 292 954 b 102 433 282 768 215 582 b 102 775 100 547 100 661 b 123 1069 103 871 106 974 b 270 1086 172 1075 221 1081 b 287 1088 276 1087 281 1087 b 292 954 294 1045 295 996 z m 193 1229 b 275 1144 237 1244 265 1175 b 283 1111 278 1134 281 1123 b 198 1102 254 1109 226 1105 b 128 1092 188 1101 163 1097 b 193 1229 136 1131 151 1215 z "},"u":{"ha":519,"x_min":0,"x_max":0,"o":"m 529 290 b 470 90 508 223 497 155 b 416 -3 461 67 442 6 b 410 519 369 -20 391 373 b 289 533 416 574 306 574 b 287 528 288 532 287 530 b 218 196 268 417 250 305 b 164 62 205 150 190 102 b 131 27 155 48 146 34 b 99 258 80 3 97 184 b 109 528 101 348 106 438 b -14 515 111 576 -14 567 b -21 271 -15 433 -25 352 b 23 46 -18 199 -13 110 b 150 11 50 -3 108 -12 b 248 184 208 42 231 126 b 268 257 255 208 262 232 b 267 235 267 249 267 242 b 333 -22 265 156 258 29 b 560 288 487 -126 533 206 b 529 290 564 301 533 301 z "},"v":{"ha":506,"x_min":0,"x_max":0,"o":"m 535 295 b 394 292 492 293 442 287 b 404 482 406 355 410 420 b 363 591 401 520 393 566 b 233 580 324 626 265 618 b 263 316 171 506 192 376 b 355 275 290 293 321 281 b 323 151 347 233 336 191 b 270 29 309 109 293 67 b 214 -30 261 13 236 -31 b 164 73 191 -29 170 54 b 137 212 151 119 143 165 b 103 517 123 314 117 416 b -34 503 95 574 -43 558 b 26 158 -15 388 -7 270 b 197 -65 49 80 91 -72 b 347 119 279 -60 324 55 b 390 270 365 167 380 218 b 537 273 440 266 491 272 b 535 295 559 274 556 295 z m 359 297 b 302 322 339 302 319 310 b 252 554 233 371 211 482 b 353 550 281 605 331 597 b 371 442 368 517 371 477 b 359 297 372 394 368 345 z "},"w":{"ha":657,"x_min":0,"x_max":0,"o":"m 687 288 b 555 291 649 287 599 284 b 559 489 563 357 566 424 b 525 592 555 523 549 566 b 408 568 486 631 432 612 b 458 300 365 488 382 355 b 517 274 474 288 495 280 b 497 167 511 238 505 202 b 413 -30 481 101 463 19 b 410 -32 412 -31 411 -32 b 396 -10 406 -28 399 -16 b 363 129 376 31 369 84 b 338 432 348 229 344 331 b 202 431 335 483 216 476 b 200 427 201 430 200 428 b 139 106 185 320 172 209 b 115 50 132 87 126 67 b 102 33 113 46 106 39 b 99 39 101 35 100 37 b 95 75 96 50 96 63 b 102 528 81 225 97 377 b -22 515 103 576 -21 567 b -17 242 -22 424 -24 333 b 39 19 -11 173 -11 73 b 155 60 82 -28 135 16 b 216 301 189 134 205 218 b 267 75 227 225 241 149 b 409 -62 288 15 326 -87 b 526 142 483 -40 510 79 b 551 268 536 183 545 225 b 689 267 598 263 649 266 b 687 288 711 268 708 289 z m 520 298 b 497 308 512 301 504 304 b 431 541 423 349 406 466 b 492 581 440 565 463 603 b 510 550 501 575 507 561 b 527 446 523 518 525 480 b 520 298 528 397 526 347 z "},"x":{"ha":475,"x_min":0,"x_max":0,"o":"m 481 272 b 315 -27 466 238 350 -52 b 284 36 302 -18 291 21 b 244 132 269 67 256 99 b 189 286 225 183 207 234 b 369 543 235 382 289 474 b 343 555 384 556 353 564 b 176 325 271 492 219 412 b 163 362 171 338 167 350 b 82 538 142 421 121 487 b -39 505 52 577 -72 547 b 57 284 9 442 32 358 b 100 158 72 243 85 200 b 30 1 78 104 55 51 b 63 -1 24 -12 57 -13 b 116 117 82 37 99 77 b 161 28 129 87 144 57 b 319 -64 195 -26 250 -76 b 416 39 372 -54 395 -5 b 516 270 453 114 483 193 b 481 272 523 284 487 285 z "},"y":{"ha":540,"x_min":0,"x_max":0,"o":"m 560 288 b 405 191 506 260 455 227 b 396 533 402 305 397 419 b 281 532 395 576 297 571 b 280 528 280 531 280 530 b 211 196 261 417 243 305 b 157 62 198 150 183 102 b 124 27 147 48 140 33 b 92 258 79 11 90 184 b 102 528 93 348 99 438 b -22 515 104 576 -21 567 b -28 271 -22 433 -32 352 b 16 46 -25 199 -20 110 b 143 11 43 -3 101 -12 b 241 184 201 42 224 126 b 282 357 258 241 271 299 b 287 95 284 270 286 182 b 243 54 272 82 257 68 b -3 -281 144 -42 52 -153 b -55 -681 -54 -398 -94 -555 b 101 -812 -34 -750 26 -808 b 354 -541 248 -819 322 -660 b 407 16 403 -362 406 -168 b 406 161 408 65 407 113 b 580 272 461 203 519 240 b 560 288 600 282 574 295 z m 263 -396 b 219 -612 253 -469 241 -542 b 142 -744 203 -660 181 -714 b 97 -762 125 -758 116 -759 b 9 -727 67 -766 33 -758 b -2 -378 -63 -636 -30 -478 b 228 -1 40 -233 125 -110 b 288 59 247 20 267 40 b 263 -396 288 -93 284 -244 z "},"z":{"ha":383,"x_min":0,"x_max":0,"o":"m 399 303 b 189 134 323 257 253 198 b 180 153 186 140 183 146 b 257 340 230 201 256 271 b 152 545 258 415 221 508 b 0 377 49 601 -43 472 b 32 386 6 366 39 372 b 118 529 0 451 60 559 b 128 297 175 500 150 353 b 52 178 109 250 84 216 b 63 133 38 160 47 143 b 101 36 78 102 91 69 b 52 -28 84 15 68 -7 b -53 -237 6 -92 -32 -161 b -72 -497 -75 -319 -91 -413 b 4 -612 -62 -540 -38 -591 b 144 -587 48 -633 108 -615 b 257 -279 231 -518 252 -383 b 201 106 264 -152 248 -15 b 424 291 268 177 343 241 b 399 303 441 301 409 309 z m 137 -199 b 96 -510 141 -300 138 -416 b 71 -551 89 -525 82 -539 b 49 -567 62 -560 50 -566 b -37 -473 -5 -577 -29 -521 b 80 -41 -63 -322 -6 -163 b 111 0 90 -27 100 -13 b 137 -199 127 -65 134 -132 z "},"{":{"ha":542,"x_min":0,"x_max":0,"o":"m 329 1240 b 446 1415 334 1295 348 1467 b 469 1429 454 1411 481 1419 b 337 1410 428 1465 372 1444 b 247 1172 275 1349 259 1254 b 76 647 219 994 174 801 b 80 607 68 634 65 617 b 181 388 148 560 167 463 b 221 73 201 284 209 178 b 278 -216 232 -20 240 -128 b 434 -348 305 -278 355 -359 b 431 -321 460 -344 458 -318 b 370 -205 380 -326 371 -238 b 366 -71 370 -161 368 -116 b 345 214 361 24 355 119 b 301 475 335 302 324 390 b 210 646 284 537 261 604 b 312 1019 271 761 300 889 b 329 1240 318 1093 323 1167 z "},"|":{"ha":188,"x_min":0,"x_max":0,"o":"m 119 1310 b 70 1301 119 1325 70 1319 b 69 -16 70 862 70 423 b 119 -8 69 -32 119 -26 b 119 1310 119 432 119 871 z "},"}":{"ha":542,"x_min":0,"x_max":0,"o":"m 469 650 b 295 1174 370 805 323 994 b 212 1404 283 1253 269 1342 b 73 1428 177 1443 119 1466 b 94 1416 60 1417 85 1411 b 210 1254 185 1465 206 1308 b 228 1024 216 1178 222 1101 b 330 637 239 891 268 756 b 244 479 285 597 260 536 b 199 216 220 393 209 304 b 177 -61 188 124 181 32 b 170 -195 175 -105 170 -150 b 113 -321 170 -228 170 -326 b 99 -347 96 -319 73 -343 b 250 -239 171 -358 220 -298 b 318 69 297 -146 305 -33 b 358 383 331 174 339 279 b 456 610 371 458 388 563 b 469 650 468 618 478 636 z "}," ":{"ha":361,"x_min":0,"x_max":0,"o":""},"¡":{"ha":282,"x_min":0,"x_max":0,"o":"m 201 1262 b 190 1269 198 1264 194 1267 b 160 1276 180 1273 170 1276 b 133 1274 151 1277 142 1276 b 109 1267 125 1273 117 1270 b 91 1254 102 1264 96 1260 b 81 1239 86 1250 83 1246 b 79 1229 80 1236 80 1232 b 91 1209 81 1221 84 1214 b 102 1202 94 1207 98 1205 b 132 1195 112 1198 122 1196 b 159 1197 141 1194 150 1195 b 183 1205 167 1198 176 1201 b 201 1217 190 1207 196 1212 b 211 1232 206 1221 209 1226 b 213 1243 212 1235 212 1239 b 201 1262 211 1250 208 1257 z m 74 1122 b 71 840 66 1028 71 933 b 71 559 71 746 71 652 b 73 4 71 374 72 189 b 204 18 73 -48 203 -37 b 206 573 205 203 206 388 b 206 846 206 664 206 755 b 202 1135 206 942 211 1039 b 74 1122 198 1189 79 1173 z "},"¢":{"ha":588,"x_min":0,"x_max":0,"o":"m 487 320 b 403 178 460 271 435 223 b 306 84 379 146 346 98 b 305 567 307 245 306 406 b 363 457 366 577 378 498 b 394 455 357 444 389 444 b 305 598 426 532 380 590 b 305 657 305 618 305 637 b 274 654 305 669 274 667 b 274 599 274 635 274 617 b 89 428 182 592 116 511 b 110 134 59 334 61 221 b 273 48 145 72 207 36 b 274 -16 273 27 274 6 b 305 -12 274 -28 305 -25 b 306 57 305 11 306 34 b 307 58 306 57 307 57 b 518 318 409 100 478 221 b 487 320 523 331 492 329 z m 273 88 b 230 132 255 98 239 117 b 194 239 210 165 200 201 b 235 489 180 324 194 413 b 274 549 243 506 257 532 b 273 88 273 395 272 242 z "},"£":{"ha":1049,"x_min":0,"x_max":0,"o":"m 572 914 b 539 905 564 925 530 917 b 832 849 604 806 732 796 b 975 1065 912 892 961 977 b 916 1326 989 1155 974 1254 b 656 1429 851 1406 756 1435 b 267 1087 458 1416 333 1260 b 177 425 188 880 180 644 b 87 424 147 424 117 424 b 81 405 71 424 60 405 b 177 405 113 405 145 405 b 181 -282 174 176 193 -54 b 305 -284 179 -327 291 -323 b 709 -251 434 -222 568 -215 b 915 -272 766 -266 859 -311 b 892 -261 931 -262 902 -255 b 792 -252 866 -279 819 -259 b 638 -215 741 -238 690 -224 b 308 -260 523 -198 412 -214 b 317 246 326 -92 318 78 b 318 405 317 299 317 352 b 401 405 346 405 373 405 b 407 424 416 406 429 424 b 318 425 378 425 348 425 b 351 876 321 576 329 726 b 531 1322 373 1026 406 1220 b 737 1379 589 1369 663 1388 b 927 1211 833 1368 899 1303 b 887 936 954 1120 942 1014 b 572 914 814 831 650 796 z "},"¤":{"ha":429,"x_min":0,"x_max":0,"o":"m 320 284 b 360 400 344 317 359 360 b 323 518 362 443 348 487 b 355 575 334 537 344 556 b 321 577 362 588 328 589 b 300 540 314 565 307 553 b 187 548 271 562 232 569 b 176 543 183 546 179 545 b 154 581 169 555 162 568 b 121 572 148 593 114 585 b 140 538 128 560 134 549 b 101 517 123 534 108 526 b 137 245 50 447 61 302 b 122 218 132 236 127 227 b 152 213 116 206 143 205 b 153 213 152 213 153 213 b 163 231 156 219 159 225 b 182 225 169 228 175 226 b 296 258 227 215 267 230 b 322 212 305 242 314 227 b 354 221 328 201 361 208 b 320 284 343 242 331 263 z m 286 515 b 239 430 270 487 254 459 b 213 477 230 446 221 461 b 212 511 213 488 214 499 b 203 530 212 519 208 525 b 286 515 234 546 264 537 z m 204 422 b 219 395 209 413 214 404 b 198 357 212 383 205 370 b 204 422 197 379 201 400 z m 207 308 b 237 363 217 326 227 344 b 282 283 252 336 267 310 b 207 308 247 248 220 271 z m 257 398 b 306 487 273 428 290 457 b 312 476 308 483 310 480 b 322 366 326 441 328 402 b 304 313 318 347 313 330 b 257 398 288 342 273 370 z "},"¥":{"ha":1526,"x_min":0,"x_max":0,"o":"m 1445 512 b 1353 512 1414 512 1384 512 b 1359 662 1356 562 1358 612 b 1439 662 1385 662 1412 662 b 1445 681 1454 663 1466 681 b 1359 682 1416 682 1388 682 b 1356 955 1360 773 1359 864 b 1326 1407 1352 1104 1349 1258 b 1200 1402 1319 1456 1212 1447 b 1200 1401 1200 1402 1200 1401 b 969 772 1127 1190 1068 973 b 778 514 922 679 865 576 b 607 522 727 477 648 472 b 553 733 561 578 556 664 b 552 1020 548 828 552 924 b 402 1433 553 1146 570 1398 b 94 1204 258 1462 140 1324 b 103 952 64 1126 55 1025 b 268 880 140 896 202 866 b 258 897 289 884 273 900 b 104 1082 154 876 104 1001 b 200 1318 104 1169 143 1253 b 344 1380 235 1358 299 1408 b 389 1322 366 1365 377 1348 b 424 1107 418 1256 421 1178 b 428 831 427 1015 424 923 b 594 442 433 700 436 485 b 979 724 770 394 909 593 b 1201 1310 1078 909 1137 1111 b 1215 1044 1205 1222 1212 1133 b 1219 682 1219 923 1220 802 b 1125 681 1187 682 1156 681 b 1119 662 1109 681 1098 662 b 1218 662 1152 662 1185 662 b 1214 512 1218 612 1216 562 b 1125 512 1184 512 1155 512 b 1119 493 1109 512 1098 493 b 1213 492 1150 493 1182 493 b 1150 17 1205 332 1188 172 b 917 -281 1123 -97 1071 -296 b 725 73 762 -265 723 -50 b 793 308 727 153 742 243 b 873 360 813 333 840 355 b 1022 225 956 374 998 290 b 1054 234 1026 213 1060 219 b 947 373 1034 290 1005 349 b 832 371 910 388 868 386 b 710 213 767 344 730 277 b 798 -255 666 66 679 -144 b 1181 -173 921 -371 1093 -285 b 1302 110 1245 -92 1279 12 b 1351 482 1331 232 1344 358 b 1352 492 1352 486 1352 489 b 1439 493 1381 492 1410 492 b 1445 512 1454 493 1466 511 z "},"§":{"ha":468,"x_min":0,"x_max":0,"o":"m 386 562 b 270 835 435 667 337 767 b 192 963 234 871 202 910 b 235 1096 184 1009 178 1078 b 345 1012 288 1113 335 1061 b 297 882 354 965 339 910 b 322 871 281 871 312 864 b 219 1115 442 949 363 1156 b 89 941 139 1093 83 1025 b 188 756 93 863 141 811 b 83 651 143 735 103 694 b 198 378 33 547 131 446 b 276 251 234 342 267 303 b 234 117 284 204 290 136 b 124 201 180 100 134 153 b 171 331 114 248 130 303 b 147 342 187 342 157 349 b 250 98 27 264 106 57 b 380 273 329 120 385 188 b 280 457 375 350 327 402 b 386 562 325 478 365 519 z m 250 520 b 242 505 248 515 245 510 b 207 607 222 536 207 570 b 218 693 207 635 207 668 b 226 708 220 698 223 703 b 262 606 247 677 261 643 b 250 520 262 578 261 545 z "},"©":{"ha":960,"x_min":0,"x_max":0,"o":"m 867 791 b 493 1073 816 963 674 1074 b 203 935 379 1073 269 1030 b 156 914 183 932 165 924 b 75 687 106 853 86 765 b 83 485 66 620 67 551 b 286 217 111 371 179 270 b 786 317 448 136 673 174 b 867 791 889 446 914 635 z m 794 389 b 394 231 718 246 550 156 b 208 477 298 278 231 373 b 203 674 193 541 193 609 b 229 780 209 710 218 745 b 267 898 241 819 261 857 b 244 934 271 917 260 929 b 421 1044 285 989 343 1030 b 816 823 595 1075 751 986 b 794 389 871 686 863 519 z m 739 623 b 655 481 712 574 687 526 b 557 386 631 449 597 400 b 482 435 528 376 496 412 b 445 542 462 468 452 504 b 486 792 431 627 446 716 b 552 869 499 816 522 861 b 614 760 617 884 630 802 b 646 758 609 747 641 747 b 544 902 680 839 626 899 b 341 731 442 905 370 820 b 361 436 311 637 312 524 b 559 361 402 364 480 328 b 769 621 660 403 730 524 b 739 623 775 634 744 632 z "},"«":{"ha":496,"x_min":0,"x_max":0,"o":"m 113 513 b 286 637 171 554 228 596 b 258 646 302 649 268 652 b 74 516 197 602 136 559 b 71 505 72 514 67 508 b 240 350 128 454 182 400 b 293 367 255 337 307 355 b 113 513 234 417 172 463 z m 424 367 b 245 513 366 417 304 463 b 417 637 302 554 360 596 b 390 646 434 649 399 652 b 206 516 329 602 267 559 b 202 505 203 514 199 508 b 372 350 260 454 314 400 b 424 367 386 337 438 355 z "},"­":{"ha":0,"x_min":0,"x_max":0,"o":""},"®":{"ha":651,"x_min":0,"x_max":0,"o":"m 446 869 b 454 970 468 895 482 943 b 355 894 409 1014 377 960 b 356 978 354 922 354 950 b 289 971 358 1004 290 999 b 290 745 285 900 273 814 b 354 751 297 718 351 725 b 356 830 356 777 356 803 b 357 830 356 830 357 830 b 360 803 359 821 359 811 b 382 748 362 783 368 763 b 467 762 411 720 444 739 b 451 769 474 769 455 772 b 428 785 439 763 435 773 b 407 832 420 800 417 817 b 400 841 405 835 403 838 b 446 869 420 849 438 861 z m 402 895 b 363 872 391 880 378 876 b 367 886 365 877 366 882 b 424 960 372 901 410 999 b 402 895 431 943 412 908 z m 332 1132 b 163 1049 266 1129 202 1103 b 114 1027 143 1045 123 1036 b 86 773 57 968 63 845 b 220 618 108 704 153 647 b 526 690 318 576 460 603 b 332 1132 651 854 557 1143 z m 518 742 b 302 650 481 661 388 599 b 207 785 253 679 219 730 b 203 896 199 821 199 860 b 226 1020 208 936 233 980 b 203 1047 224 1034 215 1043 b 290 1103 224 1073 252 1094 b 518 985 389 1127 478 1076 b 518 742 552 910 552 817 z "},"°":{"ha":382,"x_min":0,"x_max":0,"o":"m 282 1327 b 258 1333 279 1332 269 1334 b 84 1141 145 1410 28 1253 b 255 1107 117 1076 198 1064 b 282 1327 324 1159 328 1259 z m 237 1159 b 178 1103 228 1135 208 1104 b 116 1159 149 1103 126 1135 b 228 1317 85 1232 140 1375 b 228 1314 228 1316 228 1315 b 237 1159 250 1267 254 1208 z "},"µ":{"ha":568,"x_min":0,"x_max":0,"o":"m 464 1166 b 432 907 462 1082 466 986 b 356 871 419 877 397 833 b 336 906 347 879 341 896 b 304 1031 318 946 310 989 b 286 1147 299 1070 295 1109 b 260 1190 281 1165 278 1181 b 180 1181 235 1201 206 1194 b 73 1139 142 1195 73 1179 b 71 574 72 950 71 762 b 71 292 71 480 71 386 b 74 1 71 195 66 97 b 203 15 79 -53 198 -36 b 206 298 211 108 206 204 b 206 588 206 394 206 491 b 204 1152 206 776 205 964 b 200 1165 204 1157 203 1162 b 256 1122 241 1183 249 1154 b 274 999 264 1081 267 1040 b 357 834 283 947 300 854 b 469 912 411 814 452 868 b 499 1169 500 992 497 1086 b 464 1166 499 1183 464 1180 z "},"¶":{"ha":665,"x_min":0,"x_max":0,"o":"m 594 311 b 594 607 594 410 594 509 b 592 1191 594 802 593 996 b 463 1187 591 1239 478 1233 b 403 1204 443 1194 423 1200 b 298 1210 388 1230 330 1230 b 78 1075 214 1203 108 1161 b 195 916 46 986 113 927 b 275 913 221 913 248 912 b 274 593 274 807 274 700 b 274 305 274 497 274 401 b 277 1 274 204 269 102 b 405 15 282 -53 401 -37 b 409 311 413 113 409 213 b 409 607 409 410 409 509 b 408 931 409 715 408 823 b 460 942 425 934 443 938 b 459 593 459 825 459 709 b 459 305 459 497 459 401 b 462 1 459 204 454 102 b 590 15 467 -53 586 -37 b 594 311 598 113 594 213 z m 276 1177 b 275 937 276 1097 275 1017 b 109 1062 169 932 82 957 b 277 1186 127 1134 205 1174 b 276 1177 277 1183 276 1180 z m 460 964 b 408 953 444 960 426 956 b 407 1179 407 1028 407 1104 b 461 1161 425 1175 443 1169 b 460 964 461 1095 460 1029 z "},"·":{"ha":192,"x_min":0,"x_max":0,"o":"m 122 537 b 118 542 121 539 120 541 b 113 544 116 542 115 543 b 104 545 110 545 107 545 b 94 544 101 545 97 545 b 87 543 91 544 89 543 b 78 539 84 542 81 540 b 72 534 76 537 74 536 b 70 530 71 533 71 531 b 70 525 69 528 69 526 b 74 520 71 523 72 521 b 79 518 76 520 77 519 b 86 517 81 518 84 517 b 93 517 89 517 91 517 b 102 518 96 517 99 517 b 110 521 105 519 107 519 b 115 524 111 522 113 523 b 120 528 117 525 119 527 b 122 532 121 530 121 531 b 122 537 123 534 123 536 z "},"»":{"ha":494,"x_min":0,"x_max":0,"o":"m 422 519 b 238 649 360 562 299 605 b 208 634 228 655 195 644 b 382 509 266 592 324 551 b 207 365 324 460 264 414 b 250 352 183 344 236 340 b 421 507 308 402 363 456 b 422 519 425 511 427 515 z m 290 519 b 106 649 229 562 168 605 b 77 634 97 655 63 644 b 251 509 135 592 193 551 b 76 365 193 460 133 414 b 118 352 52 344 105 340 b 289 507 177 402 232 456 b 290 519 294 511 296 515 z "},"¿":{"ha":669,"x_min":0,"x_max":0,"o":"m 279 1181 b 290 1174 283 1178 287 1176 b 321 1166 300 1169 310 1167 b 348 1168 330 1166 339 1166 b 372 1176 356 1170 364 1172 b 389 1188 379 1179 384 1183 b 400 1203 394 1192 398 1197 b 401 1214 400 1207 401 1210 b 390 1233 400 1222 396 1228 b 379 1240 386 1235 382 1238 b 348 1247 369 1244 359 1247 b 322 1245 339 1248 330 1247 b 297 1238 313 1244 305 1242 b 280 1226 290 1235 285 1231 b 269 1211 275 1222 271 1217 b 268 1200 269 1207 268 1203 b 279 1181 269 1192 273 1186 z m 575 367 b 408 445 539 423 471 445 b 401 424 390 444 377 423 b 566 280 490 425 559 371 b 474 70 572 199 533 124 b 227 12 411 12 310 -31 b 170 192 163 46 159 128 b 258 406 183 268 224 337 b 350 630 295 478 326 553 b 406 865 375 707 394 785 b 420 981 412 903 418 943 b 399 1095 422 1024 416 1056 b 277 1072 382 1134 273 1120 b 204 610 292 919 252 754 b 114 386 179 533 146 460 b 72 178 86 322 62 249 b 307 -24 88 64 191 -28 b 582 174 424 -20 538 65 b 575 367 606 233 610 311 z "},"À":{"ha":1274,"x_min":0,"x_max":0,"o":"m 1462 -206 b 1380 -270 1441 -233 1415 -265 b 1292 -222 1342 -275 1314 -249 b 1202 -42 1249 -170 1226 -103 b 1097 415 1144 104 1113 259 b 1083 616 1090 482 1086 549 b 1126 636 1098 622 1112 629 b 1106 652 1146 647 1120 659 b 1083 640 1099 648 1091 644 b 1078 900 1080 727 1079 813 b 1074 1147 1077 982 1076 1064 b 1068 1278 1073 1190 1070 1234 b 1046 1408 1065 1324 1057 1363 b 978 1406 1040 1433 984 1430 b 976 1398 978 1403 977 1401 b 759 618 900 1140 836 877 b 622 663 714 633 670 652 b 309 479 481 696 372 594 b 343 477 302 467 337 465 b 517 641 382 548 437 618 b 751 593 600 665 674 615 b 614 200 711 460 667 329 b 479 -65 577 107 535 17 b 255 -270 422 -147 349 -231 b 21 -140 143 -318 47 -253 b 54 127 1 -51 17 45 b 311 359 99 229 192 346 b 492 140 432 372 548 261 b 524 138 486 127 518 126 b 437 356 563 224 521 317 b 175 323 350 398 251 379 b 18 -218 24 212 -85 -43 b 237 -298 64 -296 153 -322 b 486 -100 341 -269 423 -184 b 773 561 630 90 703 336 b 780 586 775 569 778 578 b 945 579 834 574 890 572 b 948 507 946 555 947 531 b 1014 85 957 364 977 223 b 1185 -267 1047 -34 1088 -183 b 1374 -322 1234 -310 1310 -334 b 1502 -216 1430 -311 1475 -263 b 1462 -206 1514 -195 1472 -193 z m 950 1183 b 942 951 945 1106 943 1028 b 944 600 941 834 940 717 b 861 597 917 596 889 595 b 787 610 835 599 811 603 b 951 1200 846 805 897 1003 b 950 1183 950 1194 950 1189 z m 1017 1478 b 1040 1472 1022 1472 1032 1470 b 1047 1485 1045 1473 1053 1479 b 1006 1531 1034 1501 1020 1516 b 985 1536 1001 1536 993 1538 b 979 1524 980 1535 974 1530 b 1017 1478 991 1509 1004 1493 z "},"Á":{"ha":1274,"x_min":0,"x_max":0,"o":"m 1462 -206 b 1380 -270 1441 -233 1415 -265 b 1292 -222 1342 -275 1314 -249 b 1202 -42 1250 -170 1226 -103 b 1097 415 1144 104 1113 259 b 1083 616 1090 482 1086 549 b 1126 636 1098 622 1112 629 b 1106 652 1146 647 1120 659 b 1083 640 1099 648 1091 644 b 1078 900 1080 727 1079 813 b 1074 1147 1077 982 1076 1064 b 1068 1278 1073 1190 1070 1234 b 1046 1408 1065 1324 1057 1363 b 978 1406 1040 1433 984 1430 b 976 1398 978 1403 977 1401 b 759 618 900 1140 836 877 b 622 663 714 633 670 652 b 309 479 481 696 372 594 b 343 477 302 467 337 465 b 517 641 382 548 437 618 b 751 593 600 665 674 615 b 615 200 711 460 667 329 b 479 -65 577 107 535 17 b 255 -270 422 -147 349 -231 b 21 -140 143 -318 47 -253 b 54 127 1 -51 17 45 b 311 359 99 229 192 346 b 492 140 432 372 548 261 b 524 138 486 127 518 126 b 437 356 563 224 521 317 b 175 323 350 398 251 379 b 18 -218 24 212 -85 -43 b 237 -298 64 -296 153 -322 b 486 -100 341 -269 423 -184 b 773 561 630 90 703 336 b 780 586 775 569 778 578 b 945 579 834 574 890 572 b 948 507 946 555 947 531 b 1014 85 957 364 977 223 b 1185 -267 1047 -34 1088 -183 b 1374 -322 1234 -310 1310 -334 b 1502 -216 1430 -311 1475 -263 b 1462 -206 1514 -195 1472 -193 z m 950 1183 b 942 951 945 1106 943 1028 b 944 600 941 834 940 717 b 861 597 917 596 889 595 b 787 610 835 599 811 603 b 951 1200 846 805 897 1003 b 950 1183 950 1194 950 1189 z m 989 1467 b 1012 1473 996 1465 1007 1467 b 1050 1520 1025 1489 1038 1504 b 1043 1532 1054 1525 1048 1530 b 1022 1526 1036 1534 1027 1531 b 981 1481 1008 1511 995 1496 b 989 1467 976 1475 983 1469 z "},"Â":{"ha":1274,"x_min":0,"x_max":0,"o":"m 1462 -206 b 1380 -270 1441 -233 1415 -265 b 1292 -222 1342 -275 1314 -249 b 1202 -42 1250 -170 1226 -103 b 1097 415 1144 104 1113 259 b 1083 616 1090 482 1086 549 b 1126 636 1098 622 1112 629 b 1106 652 1146 647 1120 659 b 1083 640 1099 648 1091 644 b 1078 900 1080 727 1079 813 b 1074 1147 1077 982 1076 1064 b 1068 1278 1073 1190 1070 1234 b 1046 1408 1065 1324 1057 1363 b 978 1406 1040 1433 984 1430 b 976 1398 978 1403 977 1401 b 759 618 900 1140 836 877 b 622 663 714 633 670 652 b 309 479 481 696 372 594 b 343 477 302 467 337 465 b 517 641 382 548 437 618 b 751 593 600 665 674 615 b 615 200 711 460 667 329 b 479 -65 577 107 536 17 b 255 -270 422 -147 349 -231 b 21 -140 143 -318 47 -253 b 54 127 1 -51 17 45 b 311 359 99 229 192 346 b 492 140 432 372 548 261 b 524 138 486 127 518 126 b 437 356 563 224 521 317 b 175 323 350 398 251 379 b 18 -218 24 212 -85 -43 b 237 -298 64 -296 153 -322 b 486 -100 341 -269 423 -184 b 773 561 630 90 703 336 b 780 586 775 569 778 578 b 945 579 834 574 890 572 b 948 507 946 555 947 531 b 1014 85 957 364 977 223 b 1185 -267 1047 -34 1088 -183 b 1374 -322 1234 -310 1310 -334 b 1502 -216 1430 -311 1475 -263 b 1462 -206 1514 -195 1472 -193 z m 950 1183 b 942 951 945 1106 943 1028 b 944 600 941 834 940 717 b 861 597 917 596 889 595 b 787 610 835 599 811 603 b 951 1200 846 805 897 1003 b 950 1183 950 1194 950 1189 z m 970 1472 b 993 1478 978 1470 988 1472 b 1018 1507 1002 1488 1010 1497 b 1042 1478 1026 1497 1034 1488 b 1065 1472 1048 1472 1058 1470 b 1073 1485 1071 1473 1078 1479 b 1033 1530 1060 1500 1046 1515 b 1025 1536 1032 1533 1028 1535 b 1018 1537 1022 1537 1020 1537 b 1011 1536 1016 1537 1013 1537 b 1003 1530 1008 1535 1004 1533 b 963 1485 989 1515 976 1500 b 970 1472 957 1479 965 1473 z "},"Ã":{"ha":1274,"x_min":0,"x_max":0,"o":"m 1462 -206 b 1380 -270 1441 -233 1415 -265 b 1292 -222 1342 -275 1314 -249 b 1202 -42 1249 -170 1226 -103 b 1097 415 1144 104 1113 259 b 1083 616 1090 482 1086 549 b 1126 636 1098 622 1112 629 b 1106 652 1146 647 1120 659 b 1083 640 1099 648 1091 644 b 1078 900 1080 727 1079 813 b 1074 1147 1077 982 1076 1064 b 1068 1278 1073 1190 1070 1234 b 1046 1408 1065 1324 1057 1363 b 978 1406 1040 1433 984 1430 b 976 1398 978 1403 977 1401 b 759 618 900 1140 836 877 b 622 663 714 633 670 652 b 309 479 481 696 372 594 b 343 477 302 467 337 465 b 517 641 382 548 437 618 b 751 593 600 665 674 615 b 614 200 711 460 667 329 b 479 -65 577 107 535 17 b 255 -270 422 -147 349 -231 b 21 -140 143 -318 47 -253 b 54 127 1 -51 17 45 b 311 359 99 229 192 346 b 492 140 432 372 548 261 b 524 138 486 127 518 126 b 437 356 563 224 521 317 b 175 323 350 398 251 379 b 18 -218 24 212 -85 -43 b 237 -298 64 -296 153 -322 b 486 -100 341 -269 423 -184 b 773 561 630 90 703 336 b 780 586 775 569 778 578 b 945 579 834 574 890 572 b 948 507 946 555 947 531 b 1014 85 957 364 977 223 b 1185 -267 1047 -34 1088 -183 b 1374 -322 1234 -310 1310 -334 b 1502 -216 1430 -311 1475 -263 b 1462 -206 1514 -195 1472 -193 z m 950 1183 b 942 951 945 1106 943 1028 b 944 600 941 834 940 717 b 861 597 917 596 889 595 b 787 610 835 599 811 603 b 951 1200 846 805 897 1003 b 950 1183 950 1194 950 1189 z m 999 1476 b 1008 1499 1000 1483 1001 1495 b 1031 1498 1014 1502 1025 1498 b 1075 1519 1048 1498 1070 1500 b 1045 1521 1079 1533 1049 1532 b 1044 1518 1045 1520 1044 1519 b 1035 1518 1041 1517 1037 1518 b 1007 1519 1025 1519 1016 1520 b 965 1478 983 1516 968 1502 b 999 1476 963 1462 997 1463 z "},"Ä":{"ha":1274,"x_min":0,"x_max":0,"o":"m 1462 -206 b 1380 -270 1441 -233 1415 -265 b 1292 -222 1342 -275 1314 -249 b 1202 -42 1250 -170 1226 -103 b 1097 415 1144 104 1113 259 b 1083 616 1090 482 1086 549 b 1126 636 1098 622 1112 629 b 1106 652 1146 647 1120 659 b 1083 640 1099 648 1091 644 b 1078 900 1080 727 1079 813 b 1074 1147 1077 982 1076 1064 b 1068 1278 1073 1190 1070 1234 b 1046 1408 1065 1324 1057 1363 b 978 1406 1040 1433 984 1430 b 976 1398 978 1403 977 1401 b 759 618 900 1140 836 877 b 622 663 714 633 670 652 b 309 479 481 696 372 594 b 343 477 302 467 337 465 b 517 641 382 548 437 618 b 751 593 600 665 674 615 b 615 200 711 460 667 329 b 479 -65 577 107 536 17 b 255 -270 422 -147 349 -231 b 21 -140 143 -318 47 -253 b 54 127 1 -51 17 45 b 311 359 99 229 192 346 b 492 140 432 372 548 261 b 524 138 486 127 518 126 b 437 356 563 224 521 317 b 175 323 350 398 251 379 b 18 -218 24 212 -85 -43 b 237 -298 64 -296 153 -322 b 486 -100 341 -269 423 -184 b 773 561 630 90 703 336 b 780 586 775 569 778 578 b 945 579 834 574 890 572 b 948 507 946 555 947 531 b 1014 85 957 364 977 223 b 1185 -267 1047 -34 1088 -183 b 1374 -322 1234 -310 1310 -334 b 1502 -216 1430 -311 1475 -263 b 1462 -206 1514 -195 1472 -193 z m 950 1183 b 942 951 945 1106 943 1028 b 944 600 941 834 940 717 b 861 597 917 596 889 595 b 787 610 835 599 811 603 b 951 1200 846 805 897 1003 b 950 1183 950 1194 950 1189 z m 959 1478 b 971 1475 963 1476 967 1475 b 981 1476 975 1475 978 1475 b 991 1479 985 1476 988 1477 b 997 1484 993 1480 996 1481 b 1001 1489 999 1485 1001 1487 b 1002 1493 1002 1491 1002 1492 b 998 1501 1001 1496 1000 1499 b 993 1503 996 1502 995 1503 b 982 1506 990 1505 986 1506 b 971 1505 978 1506 975 1506 b 962 1503 968 1505 965 1504 b 955 1498 959 1501 957 1500 b 951 1492 953 1496 952 1494 b 951 1488 951 1491 951 1489 b 955 1481 951 1485 953 1483 b 959 1478 957 1480 958 1479 z m 1024 1478 b 1035 1475 1027 1476 1031 1475 b 1046 1476 1039 1475 1042 1475 b 1055 1479 1049 1476 1052 1477 b 1062 1484 1058 1480 1060 1481 b 1066 1489 1064 1485 1065 1487 b 1066 1493 1066 1491 1066 1492 b 1062 1501 1066 1496 1064 1499 b 1058 1503 1060 1502 1059 1503 b 1046 1506 1054 1505 1050 1506 b 1036 1505 1042 1506 1039 1506 b 1026 1503 1032 1505 1029 1504 b 1020 1498 1024 1501 1021 1500 b 1016 1492 1018 1496 1016 1494 b 1015 1488 1015 1491 1015 1489 b 1019 1481 1016 1485 1017 1483 b 1024 1478 1021 1480 1022 1479 z "},"Å":{"ha":1274,"x_min":0,"x_max":0,"o":"m 1462 -206 b 1380 -270 1441 -233 1415 -265 b 1292 -222 1342 -275 1314 -249 b 1202 -42 1250 -170 1226 -103 b 1097 415 1144 104 1113 259 b 1083 616 1090 482 1086 549 b 1126 636 1098 622 1112 629 b 1106 652 1146 647 1120 659 b 1083 640 1099 648 1091 644 b 1078 900 1080 727 1079 813 b 1074 1147 1077 982 1076 1064 b 1068 1278 1073 1190 1070 1234 b 1046 1408 1065 1324 1057 1363 b 978 1406 1040 1433 984 1430 b 976 1398 978 1403 977 1401 b 759 618 900 1140 836 877 b 622 663 714 633 670 652 b 309 479 481 696 372 594 b 343 477 302 467 337 465 b 517 641 382 548 437 618 b 751 593 600 665 674 615 b 615 200 711 460 667 329 b 479 -65 577 107 536 17 b 255 -270 422 -147 349 -231 b 21 -140 143 -318 47 -253 b 54 127 1 -51 17 45 b 311 359 99 229 192 346 b 492 140 432 372 548 261 b 524 138 486 127 518 126 b 437 356 563 224 521 317 b 175 323 350 398 251 379 b 18 -218 24 212 -85 -43 b 237 -298 64 -296 153 -322 b 486 -100 341 -269 423 -184 b 773 561 630 90 703 336 b 780 586 775 569 778 578 b 945 579 834 574 890 572 b 948 507 946 555 947 531 b 1014 85 957 364 977 223 b 1185 -267 1047 -34 1088 -183 b 1374 -322 1234 -310 1310 -334 b 1502 -216 1430 -311 1475 -263 b 1462 -206 1514 -195 1472 -193 z m 950 1183 b 942 951 945 1106 943 1028 b 944 600 941 834 940 717 b 861 597 917 596 889 595 b 787 610 835 599 811 603 b 951 1200 846 805 897 1003 b 950 1183 950 1194 950 1189 z m 985 1452 b 1062 1469 1011 1441 1044 1447 b 1080 1514 1074 1482 1080 1498 b 1063 1563 1081 1532 1074 1549 b 1055 1567 1062 1566 1059 1567 b 987 1569 1034 1579 1009 1581 b 950 1514 966 1559 952 1537 b 985 1452 947 1489 962 1463 z m 1050 1535 b 1050 1535 1050 1535 1049 1536 z m 985 1533 b 985 1533 986 1535 986 1534 b 985 1533 985 1533 985 1533 z m 979 1523 b 979 1523 980 1525 979 1524 b 979 1523 979 1523 979 1523 z m 976 1513 b 976 1513 976 1513 976 1513 b 978 1519 977 1515 977 1517 b 979 1522 978 1520 978 1521 b 979 1523 979 1522 979 1522 b 982 1528 980 1524 981 1527 b 985 1533 983 1530 984 1532 b 986 1534 985 1534 986 1534 b 988 1537 986 1535 987 1536 b 992 1541 989 1538 991 1539 b 993 1542 993 1541 993 1541 b 993 1541 993 1541 993 1541 b 994 1542 993 1541 993 1542 b 994 1542 994 1543 994 1542 b 996 1543 995 1543 996 1543 b 1002 1547 998 1545 1000 1546 b 1003 1547 1003 1547 1003 1547 b 1007 1549 1004 1548 1006 1548 b 1014 1550 1009 1549 1011 1550 b 1015 1550 1014 1550 1015 1550 b 1019 1551 1016 1551 1018 1551 b 1023 1551 1020 1551 1021 1551 b 1025 1550 1023 1550 1024 1550 b 1024 1551 1026 1550 1025 1550 b 1032 1549 1026 1551 1030 1549 b 1036 1547 1033 1548 1035 1548 b 1038 1546 1033 1548 1037 1547 b 1046 1541 1041 1545 1043 1543 b 1048 1538 1047 1540 1048 1539 b 1050 1535 1049 1537 1049 1536 b 1050 1534 1050 1534 1050 1534 b 1051 1532 1050 1534 1051 1533 b 1053 1524 1052 1529 1052 1527 b 1053 1523 1053 1523 1053 1523 b 1053 1523 1053 1523 1053 1523 b 1053 1523 1053 1523 1053 1523 b 1053 1522 1053 1523 1053 1522 b 1053 1518 1053 1521 1053 1519 b 1053 1513 1053 1516 1053 1515 b 1053 1512 1053 1513 1053 1512 b 1053 1510 1053 1511 1053 1511 b 1053 1510 1053 1510 1053 1510 b 1053 1508 1053 1509 1053 1509 b 1052 1504 1052 1506 1052 1505 b 1050 1499 1051 1502 1051 1501 b 1050 1498 1050 1499 1050 1499 b 1050 1498 1050 1498 1050 1498 b 1046 1491 1048 1496 1047 1493 b 1044 1489 1045 1490 1044 1489 b 1042 1487 1044 1488 1043 1487 b 1040 1484 1042 1486 1041 1485 b 1038 1483 1039 1484 1039 1483 b 1037 1482 1038 1482 1037 1482 b 1035 1480 1036 1481 1036 1481 b 1032 1479 1034 1480 1033 1479 b 1029 1477 1031 1478 1030 1477 b 1029 1477 1029 1477 1029 1477 b 1027 1476 1028 1477 1027 1476 b 1020 1474 1024 1475 1022 1475 b 1017 1474 1019 1474 1017 1474 b 1014 1474 1016 1474 1015 1474 b 1007 1474 1012 1473 1009 1474 b 1005 1474 1008 1474 1006 1474 b 1001 1475 1004 1474 1002 1475 b 998 1476 1000 1475 999 1476 b 998 1476 998 1476 998 1476 b 996 1477 997 1477 996 1477 b 993 1479 995 1478 994 1478 b 991 1480 992 1479 992 1479 b 990 1481 991 1480 991 1480 b 989 1481 990 1481 990 1481 b 988 1482 989 1481 989 1482 b 985 1485 987 1483 986 1484 b 983 1487 985 1486 984 1487 b 982 1489 983 1488 983 1489 b 979 1495 981 1491 980 1493 b 979 1496 979 1495 979 1495 b 979 1496 979 1496 979 1496 b 977 1500 978 1497 978 1498 b 977 1503 977 1501 977 1502 b 977 1503 977 1503 977 1503 b 976 1510 977 1505 976 1508 b 976 1513 976 1511 976 1512 z "},"Æ":{"ha":2033,"x_min":0,"x_max":0,"o":"m 2030 278 b 1450 -236 1957 44 1767 -366 b 1320 222 1277 -165 1235 68 b 1583 377 1377 325 1473 372 b 1591 378 1586 377 1589 377 b 1614 378 1599 378 1607 378 b 1680 428 1639 379 1683 397 b 1605 463 1678 461 1629 463 b 1208 682 1438 458 1281 525 b 1206 1104 1148 812 1150 973 b 1380 1322 1242 1190 1303 1267 b 1679 1408 1468 1384 1572 1407 b 2020 1090 1859 1410 2014 1271 b 1936 885 2022 1014 1996 934 b 1648 916 1853 818 1711 827 b 1615 906 1640 927 1606 919 b 2037 972 1722 756 1972 811 b 1865 1395 2100 1132 2016 1321 b 1500 1435 1756 1449 1617 1460 b 1189 1258 1381 1409 1273 1346 b 1075 1087 1141 1209 1103 1150 b 1074 1147 1075 1107 1075 1127 b 1068 1278 1073 1190 1070 1234 b 1046 1408 1065 1324 1057 1363 b 978 1406 1040 1433 984 1430 b 976 1398 978 1403 977 1401 b 759 618 900 1140 836 877 b 622 663 714 633 670 652 b 309 479 481 696 372 594 b 343 477 302 467 337 465 b 517 641 382 548 437 618 b 751 593 600 665 674 615 b 615 200 711 460 667 329 b 479 -65 577 107 535 17 b 255 -270 422 -147 349 -231 b 21 -140 143 -318 47 -253 b 54 127 1 -51 17 45 b 311 359 99 229 192 346 b 492 140 432 372 548 261 b 524 138 486 127 518 126 b 437 356 563 224 521 317 b 175 323 350 398 251 379 b 18 -218 24 213 -85 -43 b 237 -298 64 -296 153 -322 b 486 -100 341 -269 423 -184 b 773 561 630 90 703 336 b 780 586 775 569 778 578 b 945 579 834 574 890 572 b 948 507 946 555 947 531 b 1014 85 957 365 977 223 b 1185 -267 1047 -34 1088 -183 b 1374 -322 1234 -310 1310 -334 b 1447 -284 1401 -317 1426 -303 b 1749 -225 1549 -303 1659 -284 b 2062 276 1917 -114 2004 91 b 2030 278 2067 290 2034 290 z m 950 1183 b 942 951 945 1106 943 1028 b 944 600 941 834 940 717 b 861 597 917 596 889 595 b 787 610 835 599 811 603 b 951 1200 846 805 897 1003 b 950 1183 950 1194 950 1189 z m 1218 287 b 1150 116 1182 237 1159 177 b 1097 415 1124 214 1107 314 b 1083 616 1090 482 1086 549 b 1089 619 1085 617 1087 618 b 1221 472 1121 561 1165 510 b 1361 407 1265 443 1312 422 b 1218 287 1305 378 1255 339 z m 1380 -270 b 1292 -222 1342 -275 1314 -249 b 1290 -220 1291 -221 1291 -221 b 1386 -269 1319 -241 1352 -257 b 1380 -270 1384 -269 1382 -270 z "},"Ç":{"ha":907,"x_min":0,"x_max":0,"o":"m 918 278 b 725 -129 875 135 820 -12 b 441 -246 656 -215 555 -282 b 234 -33 340 -213 279 -123 b 128 351 174 86 142 219 b 300 1184 96 632 141 945 b 568 1380 363 1278 452 1364 b 819 1265 671 1395 771 1361 b 816 977 865 1176 858 1066 b 721 865 795 933 763 891 b 613 838 690 846 650 831 b 522 915 571 846 543 881 b 489 906 515 927 481 919 b 639 815 523 851 570 811 b 782 878 692 819 743 843 b 889 1144 856 945 889 1046 b 759 1392 889 1248 845 1333 b 378 1377 651 1466 486 1437 b -22 524 83 1216 -18 838 b 291 -245 -25 259 36 -103 b 288 -246 290 -246 289 -246 b 263 -257 280 -249 271 -252 b 243 -313 243 -270 236 -290 b 275 -300 248 -328 279 -312 b 273 -275 272 -293 268 -282 b 294 -266 277 -270 289 -268 b 311 -256 300 -263 306 -260 b 327 -264 317 -259 322 -261 b 951 276 675 -418 873 16 b 918 278 955 291 922 291 z "},"È":{"ha":983,"x_min":0,"x_max":0,"o":"m 980 278 b 400 -236 907 44 717 -366 b 270 222 227 -165 185 68 b 534 377 327 325 424 372 b 542 378 536 377 539 377 b 565 378 549 378 557 378 b 631 428 590 379 633 397 b 556 463 628 461 579 463 b 158 682 388 458 231 525 b 156 1104 98 812 101 973 b 330 1322 192 1190 254 1267 b 629 1408 418 1384 522 1407 b 970 1090 809 1410 965 1271 b 886 885 972 1014 947 934 b 598 916 803 818 662 827 b 565 906 590 927 556 919 b 987 972 672 756 922 811 b 816 1395 1050 1132 966 1321 b 450 1435 706 1449 568 1460 b 139 1258 331 1409 223 1346 b -2 720 6 1119 -57 907 b 172 472 27 620 85 531 b 311 407 215 443 262 422 b 168 287 255 378 206 339 b 109 -31 103 197 80 77 b 699 -225 176 -284 493 -361 b 1013 276 867 -114 954 91 b 980 278 1017 290 984 290 z m 586 1467 b 609 1461 591 1461 601 1459 b 617 1474 615 1462 622 1468 b 575 1520 603 1490 590 1505 b 555 1525 570 1525 562 1527 b 548 1513 549 1524 544 1519 b 586 1467 560 1498 573 1482 z "},"É":{"ha":982,"x_min":0,"x_max":0,"o":"m 980 278 b 400 -236 907 44 717 -366 b 270 222 227 -165 185 68 b 534 377 327 325 424 372 b 542 378 536 377 539 377 b 565 378 549 378 557 378 b 631 428 590 379 633 397 b 556 463 628 461 579 463 b 158 682 388 458 231 525 b 156 1104 98 812 101 973 b 330 1322 192 1190 254 1267 b 629 1408 418 1384 522 1407 b 970 1090 809 1410 965 1271 b 886 885 972 1014 947 934 b 598 916 803 818 662 827 b 565 906 590 927 556 919 b 987 972 672 756 922 811 b 816 1395 1050 1132 966 1321 b 450 1435 706 1449 568 1460 b 139 1258 331 1409 223 1346 b -2 720 6 1119 -57 907 b 172 472 27 620 85 531 b 311 407 215 443 262 422 b 168 287 255 378 206 339 b 109 -31 103 197 80 77 b 699 -225 176 -284 493 -361 b 1013 276 867 -114 954 91 b 980 278 1017 290 984 290 z m 547 1469 b 570 1475 554 1467 564 1469 b 608 1522 583 1491 595 1506 b 601 1534 612 1527 606 1532 b 580 1528 594 1536 585 1534 b 539 1483 566 1513 552 1498 b 547 1469 534 1477 541 1471 z "},"Ê":{"ha":982,"x_min":0,"x_max":0,"o":"m 980 278 b 400 -236 907 44 717 -366 b 270 222 227 -165 185 68 b 534 377 327 325 424 372 b 542 378 536 377 539 377 b 565 378 549 378 557 378 b 631 428 590 379 633 397 b 556 463 628 461 579 463 b 158 682 388 458 231 525 b 156 1104 98 812 101 973 b 330 1322 192 1190 254 1267 b 629 1408 418 1384 522 1407 b 970 1090 809 1410 965 1271 b 886 885 972 1014 947 934 b 598 916 803 818 662 827 b 565 906 590 927 556 919 b 987 972 672 756 922 811 b 816 1395 1050 1132 966 1321 b 450 1435 706 1449 568 1460 b 139 1258 331 1409 223 1346 b -2 720 6 1119 -57 907 b 172 472 27 620 85 531 b 311 407 215 443 262 422 b 168 287 255 378 206 339 b 109 -31 103 197 80 77 b 699 -225 176 -284 493 -361 b 1013 276 867 -114 954 91 b 980 278 1017 290 984 290 z m 522 1465 b 545 1472 530 1464 540 1465 b 570 1501 554 1481 562 1491 b 594 1472 578 1491 586 1481 b 617 1465 600 1465 610 1464 b 625 1479 623 1467 630 1473 b 585 1523 612 1494 598 1509 b 577 1530 584 1527 580 1529 b 570 1530 574 1531 572 1531 b 563 1530 568 1531 565 1531 b 555 1523 560 1529 556 1527 b 515 1479 541 1509 528 1494 b 522 1465 509 1473 517 1467 z "},"Ë":{"ha":982,"x_min":0,"x_max":0,"o":"m 980 278 b 400 -236 907 44 717 -366 b 270 222 227 -165 185 68 b 534 377 327 325 424 372 b 542 378 536 377 539 377 b 565 378 549 378 557 378 b 631 428 590 379 633 397 b 556 463 628 461 579 463 b 158 682 388 458 231 525 b 156 1104 98 812 101 973 b 330 1322 192 1190 254 1267 b 629 1408 418 1384 522 1407 b 970 1090 809 1410 965 1271 b 886 885 972 1014 947 934 b 598 916 803 818 662 827 b 565 906 590 927 556 919 b 987 972 672 756 922 811 b 816 1395 1050 1132 966 1321 b 450 1435 706 1449 568 1460 b 139 1258 331 1409 223 1346 b -2 720 6 1119 -57 907 b 172 472 27 620 85 531 b 311 407 215 443 262 422 b 168 287 255 378 206 339 b 109 -31 103 197 80 77 b 699 -225 176 -284 493 -361 b 1013 276 867 -114 954 91 b 980 278 1017 290 984 290 z m 538 1472 b 550 1469 542 1470 546 1469 b 560 1470 554 1469 557 1469 b 570 1472 564 1470 567 1471 b 576 1477 572 1474 575 1475 b 580 1483 578 1479 580 1481 b 581 1487 581 1484 581 1486 b 577 1494 580 1490 579 1493 b 572 1497 575 1495 574 1496 b 561 1500 569 1499 565 1500 b 550 1499 557 1500 554 1500 b 541 1496 547 1499 544 1498 b 534 1492 538 1495 536 1494 b 530 1486 532 1490 531 1488 b 530 1482 530 1484 530 1483 b 534 1474 530 1479 532 1476 b 538 1472 536 1473 537 1472 z m 603 1472 b 614 1469 606 1470 610 1469 b 625 1470 618 1469 621 1469 b 634 1472 628 1470 631 1471 b 641 1477 637 1474 639 1475 b 645 1483 643 1479 644 1481 b 645 1487 645 1484 645 1486 b 641 1494 645 1490 643 1493 b 637 1497 639 1495 638 1496 b 625 1500 633 1499 629 1500 b 615 1499 621 1500 618 1500 b 605 1496 611 1499 608 1498 b 599 1492 603 1495 600 1494 b 595 1486 597 1490 595 1488 b 594 1482 594 1484 594 1483 b 598 1474 595 1479 596 1476 b 603 1472 600 1473 601 1472 z "},"Ì":{"ha":739,"x_min":0,"x_max":0,"o":"m 788 -239 b 606 -239 727 -236 666 -236 b 608 174 610 -102 605 36 b 613 603 610 317 614 460 b 520 1286 613 828 617 1078 b 136 1414 451 1433 279 1498 b -10 973 -9 1329 -44 1125 b 120 779 7 896 47 816 b 253 767 160 759 210 753 b 370 912 317 789 349 852 b 336 914 375 926 341 927 b 198 781 314 851 276 776 b 111 819 166 783 136 798 b 21 1005 57 864 31 937 b 176 1404 -1 1144 33 1340 b 354 1381 234 1430 308 1428 b 430 1203 398 1335 416 1263 b 473 577 475 1000 473 783 b 469 160 473 438 471 299 b 478 -251 468 24 463 -116 b 305 -282 420 -259 362 -269 b 311 -309 275 -289 282 -316 b 489 -278 370 -295 430 -285 b 594 -269 514 -298 570 -293 b 769 -268 652 -265 710 -265 b 788 -239 789 -269 820 -240 z m 289 1480 b 312 1474 294 1474 304 1472 b 319 1487 317 1475 325 1481 b 278 1533 306 1503 292 1518 b 257 1538 273 1538 264 1540 b 251 1526 252 1537 246 1532 b 289 1480 263 1511 276 1495 z "},"Í":{"ha":739,"x_min":0,"x_max":0,"o":"m 788 -239 b 606 -239 727 -236 666 -236 b 608 174 610 -102 605 36 b 613 603 610 317 614 460 b 520 1286 613 828 617 1078 b 136 1414 451 1433 279 1498 b -10 973 -9 1329 -44 1125 b 120 779 7 896 47 816 b 253 767 160 759 210 753 b 370 912 317 789 349 852 b 336 914 375 926 341 927 b 198 781 314 851 276 776 b 111 819 166 783 136 798 b 21 1005 57 864 31 937 b 176 1404 -1 1144 33 1340 b 354 1381 234 1430 308 1428 b 430 1203 398 1335 416 1263 b 473 577 475 1000 473 783 b 469 160 473 438 471 299 b 478 -251 468 24 463 -116 b 305 -282 420 -259 362 -269 b 311 -309 275 -289 282 -316 b 489 -278 370 -295 430 -285 b 594 -269 514 -298 570 -293 b 769 -268 652 -265 710 -265 b 788 -239 789 -269 820 -240 z m 258 1469 b 281 1475 265 1467 275 1469 b 319 1522 294 1491 306 1506 b 312 1534 323 1527 317 1532 b 291 1528 305 1536 296 1534 b 250 1483 277 1513 264 1498 b 258 1469 245 1477 252 1471 z "},"Î":{"ha":739,"x_min":0,"x_max":0,"o":"m 788 -239 b 606 -239 727 -236 666 -236 b 608 174 610 -102 605 36 b 613 603 610 317 614 460 b 520 1286 613 828 617 1078 b 136 1414 451 1433 279 1498 b -10 973 -9 1329 -44 1125 b 120 779 7 896 47 816 b 253 767 161 759 210 753 b 370 912 317 789 349 852 b 336 914 375 926 341 927 b 198 781 314 851 276 776 b 111 819 166 783 136 798 b 21 1005 57 864 31 937 b 176 1404 -1 1144 33 1340 b 354 1381 234 1430 308 1428 b 430 1203 398 1335 416 1263 b 473 577 475 1000 473 783 b 470 160 473 438 471 299 b 478 -251 468 24 463 -116 b 305 -282 420 -259 362 -269 b 311 -309 275 -289 282 -316 b 489 -278 370 -295 430 -285 b 594 -269 514 -298 570 -293 b 769 -268 652 -265 710 -265 b 788 -239 789 -269 820 -240 z m 226 1474 b 249 1480 233 1472 243 1474 b 273 1509 257 1490 265 1500 b 297 1480 281 1500 289 1490 b 321 1474 303 1474 313 1472 b 328 1487 326 1475 334 1481 b 288 1532 315 1502 302 1517 b 280 1538 287 1535 283 1537 b 273 1539 278 1539 275 1539 b 266 1538 271 1539 268 1539 b 258 1532 263 1537 259 1535 b 218 1487 244 1517 231 1502 b 226 1474 213 1481 220 1475 z "},"Ï":{"ha":739,"x_min":0,"x_max":0,"o":"m 788 -239 b 606 -239 727 -236 666 -236 b 608 174 610 -102 605 36 b 613 603 610 317 614 460 b 520 1286 613 828 617 1078 b 136 1414 451 1433 279 1498 b -10 973 -9 1329 -44 1125 b 120 779 7 896 47 816 b 253 767 160 759 210 753 b 370 912 317 789 349 852 b 336 914 375 926 341 927 b 198 781 314 851 276 776 b 111 819 166 783 136 798 b 21 1005 57 864 31 937 b 176 1404 -1 1144 33 1340 b 354 1381 234 1430 308 1428 b 430 1203 398 1335 416 1263 b 473 577 475 1000 473 783 b 469 160 473 438 471 299 b 478 -251 468 24 463 -116 b 305 -282 420 -259 362 -269 b 311 -309 275 -289 282 -316 b 489 -278 370 -295 430 -285 b 594 -269 514 -298 570 -293 b 769 -268 652 -265 710 -265 b 788 -239 789 -269 820 -240 z m 237 1480 b 249 1477 241 1478 245 1477 b 259 1478 252 1477 256 1477 b 268 1481 262 1478 265 1479 b 275 1486 271 1482 273 1483 b 279 1491 277 1487 278 1489 b 280 1495 279 1493 279 1494 b 275 1503 279 1498 278 1501 b 271 1505 274 1504 272 1505 b 259 1508 267 1507 263 1508 b 249 1507 256 1509 252 1508 b 240 1505 246 1507 243 1506 b 233 1500 237 1504 235 1502 b 229 1494 231 1498 230 1497 b 228 1490 229 1493 229 1491 b 233 1483 229 1487 230 1485 b 237 1480 234 1482 236 1481 z m 301 1480 b 313 1477 305 1478 309 1477 b 323 1478 317 1477 320 1477 b 333 1481 327 1478 330 1479 b 339 1486 335 1482 337 1483 b 343 1491 341 1487 343 1489 b 344 1495 344 1493 344 1494 b 340 1503 343 1498 342 1501 b 335 1505 338 1504 337 1505 b 324 1508 332 1507 328 1508 b 313 1507 320 1509 317 1508 b 304 1505 310 1507 307 1506 b 297 1500 301 1504 299 1502 b 293 1494 295 1498 294 1497 b 293 1490 293 1493 293 1491 b 297 1483 293 1487 295 1485 b 301 1480 299 1482 300 1481 z "},"Ñ":{"ha":1536,"x_min":0,"x_max":0,"o":"m 1494 -223 b 1490 -223 1501 -221 1494 -222 b 1483 -216 1487 -221 1484 -218 b 1474 -208 1479 -213 1474 -208 b 1464 -192 1470 -203 1467 -198 b 1433 -92 1447 -162 1441 -131 b 1408 254 1413 22 1409 139 b 1385 1093 1404 533 1417 815 b 1139 1437 1373 1205 1320 1509 b 977 1223 1055 1404 1010 1299 b 828 790 916 1083 873 936 b 662 287 776 622 725 452 b 536 5 626 192 586 95 b 568 155 550 55 560 107 b 597 534 587 281 594 407 b 592 989 600 685 596 837 b 581 1419 589 1132 590 1276 b 454 1406 578 1472 458 1457 b 452 1078 445 1297 450 1187 b 457 718 454 958 457 838 b 422 57 458 498 458 274 b 358 -168 409 -18 393 -100 b 224 -261 331 -221 286 -261 b 16 86 60 -263 15 -39 b 80 323 16 166 31 257 b 163 380 101 350 128 374 b 312 245 246 393 289 309 b 345 254 317 232 350 238 b 233 394 324 311 294 373 b 120 389 197 407 155 405 b -1 226 54 361 18 291 b 97 -244 -43 79 -29 -139 b 304 -279 154 -291 234 -300 b 448 -172 363 -261 410 -220 b 634 140 527 -81 585 30 b 813 638 706 301 761 470 b 965 1112 863 796 908 956 b 1127 1403 1000 1208 1041 1339 b 1280 1028 1287 1524 1280 1090 b 1269 174 1284 743 1261 459 b 1308 -149 1272 66 1275 -46 b 1366 -250 1320 -186 1337 -224 b 1381 -262 1371 -254 1376 -258 b 1386 -265 1382 -262 1384 -263 b 1386 -265 1386 -265 1386 -265 b 1398 -271 1390 -267 1393 -270 b 1418 -278 1404 -274 1411 -276 b 1447 -282 1428 -280 1437 -281 b 1467 -281 1454 -282 1461 -282 b 1469 -281 1468 -281 1469 -281 b 1474 -280 1470 -281 1472 -281 b 1503 -274 1484 -279 1493 -277 b 1520 -267 1510 -272 1548 -257 b 1494 -223 1570 -249 1534 -209 z m 872 1478 b 881 1501 873 1485 874 1497 b 904 1500 887 1504 898 1500 b 948 1521 921 1500 943 1502 b 918 1523 952 1535 922 1534 b 917 1520 918 1522 917 1521 b 908 1520 914 1519 910 1520 b 880 1521 898 1521 889 1522 b 838 1480 856 1518 841 1504 b 872 1478 836 1464 870 1465 z "},"Ò":{"ha":1094,"x_min":0,"x_max":0,"o":"m 1013 1044 b 577 1452 972 1265 817 1458 b 71 1130 365 1448 171 1313 b 39 498 -34 940 -58 696 b 237 320 80 415 149 347 b 234 260 236 300 235 280 b 290 -137 228 128 225 -18 b 536 -273 342 -232 425 -289 b 780 -85 652 -257 720 -179 b 938 256 847 21 900 136 b 1013 1044 1017 503 1061 786 z m 899 258 b 755 -57 863 148 816 42 b 511 -239 703 -141 625 -253 b 394 -73 432 -229 406 -138 b 374 283 374 45 369 164 b 376 314 375 294 376 304 b 528 415 436 329 489 365 b 604 558 561 458 585 508 b 570 560 609 572 575 573 b 378 336 534 467 477 365 b 536 1109 395 597 448 864 b 401 1117 557 1167 421 1166 b 297 740 352 997 323 867 b 239 344 270 609 250 477 b 72 508 166 372 107 437 b 88 1093 -17 690 1 913 b 589 1430 179 1281 373 1434 b 987 966 840 1426 965 1187 b 899 258 1010 728 972 484 z m 535 1469 b 558 1475 542 1467 552 1469 b 596 1522 571 1491 583 1506 b 589 1534 600 1527 594 1532 b 568 1528 582 1536 573 1534 b 527 1483 554 1513 540 1498 b 535 1469 522 1477 529 1471 z "},"Ó":{"ha":1094,"x_min":0,"x_max":0,"o":"m 1013 1044 b 577 1452 972 1265 817 1458 b 71 1130 365 1448 171 1313 b 39 498 -34 940 -58 696 b 237 320 80 415 149 347 b 234 260 236 300 235 280 b 290 -137 228 128 225 -18 b 536 -273 342 -232 425 -289 b 780 -85 652 -257 720 -179 b 938 256 847 21 900 136 b 1013 1044 1017 503 1061 786 z m 899 258 b 755 -57 863 148 816 42 b 511 -239 703 -141 625 -253 b 394 -73 432 -229 406 -138 b 374 283 374 45 369 164 b 376 314 375 294 376 304 b 528 415 436 329 489 365 b 604 558 561 458 585 508 b 570 560 609 572 575 573 b 378 336 534 467 477 365 b 536 1109 395 597 448 864 b 401 1117 557 1167 421 1166 b 297 740 352 997 323 867 b 239 344 270 609 250 477 b 72 508 166 372 107 437 b 88 1093 -17 690 1 913 b 589 1430 179 1281 373 1434 b 987 966 840 1426 965 1187 b 899 258 1010 728 972 484 z m 597 1472 b 620 1465 602 1465 612 1464 b 627 1479 625 1467 633 1473 b 586 1524 614 1494 600 1510 b 565 1530 581 1530 572 1532 b 559 1518 560 1529 554 1524 b 597 1472 571 1502 584 1487 z "},"Ô":{"ha":1094,"x_min":0,"x_max":0,"o":"m 1013 1044 b 577 1452 972 1265 817 1458 b 71 1130 365 1448 171 1313 b 39 498 -34 940 -58 696 b 237 320 80 415 149 347 b 234 260 236 300 235 280 b 290 -137 228 128 225 -18 b 536 -273 342 -232 425 -289 b 780 -85 652 -257 720 -179 b 938 256 847 21 900 136 b 1013 1044 1017 503 1061 786 z m 899 258 b 755 -57 863 148 816 42 b 511 -239 703 -141 625 -253 b 394 -73 432 -229 406 -138 b 374 283 374 45 369 164 b 376 314 375 294 376 304 b 528 415 436 329 489 365 b 604 558 561 458 585 508 b 570 560 609 572 575 573 b 378 336 534 467 477 365 b 536 1109 395 597 448 864 b 401 1117 557 1167 421 1166 b 297 740 352 997 323 867 b 239 344 270 609 250 477 b 72 508 166 372 107 437 b 88 1093 -17 690 1 913 b 589 1430 179 1281 373 1434 b 987 966 840 1426 965 1187 b 899 258 1010 728 972 484 z m 527 1465 b 550 1472 534 1464 545 1465 b 574 1501 558 1481 566 1491 b 599 1472 582 1491 590 1481 b 622 1465 604 1465 614 1464 b 629 1479 628 1467 635 1473 b 589 1523 616 1494 603 1509 b 581 1530 588 1527 585 1529 b 574 1530 579 1531 577 1531 b 568 1530 572 1531 570 1531 b 559 1523 564 1529 560 1527 b 519 1479 546 1509 532 1494 b 527 1465 514 1473 521 1467 z "},"Õ":{"ha":1094,"x_min":0,"x_max":0,"o":"m 1013 1044 b 577 1452 972 1265 817 1458 b 71 1130 365 1448 171 1313 b 39 498 -34 940 -58 696 b 237 320 80 415 149 347 b 234 260 236 300 235 280 b 290 -137 228 128 225 -18 b 536 -273 342 -232 425 -289 b 780 -85 652 -257 720 -179 b 938 256 847 21 900 136 b 1013 1044 1017 503 1061 786 z m 899 258 b 755 -57 863 148 816 42 b 511 -239 703 -141 625 -253 b 394 -73 432 -229 406 -138 b 374 283 374 45 369 164 b 376 314 375 294 376 304 b 528 415 436 329 489 365 b 604 558 561 458 585 508 b 570 560 609 572 575 573 b 378 336 534 467 477 365 b 536 1109 395 597 448 864 b 401 1117 557 1167 421 1166 b 297 740 352 997 323 867 b 239 344 270 609 250 477 b 72 508 166 372 107 437 b 88 1093 -17 690 1 913 b 589 1430 179 1281 373 1434 b 987 966 840 1426 965 1187 b 899 258 1010 728 972 484 z m 581 1478 b 590 1501 582 1485 583 1497 b 614 1500 596 1504 607 1500 b 657 1521 631 1500 652 1502 b 627 1523 661 1535 631 1534 b 626 1520 627 1522 626 1521 b 617 1520 623 1519 620 1520 b 589 1521 608 1521 599 1522 b 547 1480 565 1518 551 1504 b 581 1478 545 1464 579 1465 z "},"Ö":{"ha":1094,"x_min":0,"x_max":0,"o":"m 1013 1044 b 577 1452 972 1265 817 1458 b 71 1130 365 1448 171 1313 b 39 498 -34 940 -58 696 b 237 320 80 415 149 347 b 234 260 236 300 235 280 b 290 -137 228 128 225 -18 b 536 -273 342 -232 425 -289 b 780 -85 652 -257 720 -179 b 938 256 847 21 900 136 b 1013 1044 1017 503 1061 786 z m 899 258 b 755 -57 863 148 816 42 b 511 -239 703 -141 625 -253 b 394 -73 432 -229 406 -138 b 374 283 374 45 369 164 b 376 314 375 294 376 304 b 528 415 436 329 489 365 b 604 558 561 458 585 508 b 570 560 609 572 575 573 b 378 336 534 467 477 365 b 536 1109 395 597 448 864 b 401 1117 557 1167 421 1166 b 297 740 352 997 323 867 b 239 344 270 609 250 477 b 72 508 166 372 107 437 b 88 1093 -17 690 1 913 b 589 1430 179 1281 373 1434 b 987 966 840 1426 965 1187 b 899 258 1010 728 972 484 z m 534 1480 b 546 1477 538 1478 542 1477 b 556 1478 549 1477 553 1477 b 565 1481 559 1478 562 1479 b 572 1486 568 1482 570 1483 b 576 1491 574 1487 575 1489 b 577 1495 576 1493 577 1494 b 572 1503 576 1498 575 1501 b 568 1505 571 1504 569 1505 b 556 1508 564 1507 560 1508 b 546 1507 553 1509 549 1508 b 537 1505 543 1507 540 1506 b 530 1500 534 1504 532 1502 b 526 1494 528 1498 527 1497 b 526 1490 526 1493 526 1491 b 530 1483 526 1487 527 1485 b 534 1480 531 1482 533 1481 z m 598 1480 b 610 1477 602 1478 606 1477 b 620 1478 614 1477 617 1477 b 630 1481 624 1478 627 1479 b 636 1486 632 1482 635 1483 b 640 1491 638 1487 640 1489 b 641 1495 641 1493 641 1494 b 637 1503 641 1498 639 1501 b 632 1505 635 1504 634 1505 b 621 1508 629 1507 625 1508 b 610 1507 617 1509 614 1508 b 601 1505 607 1507 604 1506 b 594 1500 599 1504 596 1502 b 590 1494 592 1498 591 1497 b 590 1490 590 1493 590 1491 b 594 1483 590 1487 592 1485 b 598 1480 596 1482 597 1481 z "},"×":{"ha":332,"x_min":0,"x_max":0,"o":"m 261 420 b 179 533 234 458 206 495 b 261 645 206 571 233 608 b 238 648 267 654 243 654 b 167 550 215 615 191 582 b 93 650 142 583 118 617 b 70 643 89 657 65 651 b 153 530 98 605 125 568 b 71 418 125 493 98 455 b 93 415 64 408 88 409 b 165 513 117 448 141 481 b 238 413 189 480 213 446 b 261 420 243 406 267 412 z "},"Ø":{"ha":1094,"x_min":0,"x_max":0,"o":"m 1013 1044 b 628 1450 975 1249 839 1430 b 632 1509 629 1470 631 1490 b 601 1506 633 1521 602 1519 b 597 1452 600 1488 598 1470 b 577 1452 590 1453 584 1453 b 71 1130 365 1448 171 1313 b 39 498 -34 940 -58 696 b 237 320 80 415 149 347 b 234 260 236 300 235 280 b 290 -137 228 128 225 -18 b 459 -272 329 -208 386 -258 b 456 -319 458 -288 457 -303 b 487 -315 455 -331 486 -329 b 490 -275 488 -302 489 -289 b 536 -273 505 -276 520 -275 b 780 -85 652 -257 720 -179 b 938 256 847 21 900 136 b 1013 1044 1017 503 1061 786 z m 297 740 b 239 344 270 609 250 477 b 72 508 166 372 107 437 b 88 1093 -17 690 1 913 b 589 1430 179 1281 373 1434 b 595 1430 591 1430 593 1430 b 517 452 569 1104 543 778 b 378 336 483 399 438 354 b 536 1109 395 597 448 864 b 401 1117 557 1167 421 1166 b 297 740 352 997 323 867 z m 472 -109 b 463 -220 469 -146 466 -183 b 394 -73 421 -187 403 -123 b 374 283 374 45 369 164 b 376 314 375 294 376 304 b 513 397 428 327 475 356 b 472 -109 499 228 486 60 z m 899 258 b 755 -57 863 148 816 42 b 511 -239 703 -141 625 -253 b 494 -235 505 -238 499 -237 b 548 444 512 -9 530 217 b 604 558 571 480 589 519 b 570 560 609 572 575 573 b 554 522 565 548 560 535 b 587 943 565 662 576 802 b 626 1428 600 1104 613 1266 b 987 966 852 1402 966 1176 b 899 258 1010 728 972 484 z "},"Ù":{"ha":1342,"x_min":0,"x_max":0,"o":"m 1396 -184 b 1348 -201 1379 -192 1366 -198 b 1348 -201 1348 -201 1348 -201 b 1348 -202 1348 -201 1348 -201 b 1348 -202 1348 -202 1348 -202 b 1348 -202 1348 -202 1348 -202 b 1344 -201 1346 -202 1344 -202 b 1339 -201 1342 -202 1340 -202 b 1332 -198 1337 -201 1334 -199 b 1321 -188 1330 -196 1322 -189 b 1297 -153 1314 -182 1305 -167 b 1233 122 1254 -71 1243 32 b 1201 988 1199 409 1200 700 b 1198 1417 1201 1131 1207 1275 b 1072 1413 1194 1467 1087 1457 b 1069 1409 1071 1412 1070 1410 b 922 700 1010 1175 966 937 b 787 85 883 494 847 286 b 705 -127 766 12 741 -60 b 591 -241 680 -173 645 -227 b 516 -222 559 -249 535 -242 b 475 -133 495 -201 482 -164 b 463 201 450 -25 459 91 b 487 630 468 344 479 487 b 492 1047 495 769 501 908 b 409 1348 486 1150 475 1264 b 129 1400 338 1437 231 1461 b -17 1159 46 1350 -4 1254 b 80 867 -32 1053 -16 931 b 204 833 118 842 159 832 b 202 854 226 834 223 855 b 21 1157 43 850 3 1034 b 83 1313 29 1213 50 1268 b 205 1395 108 1348 157 1401 b 324 1239 277 1386 306 1308 b 358 893 354 1127 358 1008 b 344 472 358 752 351 612 b 339 74 337 340 329 206 b 403 -205 346 -18 355 -125 b 607 -273 446 -276 529 -306 b 794 -7 708 -231 760 -101 b 929 551 858 173 893 364 b 1062 1236 973 780 1012 1009 b 1064 1245 1063 1239 1063 1242 b 1065 508 1056 999 1057 752 b 1101 70 1069 362 1076 214 b 1202 -209 1117 -24 1139 -134 b 1447 -207 1269 -287 1380 -282 b 1396 -184 1470 -181 1409 -177 z m 1338 -201 b 1336 -200 1338 -201 1337 -201 b 1338 -201 1337 -201 1338 -201 b 1338 -201 1338 -201 1338 -201 z m 1348 -202 b 1348 -202 1348 -202 1348 -202 b 1349 -202 1348 -202 1349 -202 b 1348 -202 1349 -202 1348 -202 z m 736 1488 b 760 1482 742 1482 752 1480 b 767 1496 765 1484 773 1490 b 726 1541 754 1511 740 1526 b 705 1547 721 1547 712 1549 b 699 1535 700 1545 694 1540 b 736 1488 711 1519 724 1504 z "},"Ú":{"ha":1342,"x_min":0,"x_max":0,"o":"m 1396 -184 b 1348 -201 1379 -192 1366 -198 b 1348 -201 1348 -201 1348 -201 b 1348 -202 1348 -201 1348 -201 b 1348 -202 1348 -202 1348 -202 b 1348 -202 1348 -202 1348 -202 b 1344 -201 1346 -202 1344 -202 b 1339 -201 1342 -202 1340 -202 b 1332 -198 1337 -201 1334 -199 b 1321 -188 1330 -196 1322 -189 b 1297 -153 1314 -182 1305 -167 b 1233 122 1254 -71 1243 32 b 1201 988 1199 409 1200 700 b 1198 1417 1201 1131 1207 1275 b 1072 1413 1194 1467 1087 1457 b 1069 1409 1071 1412 1070 1410 b 922 700 1010 1175 966 937 b 787 85 883 494 847 286 b 705 -127 766 12 741 -60 b 591 -241 680 -173 645 -227 b 516 -222 559 -249 535 -242 b 475 -133 495 -201 482 -164 b 463 201 450 -25 459 91 b 487 630 468 344 479 487 b 492 1047 495 769 501 908 b 409 1348 486 1150 475 1264 b 129 1400 338 1437 231 1461 b -17 1159 46 1350 -4 1254 b 80 867 -32 1053 -16 931 b 204 833 118 842 159 832 b 202 854 226 834 223 855 b 21 1157 43 850 3 1034 b 83 1313 29 1213 50 1268 b 205 1395 108 1348 157 1401 b 324 1239 277 1386 306 1308 b 358 893 354 1127 358 1008 b 344 472 358 752 351 612 b 339 74 337 340 329 206 b 403 -205 346 -18 355 -125 b 607 -273 446 -276 529 -306 b 794 -7 708 -231 760 -101 b 929 551 858 173 893 364 b 1062 1236 973 780 1012 1009 b 1064 1245 1063 1239 1063 1242 b 1065 508 1056 999 1057 752 b 1101 70 1069 362 1076 214 b 1202 -209 1117 -24 1139 -134 b 1447 -207 1269 -287 1380 -282 b 1396 -184 1470 -181 1409 -177 z m 1338 -201 b 1336 -200 1338 -201 1337 -201 b 1338 -201 1337 -201 1338 -201 b 1338 -201 1338 -201 1338 -201 z m 1348 -202 b 1348 -202 1348 -202 1348 -202 b 1349 -202 1348 -202 1349 -202 b 1348 -202 1349 -202 1348 -202 z m 707 1478 b 730 1484 715 1476 725 1478 b 768 1530 743 1499 756 1514 b 761 1542 772 1536 767 1541 b 740 1537 754 1544 746 1542 b 699 1491 726 1522 713 1507 b 707 1478 694 1485 701 1479 z "},"Û":{"ha":1342,"x_min":0,"x_max":0,"o":"m 1396 -184 b 1348 -201 1379 -192 1366 -198 b 1348 -201 1348 -201 1348 -201 b 1348 -202 1348 -201 1348 -201 b 1348 -202 1348 -202 1348 -202 b 1348 -202 1348 -202 1348 -202 b 1344 -201 1346 -202 1344 -202 b 1339 -201 1342 -202 1340 -202 b 1332 -198 1337 -201 1334 -199 b 1321 -188 1330 -196 1322 -189 b 1297 -153 1314 -182 1305 -167 b 1233 122 1254 -71 1243 32 b 1201 988 1199 409 1200 700 b 1198 1417 1201 1131 1207 1275 b 1072 1413 1194 1467 1087 1457 b 1069 1409 1071 1412 1070 1410 b 922 700 1010 1175 966 937 b 787 85 883 494 847 286 b 705 -127 766 12 741 -60 b 591 -241 680 -173 645 -227 b 516 -222 559 -249 535 -242 b 475 -133 495 -201 482 -164 b 463 201 450 -25 459 91 b 487 630 468 344 479 487 b 492 1047 495 769 501 908 b 409 1348 486 1150 475 1264 b 129 1400 338 1437 231 1461 b -17 1159 46 1350 -4 1254 b 80 867 -32 1053 -16 931 b 204 833 118 842 159 832 b 202 854 226 834 223 855 b 21 1157 43 850 3 1034 b 83 1313 29 1213 50 1268 b 205 1395 108 1348 157 1401 b 324 1239 277 1386 306 1308 b 358 893 354 1127 358 1008 b 344 472 358 752 351 612 b 339 74 337 340 329 206 b 403 -205 346 -18 355 -125 b 607 -273 446 -276 529 -306 b 794 -7 708 -231 760 -101 b 929 551 858 173 893 364 b 1062 1236 973 780 1012 1009 b 1064 1245 1063 1239 1063 1242 b 1065 508 1056 999 1057 752 b 1101 70 1069 362 1076 214 b 1202 -209 1117 -24 1139 -134 b 1447 -207 1269 -287 1380 -282 b 1396 -184 1470 -181 1409 -177 z m 1338 -201 b 1336 -200 1338 -201 1337 -201 b 1338 -201 1337 -201 1338 -201 b 1338 -201 1338 -201 1338 -201 z m 1348 -202 b 1348 -202 1348 -202 1348 -202 b 1349 -202 1348 -202 1349 -202 b 1348 -202 1349 -202 1348 -202 z m 724 1482 b 748 1488 732 1480 742 1482 b 772 1518 756 1498 764 1508 b 796 1488 780 1508 788 1498 b 819 1482 802 1482 812 1480 b 827 1496 825 1484 832 1490 b 787 1540 814 1511 801 1526 b 779 1547 786 1543 782 1546 b 772 1547 776 1547 774 1547 b 765 1547 770 1547 767 1547 b 757 1540 762 1546 758 1543 b 717 1496 743 1526 730 1511 b 724 1482 711 1490 719 1484 z "},"Ü":{"ha":1342,"x_min":0,"x_max":0,"o":"m 1396 -184 b 1348 -201 1379 -192 1366 -198 b 1348 -201 1348 -201 1348 -201 b 1348 -202 1348 -201 1348 -201 b 1348 -202 1348 -202 1348 -202 b 1348 -202 1348 -202 1348 -202 b 1344 -201 1346 -202 1344 -202 b 1339 -201 1342 -202 1340 -202 b 1332 -198 1337 -201 1334 -199 b 1321 -188 1330 -196 1322 -189 b 1297 -153 1314 -182 1305 -167 b 1233 122 1254 -71 1243 32 b 1201 988 1199 409 1200 700 b 1198 1417 1201 1131 1207 1275 b 1072 1413 1194 1467 1087 1457 b 1069 1409 1071 1412 1070 1410 b 922 700 1010 1175 966 937 b 787 85 883 494 847 286 b 705 -127 766 12 741 -60 b 591 -241 680 -173 645 -227 b 516 -222 559 -249 535 -242 b 475 -133 495 -201 482 -164 b 463 201 450 -25 459 91 b 487 630 468 344 479 487 b 492 1047 495 769 501 908 b 409 1348 486 1150 475 1264 b 129 1400 338 1437 231 1461 b -17 1159 46 1350 -4 1254 b 80 867 -32 1053 -16 931 b 204 833 118 842 159 832 b 202 854 226 834 223 855 b 21 1157 43 850 3 1034 b 83 1313 29 1213 50 1268 b 205 1395 108 1348 157 1401 b 324 1239 277 1386 306 1308 b 358 893 354 1127 358 1008 b 344 472 358 752 351 612 b 339 74 337 340 329 206 b 403 -205 346 -18 355 -125 b 607 -273 446 -276 529 -306 b 794 -7 708 -231 760 -101 b 929 551 858 173 893 364 b 1062 1236 973 780 1012 1009 b 1064 1245 1063 1239 1063 1242 b 1065 508 1056 999 1057 752 b 1101 70 1069 362 1076 214 b 1202 -209 1117 -24 1139 -134 b 1447 -207 1269 -287 1380 -282 b 1396 -184 1470 -181 1409 -177 z m 1338 -201 b 1336 -200 1338 -201 1337 -201 b 1338 -201 1337 -201 1338 -201 b 1338 -201 1338 -201 1338 -201 z m 1348 -202 b 1348 -202 1348 -202 1348 -202 b 1349 -202 1348 -202 1349 -202 b 1348 -202 1349 -202 1348 -202 z m 693 1488 b 705 1486 697 1487 701 1486 b 715 1486 708 1485 712 1486 b 725 1489 718 1487 722 1488 b 731 1494 727 1490 729 1492 b 735 1500 733 1495 734 1497 b 736 1504 735 1501 736 1502 b 731 1511 735 1507 734 1509 b 727 1514 730 1512 729 1513 b 715 1517 723 1515 720 1516 b 705 1516 712 1517 709 1517 b 696 1513 702 1515 699 1514 b 689 1508 693 1512 691 1510 b 685 1503 687 1507 686 1505 b 685 1498 685 1501 685 1500 b 689 1491 685 1495 687 1493 b 693 1488 690 1490 692 1489 z m 758 1488 b 769 1486 761 1487 765 1486 b 780 1486 773 1485 776 1486 b 789 1489 783 1487 786 1488 b 796 1494 791 1490 794 1492 b 800 1500 797 1495 799 1497 b 800 1504 800 1501 800 1502 b 796 1511 800 1507 798 1509 b 791 1514 794 1512 793 1513 b 780 1517 788 1515 784 1516 b 770 1516 776 1517 773 1517 b 760 1513 766 1515 763 1514 b 753 1508 758 1512 755 1510 b 749 1503 752 1507 750 1505 b 749 1498 749 1501 749 1500 b 753 1491 749 1495 751 1493 b 758 1488 755 1490 756 1489 z "},"Ý":{"ha":1357,"x_min":0,"x_max":0,"o":"m 1265 974 b 1235 1426 1260 1124 1257 1278 b 1108 1421 1227 1475 1121 1467 b 1108 1420 1108 1421 1108 1421 b 877 792 1035 1209 977 993 b 686 534 831 698 773 596 b 515 541 636 497 556 491 b 461 752 470 597 464 683 b 461 1039 456 848 460 944 b 310 1452 461 1166 478 1418 b 2 1224 167 1482 49 1344 b 12 972 -28 1146 -36 1045 b 176 899 49 916 110 885 b 166 917 197 904 182 920 b 12 1102 63 895 12 1020 b 108 1337 13 1189 51 1272 b 252 1399 143 1378 207 1428 b 297 1342 275 1385 286 1368 b 332 1127 326 1276 329 1198 b 336 850 336 1034 332 942 b 502 462 341 720 345 504 b 888 743 679 414 817 612 b 1109 1330 987 929 1045 1131 b 1123 1063 1113 1241 1120 1152 b 1127 692 1128 940 1129 816 b 1059 36 1124 473 1111 249 b 825 -261 1031 -78 979 -277 b 634 93 670 -245 631 -30 b 701 327 635 173 651 263 b 781 380 721 353 748 374 b 930 245 864 393 907 309 b 963 254 934 232 968 238 b 855 393 943 309 913 369 b 740 390 819 407 776 405 b 619 232 675 363 638 297 b 706 -236 574 85 588 -125 b 1090 -153 830 -351 1001 -265 b 1211 130 1153 -73 1187 32 b 1260 502 1240 252 1252 377 b 1265 974 1269 659 1270 817 z m 756 1457 b 777 1463 763 1455 771 1457 b 818 1508 791 1477 804 1493 b 810 1522 823 1514 816 1520 b 787 1515 802 1523 792 1522 b 749 1469 774 1500 761 1485 b 756 1457 745 1463 750 1459 z "},"ß":{"ha":1063,"x_min":0,"x_max":0,"o":"m 966 988 b 1048 1313 1043 1074 1098 1200 b 804 1409 1004 1412 901 1431 b 470 1121 660 1377 547 1237 b 240 660 375 978 304 819 b 154 432 210 585 183 508 b 137 382 148 416 143 399 b 137 479 138 414 138 447 b 127 762 133 574 128 668 b 137 1386 123 970 125 1179 b -3 1371 141 1441 0 1431 b -14 741 -15 1162 -17 951 b 41 272 -11 589 -24 414 b 131 287 55 241 125 255 b 131 287 131 287 131 287 b 224 528 171 362 196 447 b 248 518 230 523 238 520 b 682 348 400 486 560 449 b 816 -1 785 264 860 134 b 500 -251 771 -139 640 -230 b 269 -186 417 -263 330 -247 b 218 44 209 -125 197 -36 b 349 261 238 123 283 211 b 492 289 388 290 444 307 b 567 213 527 275 549 245 b 600 222 573 201 607 209 b 450 318 566 281 519 319 b 260 209 370 316 305 271 b 296 -250 157 69 118 -151 b 904 285 606 -423 1119 -64 b 417 575 799 454 605 529 b 668 731 504 621 587 674 b 966 988 773 806 881 891 z m 249 595 b 417 975 298 724 352 853 b 692 1329 486 1105 572 1239 b 939 1367 756 1376 868 1431 b 898 1057 1034 1283 966 1133 b 587 797 810 956 695 875 b 249 595 480 720 368 652 z "},"à":{"ha":582,"x_min":0,"x_max":0,"o":"m 579 290 b 520 90 558 223 547 155 b 466 -3 511 67 492 6 b 460 519 428 -16 441 373 b 338 527 467 576 345 573 b 331 475 335 510 333 492 b 304 515 324 490 315 503 b 160 556 267 555 212 568 b -13 198 16 522 -27 324 b 82 19 -5 134 25 54 b 236 41 129 -10 200 -3 b 317 227 279 92 300 162 b 383 -22 315 148 310 27 b 610 288 537 -126 583 206 b 579 290 614 301 583 301 z m 265 169 b 165 64 253 136 214 20 b 105 197 129 96 112 150 b 173 494 90 288 107 427 b 289 480 209 530 247 534 b 318 375 312 451 315 412 b 265 169 304 306 288 236 z m 243 600 b 266 594 248 594 259 592 b 274 607 272 595 279 601 b 233 653 260 623 247 638 b 212 658 228 658 219 660 b 205 646 207 657 201 652 b 243 600 217 630 230 615 z "},"á":{"ha":582,"x_min":0,"x_max":0,"o":"m 579 290 b 520 90 558 223 547 155 b 466 -3 511 67 492 6 b 460 519 428 -16 441 373 b 338 527 467 576 345 573 b 331 475 335 510 333 492 b 304 515 324 490 315 503 b 160 556 267 555 212 568 b -13 198 16 522 -27 324 b 82 19 -5 134 25 54 b 236 41 129 -10 200 -3 b 317 227 279 92 300 162 b 383 -22 315 148 310 27 b 610 288 537 -126 583 206 b 579 290 614 301 583 301 z m 265 169 b 165 64 253 136 214 20 b 105 197 129 96 112 150 b 173 494 90 288 107 427 b 289 480 209 530 247 534 b 318 375 312 451 315 412 b 265 169 304 306 288 236 z m 233 589 b 256 595 240 587 250 589 b 294 642 269 611 281 626 b 287 654 298 647 292 652 b 266 648 280 655 271 653 b 225 603 252 633 238 618 b 233 589 220 596 227 591 z "},"â":{"ha":582,"x_min":0,"x_max":0,"o":"m 579 290 b 520 90 558 223 547 155 b 466 -3 511 67 492 6 b 460 519 428 -16 441 373 b 338 527 467 576 345 573 b 331 475 335 510 333 492 b 304 515 324 490 315 503 b 160 556 267 555 212 568 b -13 198 16 522 -27 324 b 82 19 -5 134 25 54 b 236 41 129 -10 200 -3 b 317 227 279 92 300 162 b 383 -22 315 148 310 27 b 610 288 537 -126 583 206 b 579 290 614 301 583 301 z m 265 169 b 165 64 253 136 214 20 b 105 197 129 96 112 150 b 173 494 90 288 107 427 b 289 480 209 530 247 534 b 318 375 312 451 315 412 b 265 169 304 306 288 236 z m 207 594 b 231 600 215 592 225 594 b 255 629 239 610 247 619 b 279 600 263 619 271 610 b 302 594 285 594 295 592 b 310 607 308 595 315 601 b 270 652 297 622 284 637 b 262 658 269 655 265 657 b 255 659 260 659 257 659 b 248 658 253 659 250 659 b 240 652 245 657 241 655 b 200 607 226 637 213 622 b 207 594 194 601 202 595 z "},"ã":{"ha":582,"x_min":0,"x_max":0,"o":"m 579 290 b 520 90 558 223 547 155 b 466 -3 511 67 492 6 b 460 519 428 -16 441 373 b 338 527 467 576 345 573 b 331 475 335 510 333 492 b 304 515 324 490 315 503 b 160 556 267 555 212 568 b -13 198 16 522 -27 324 b 82 19 -5 134 25 54 b 236 41 129 -10 200 -3 b 317 227 279 92 300 162 b 383 -22 315 148 310 27 b 610 288 537 -126 583 206 b 579 290 614 301 583 301 z m 265 169 b 165 64 253 136 214 20 b 105 197 129 96 112 150 b 173 494 90 288 107 427 b 289 480 209 530 247 534 b 318 375 312 451 315 412 b 265 169 304 306 288 236 z m 233 598 b 242 621 234 605 235 617 b 266 620 248 623 259 620 b 309 641 282 620 304 622 b 279 643 313 654 283 654 b 278 640 279 641 278 641 b 269 640 275 639 271 640 b 241 641 260 641 251 642 b 199 600 217 638 203 624 b 233 598 197 584 231 585 z "},"ä":{"ha":582,"x_min":0,"x_max":0,"o":"m 579 290 b 520 90 558 223 547 155 b 466 -3 511 67 492 6 b 460 519 428 -16 441 373 b 338 527 467 576 345 573 b 331 475 335 510 333 492 b 304 515 324 490 315 503 b 160 556 267 555 212 568 b -13 198 16 522 -27 324 b 82 19 -5 134 25 54 b 236 41 129 -10 200 -3 b 317 227 279 92 300 162 b 383 -22 315 148 310 27 b 610 288 537 -126 583 206 b 579 290 614 301 583 301 z m 265 169 b 165 64 253 136 214 20 b 105 197 129 96 112 150 b 173 494 90 288 107 427 b 289 480 209 530 247 534 b 318 375 312 451 315 412 b 265 169 304 306 288 236 z m 211 600 b 223 597 215 598 219 597 b 233 598 226 597 230 597 b 243 601 236 598 240 599 b 249 605 245 602 247 603 b 253 611 251 607 253 609 b 254 615 253 613 254 614 b 249 623 253 618 252 621 b 245 625 248 624 247 624 b 233 628 241 627 238 628 b 223 627 230 628 227 628 b 214 625 220 627 217 626 b 207 620 211 623 209 622 b 203 614 205 618 204 616 b 203 610 203 613 203 611 b 207 603 203 607 205 604 b 211 600 208 602 210 601 z m 276 600 b 287 597 279 598 283 597 b 298 598 291 597 294 597 b 307 601 301 598 304 599 b 314 605 309 602 312 603 b 318 611 315 607 317 609 b 318 615 318 613 318 614 b 314 623 318 618 316 621 b 309 625 312 624 311 624 b 298 628 306 627 302 628 b 288 627 294 628 291 628 b 278 625 284 627 281 626 b 271 620 276 623 273 622 b 267 614 270 618 268 616 b 267 610 267 613 267 611 b 271 603 267 607 269 604 b 276 600 273 602 274 601 z "},"å":{"ha":582,"x_min":0,"x_max":0,"o":"m 579 290 b 520 90 558 223 547 155 b 466 -3 511 67 492 6 b 460 519 428 -16 441 373 b 338 527 467 576 345 573 b 331 475 335 510 333 492 b 304 515 324 490 315 503 b 160 556 267 555 212 568 b -13 198 16 522 -27 324 b 82 19 -5 134 25 54 b 236 41 129 -10 200 -3 b 317 227 279 92 300 162 b 383 -22 315 148 310 27 b 610 288 537 -126 583 206 b 579 290 614 301 583 301 z m 265 169 b 165 64 253 136 214 20 b 105 197 129 96 112 150 b 173 494 90 288 107 427 b 289 480 209 530 247 534 b 318 375 312 451 315 412 b 265 169 304 306 288 236 z m 206 574 b 283 591 232 563 265 569 b 301 636 294 603 301 619 b 284 685 302 654 295 671 b 276 689 282 688 279 689 b 208 691 255 701 230 703 b 171 636 187 680 173 659 b 206 574 168 611 183 585 z m 271 657 b 271 657 271 657 270 658 z m 206 655 b 206 655 207 657 207 656 b 206 655 206 655 206 655 z m 200 645 b 200 645 201 647 200 646 b 200 645 200 645 200 645 z m 197 635 b 197 635 197 635 197 635 b 199 641 198 637 198 639 b 200 644 199 642 199 643 b 200 645 200 644 200 644 b 203 650 201 645 202 649 b 206 655 204 652 205 654 b 207 656 206 656 207 656 b 209 659 207 657 208 658 b 213 663 210 660 212 661 b 214 664 214 663 214 663 b 214 663 214 663 214 663 b 215 664 214 663 214 664 b 215 664 215 664 215 664 b 217 665 216 664 217 665 b 223 669 219 667 221 668 b 224 669 224 669 224 669 b 228 671 225 670 226 670 b 235 672 230 671 232 672 b 236 672 235 672 236 672 b 240 673 237 673 239 673 b 244 672 241 673 242 673 b 245 672 244 672 245 672 b 245 672 247 672 246 672 b 253 671 247 673 251 671 b 257 669 254 670 256 670 b 259 668 254 670 258 669 b 267 663 262 667 264 665 b 269 660 268 662 268 661 b 271 656 270 659 270 658 b 271 656 271 656 271 656 b 272 654 271 656 271 655 b 274 646 273 651 273 649 b 274 645 274 645 274 645 b 274 645 274 645 274 645 b 274 645 274 645 274 645 b 274 644 274 645 274 644 b 274 640 274 643 274 641 b 274 635 274 638 274 637 b 274 633 274 635 274 634 b 274 632 274 633 274 633 b 274 632 274 632 274 632 b 274 630 274 631 274 631 b 273 626 273 628 273 627 b 271 621 272 624 272 623 b 271 620 271 621 271 621 b 271 620 271 620 271 620 b 267 613 269 618 268 615 b 265 611 266 612 265 611 b 263 609 265 610 264 609 b 261 606 263 608 262 607 b 259 605 260 605 260 605 b 258 603 259 604 258 604 b 256 602 257 603 257 603 b 253 600 255 602 254 601 b 250 599 252 600 251 599 b 250 599 250 599 250 599 b 248 598 249 599 248 598 b 241 596 245 597 243 597 b 238 596 240 596 238 596 b 235 595 237 596 236 596 b 228 596 232 595 230 596 b 226 596 229 596 227 596 b 222 597 225 596 223 597 b 218 598 221 597 220 598 b 218 598 218 598 218 598 b 217 599 218 598 217 599 b 214 601 216 600 215 600 b 212 602 213 601 213 601 b 211 602 212 602 212 602 b 210 603 211 603 210 603 b 209 604 210 603 210 604 b 206 607 208 605 207 606 b 204 609 206 608 205 609 b 203 611 204 610 204 611 b 200 617 202 613 201 615 b 200 617 200 617 200 617 b 200 618 200 618 200 618 b 198 622 199 619 199 620 b 198 625 198 623 198 624 b 198 625 198 625 198 625 b 197 632 198 627 197 630 b 197 635 197 633 197 634 z "},"æ":{"ha":683,"x_min":0,"x_max":0,"o":"m 680 279 b 559 92 645 213 610 147 b 481 40 543 74 508 35 b 436 72 468 42 445 62 b 386 323 381 134 371 235 b 582 403 461 316 542 333 b 523 553 616 464 594 536 b 330 476 441 573 375 535 b 304 515 324 490 315 503 b 160 556 267 555 212 568 b -13 198 16 522 -27 324 b 82 19 -5 134 25 54 b 236 41 129 -10 200 -3 b 286 128 257 66 273 96 b 413 5 308 68 348 19 b 711 277 558 -26 667 172 b 680 279 716 290 685 288 z m 412 415 b 515 524 429 453 462 536 b 565 457 546 517 565 487 b 390 343 564 364 468 337 b 412 415 396 369 403 394 z m 268 323 b 270 186 262 283 262 233 b 265 169 269 180 267 175 b 165 64 253 136 214 20 b 105 197 129 96 112 150 b 173 494 90 288 107 427 b 289 480 209 530 247 534 b 308 442 298 469 304 456 b 268 323 287 405 274 363 z "},"ç":{"ha":406,"x_min":0,"x_max":0,"o":"m 402 279 b 318 137 376 230 351 182 b 221 42 295 105 261 56 b 146 91 192 32 160 68 b 109 198 126 124 115 160 b 150 448 95 283 110 372 b 215 525 163 472 186 517 b 278 416 281 540 294 458 b 309 414 273 403 305 403 b 208 558 343 495 289 555 b 5 387 106 561 33 476 b 25 92 -25 293 -24 180 b 118 12 47 53 80 25 b 115 11 117 12 116 11 b 94 -7 108 5 100 0 b 89 -65 78 -25 76 -45 b 116 -45 98 -79 123 -56 b 108 -22 112 -39 105 -29 b 126 -7 111 -16 121 -11 b 140 7 131 -3 136 2 b 223 17 166 2 194 5 b 433 277 324 59 393 180 b 402 279 438 290 408 288 z "},"è":{"ha":404,"x_min":0,"x_max":0,"o":"m 401 279 b 280 92 366 213 331 147 b 202 40 264 74 229 35 b 157 72 188 42 166 62 b 107 323 102 134 92 235 b 302 403 182 316 263 333 b 244 553 337 464 315 536 b -11 323 101 588 6 447 b 134 4 -27 211 -1 33 b 432 277 278 -26 387 172 b 401 279 437 290 406 288 z m 133 415 b 236 524 150 453 183 536 b 285 457 267 517 286 487 b 111 343 285 364 189 337 b 133 415 116 369 124 394 z m 226 583 b 249 577 231 577 241 575 b 257 590 255 578 262 584 b 215 636 243 606 229 621 b 195 641 210 641 202 643 b 188 629 189 640 183 635 b 226 583 200 614 213 598 z "},"é":{"ha":404,"x_min":0,"x_max":0,"o":"m 401 279 b 280 92 366 213 331 147 b 202 40 264 74 229 35 b 157 72 188 42 166 62 b 107 323 102 134 92 235 b 302 403 182 316 263 333 b 244 553 337 464 315 536 b -11 323 101 588 6 447 b 134 4 -27 211 -1 33 b 432 277 278 -26 387 172 b 401 279 437 290 406 288 z m 133 415 b 236 524 150 453 183 536 b 285 457 267 517 286 487 b 111 343 285 364 189 337 b 133 415 116 369 124 394 z m 177 581 b 200 587 185 579 195 581 b 238 633 213 602 226 617 b 231 645 243 639 237 644 b 211 640 224 647 216 645 b 170 594 197 625 183 610 b 177 581 164 588 171 582 z "},"ê":{"ha":404,"x_min":0,"x_max":0,"o":"m 401 279 b 280 92 366 213 331 147 b 202 40 264 74 229 35 b 157 72 188 42 166 62 b 107 323 102 134 92 235 b 302 403 182 316 263 333 b 244 553 337 464 315 536 b -11 323 101 588 6 447 b 134 4 -27 211 -1 33 b 432 277 278 -26 387 172 b 401 279 437 290 406 288 z m 133 415 b 236 524 150 453 183 536 b 285 457 267 517 286 487 b 111 343 285 364 189 337 b 133 415 116 369 124 394 z m 156 577 b 179 583 164 575 174 577 b 204 613 188 593 196 603 b 228 583 212 603 220 593 b 251 577 234 577 244 575 b 259 590 257 578 264 584 b 219 635 246 606 233 620 b 211 641 218 638 214 641 b 204 642 208 642 206 642 b 197 641 202 642 199 642 b 189 635 194 641 190 638 b 149 590 175 620 162 606 b 156 577 143 584 151 578 z "},"ë":{"ha":404,"x_min":0,"x_max":0,"o":"m 401 279 b 280 92 366 213 331 147 b 202 40 264 74 229 35 b 157 72 188 42 166 62 b 107 323 102 134 92 235 b 302 403 182 316 263 333 b 244 553 337 464 315 536 b -11 323 101 588 6 447 b 134 4 -27 211 -1 33 b 432 277 278 -26 387 172 b 401 279 437 290 406 288 z m 133 415 b 236 524 150 453 183 536 b 285 457 267 517 286 487 b 111 343 285 364 189 337 b 133 415 116 369 124 394 z m 161 583 b 173 580 165 581 169 581 b 183 581 176 580 180 580 b 192 584 186 582 189 583 b 199 589 195 585 197 587 b 203 594 201 590 202 592 b 203 599 203 596 203 597 b 199 606 203 602 202 604 b 195 609 198 607 196 608 b 183 611 191 610 187 611 b 173 611 180 612 176 611 b 164 608 170 610 167 609 b 157 603 161 607 159 605 b 153 597 155 602 154 600 b 152 593 153 596 153 595 b 157 586 153 590 154 588 b 161 583 158 585 160 584 z m 225 583 b 237 580 229 581 233 581 b 247 581 240 580 244 580 b 256 584 250 582 254 583 b 263 589 259 585 261 587 b 267 594 265 590 266 592 b 268 599 267 596 268 597 b 263 606 267 602 266 604 b 259 609 262 607 261 608 b 247 611 255 610 251 611 b 237 611 244 612 241 611 b 228 608 234 610 231 609 b 221 603 225 607 223 605 b 217 597 219 602 218 600 b 217 593 217 596 217 595 b 221 586 217 590 219 588 b 225 583 222 585 224 584 z "},"ì":{"ha":250,"x_min":0,"x_max":0,"o":"m 248 290 b 189 90 227 223 216 155 b 134 -3 180 67 161 4 b 128 519 91 -15 110 373 b 6 527 136 576 14 573 b -14 235 -8 430 -12 332 b 52 -22 -16 156 -24 29 b 278 288 206 -126 252 206 b 248 290 283 301 252 301 z m 86 583 b 109 577 91 577 101 575 b 117 590 115 578 122 584 b 76 636 103 606 90 621 b 55 641 70 641 62 643 b 48 629 50 640 44 635 b 86 583 60 614 73 598 z "},"í":{"ha":250,"x_min":0,"x_max":0,"o":"m 248 290 b 189 90 227 223 216 155 b 134 -3 180 67 161 4 b 128 519 91 -15 110 373 b 6 527 136 576 14 573 b -14 235 -8 430 -12 332 b 52 -22 -16 156 -24 29 b 278 288 206 -126 252 206 b 248 290 283 301 252 301 z m 55 572 b 78 579 63 571 73 572 b 116 625 91 594 104 609 b 109 637 121 631 115 635 b 89 631 102 639 94 637 b 47 586 75 616 61 601 b 55 572 42 580 49 574 z "},"î":{"ha":250,"x_min":0,"x_max":0,"o":"m 248 290 b 189 90 227 223 216 155 b 134 -3 180 67 161 4 b 128 519 91 -15 110 373 b 6 527 136 576 14 573 b -14 235 -8 430 -12 332 b 52 -22 -16 156 -24 29 b 278 288 206 -126 252 206 b 248 290 283 301 252 301 z m 27 577 b 50 583 34 575 45 577 b 74 613 58 593 66 603 b 99 583 82 603 90 593 b 122 577 104 577 114 575 b 129 590 127 578 135 584 b 89 635 116 606 103 620 b 81 641 88 638 85 641 b 74 642 79 642 77 642 b 67 641 72 642 70 642 b 59 635 64 641 60 638 b 19 590 46 620 32 606 b 27 577 14 584 21 578 z "},"ï":{"ha":250,"x_min":0,"x_max":0,"o":"m 248 290 b 189 90 227 223 216 155 b 134 -3 180 67 161 4 b 128 519 91 -15 110 373 b 6 527 136 576 14 573 b -14 235 -8 430 -12 332 b 52 -22 -16 156 -24 29 b 278 288 206 -126 252 206 b 248 290 283 301 252 301 z m 25 583 b 36 580 28 581 32 581 b 46 581 40 580 43 580 b 56 584 50 582 53 583 b 63 589 58 585 61 587 b 67 594 64 590 66 592 b 67 599 67 596 67 597 b 63 606 67 602 65 604 b 58 609 61 607 60 608 b 47 611 55 610 51 611 b 36 611 43 612 40 611 b 27 608 33 610 30 609 b 20 603 25 607 22 605 b 16 597 19 602 17 600 b 16 593 16 596 16 595 b 20 586 16 590 18 588 b 25 583 22 585 23 584 z m 89 583 b 101 580 93 581 96 581 b 111 581 104 580 107 580 b 120 584 114 582 117 583 b 127 589 123 585 125 587 b 131 594 129 590 130 592 b 131 599 131 596 131 597 b 127 606 131 602 129 604 b 123 609 126 607 124 608 b 111 611 119 610 115 611 b 101 611 108 612 104 611 b 91 608 98 610 94 609 b 85 603 89 607 87 605 b 81 597 83 602 81 600 b 80 593 81 596 80 595 b 85 586 81 590 82 588 b 89 583 86 585 87 584 z "},"ñ":{"ha":599,"x_min":0,"x_max":0,"o":"m 596 276 b 484 14 566 187 535 93 b 434 -34 469 -9 448 -38 b 451 264 412 -28 447 105 b 382 541 454 347 462 489 b 196 445 293 600 229 509 b 111 215 158 373 133 294 b 106 533 111 321 107 428 b -15 521 106 582 -15 572 b -7 23 -15 355 -18 188 b 104 34 -4 -24 100 -10 b 105 48 104 39 104 43 l 105 68 b 209 404 132 182 161 297 b 304 534 223 438 259 528 b 332 459 334 538 332 479 b 312 120 333 346 317 233 b 407 -70 308 47 307 -68 b 510 0 455 -70 486 -37 b 627 274 565 82 596 181 b 596 276 631 287 600 287 z m 186 581 b 195 604 187 588 188 600 b 219 603 201 607 213 604 b 263 624 236 603 257 605 b 232 626 266 638 236 637 b 231 623 232 625 231 624 b 222 624 228 623 225 623 b 194 624 213 625 204 625 b 152 583 171 622 156 607 b 186 581 150 567 184 568 z "},"ò":{"ha":457,"x_min":0,"x_max":0,"o":"m 474 291 b 346 252 435 274 391 260 b 344 340 348 282 348 312 b 245 531 335 408 304 490 b 79 530 195 566 130 560 b 2 382 28 499 -7 444 b 2 381 2 382 2 381 b 146 -5 -33 252 -28 2 b 299 101 215 -7 267 44 b 343 229 321 140 336 184 b 493 275 396 238 447 254 b 474 291 514 284 487 297 z m 256 94 b 144 71 230 54 180 26 b 113 158 125 95 117 128 b 112 256 108 191 108 224 b 306 225 171 227 239 219 b 256 94 297 176 280 130 z m 309 248 b 138 275 250 242 190 249 b 117 287 131 279 124 283 b 146 392 123 323 134 358 b 43 431 160 435 89 448 b 225 510 60 508 155 565 b 309 248 298 451 321 346 z m 137 572 b 160 579 145 571 155 572 b 198 625 173 594 186 609 b 191 637 203 631 197 635 b 171 631 184 639 176 637 b 129 586 157 616 143 601 b 137 572 124 580 131 574 z "},"ó":{"ha":457,"x_min":0,"x_max":0,"o":"m 474 291 b 346 252 435 274 391 260 b 344 340 348 282 348 312 b 245 531 335 408 304 490 b 79 530 195 566 130 560 b 2 382 28 499 -7 444 b 2 381 2 382 2 381 b 146 -5 -33 252 -28 2 b 299 101 215 -7 267 44 b 343 229 321 140 336 184 b 493 275 396 238 447 254 b 474 291 514 284 487 297 z m 256 94 b 144 71 230 54 180 26 b 113 158 125 95 117 128 b 112 256 108 191 108 224 b 306 225 171 227 239 219 b 256 94 297 176 280 130 z m 309 248 b 138 275 250 242 190 249 b 117 287 131 279 124 283 b 146 392 123 323 134 358 b 43 431 160 435 89 448 b 225 510 60 508 155 565 b 309 248 298 451 321 346 z m 172 575 b 195 569 177 569 188 567 b 203 582 201 570 208 576 b 162 628 189 598 176 613 b 141 633 157 633 148 635 b 134 621 136 632 130 627 b 172 575 146 605 159 590 z "},"ô":{"ha":457,"x_min":0,"x_max":0,"o":"m 474 291 b 346 252 435 274 391 260 b 344 340 348 282 348 312 b 245 531 335 408 304 490 b 79 530 195 566 130 560 b 2 382 28 499 -7 444 b 2 381 2 382 2 381 b 146 -5 -33 252 -28 2 b 299 101 215 -7 267 44 b 343 229 321 140 336 184 b 493 275 396 238 447 254 b 474 291 514 284 487 297 z m 256 94 b 144 71 230 54 180 26 b 113 158 125 95 117 128 b 112 256 108 191 108 224 b 306 225 171 227 239 219 b 256 94 297 176 280 130 z m 309 248 b 138 275 250 242 190 249 b 117 287 131 279 124 283 b 146 392 123 323 134 358 b 43 431 160 435 89 448 b 225 510 60 508 155 565 b 309 248 298 451 321 346 z m 124 569 b 147 575 131 567 141 569 b 171 604 155 585 163 594 b 195 575 179 594 187 585 b 219 569 201 569 211 567 b 226 582 224 570 232 576 b 186 627 213 597 200 612 b 178 633 185 630 181 632 b 171 634 176 634 173 634 b 164 633 169 634 166 634 b 156 627 161 632 157 630 b 116 582 142 612 129 597 b 124 569 111 576 118 570 z "},"õ":{"ha":457,"x_min":0,"x_max":0,"o":"m 474 291 b 346 252 435 274 391 260 b 344 340 348 282 348 312 b 245 531 335 408 304 490 b 79 530 195 566 130 560 b 2 382 28 499 -7 444 b 2 381 2 382 2 381 b 146 -5 -33 252 -28 2 b 299 101 215 -7 267 44 b 343 229 321 140 336 184 b 493 275 396 238 447 254 b 474 291 514 284 487 297 z m 256 94 b 144 71 230 54 180 26 b 113 158 125 95 117 128 b 112 256 108 191 108 224 b 306 225 171 227 239 219 b 256 94 297 176 280 130 z m 309 248 b 138 275 250 242 190 249 b 117 287 131 279 124 283 b 146 392 123 323 134 358 b 43 431 160 435 89 448 b 225 510 60 508 155 565 b 309 248 298 451 321 346 z m 151 573 b 160 596 152 580 153 592 b 183 595 166 598 177 595 b 227 616 200 594 222 597 b 197 618 231 629 201 629 b 196 615 197 616 196 616 b 187 615 193 614 189 615 b 159 616 178 616 168 617 b 117 575 135 613 121 599 b 151 573 115 559 149 560 z "},"ö":{"ha":458,"x_min":0,"x_max":0,"o":"m 474 291 b 346 252 435 274 391 260 b 344 340 348 282 348 312 b 245 531 335 408 304 490 b 79 530 195 566 130 560 b 2 382 28 499 -7 444 b 2 381 2 382 2 381 b 146 -5 -33 252 -28 2 b 299 101 215 -7 267 44 b 343 229 321 140 336 184 b 493 275 396 238 447 254 b 474 291 514 284 487 297 z m 256 94 b 144 71 230 54 180 26 b 113 158 125 95 117 128 b 112 256 108 191 108 224 b 306 225 171 227 239 219 b 256 94 297 176 280 130 z m 309 248 b 138 275 250 242 190 249 b 117 287 131 279 124 283 b 146 392 123 323 134 358 b 43 431 160 435 89 448 b 225 510 60 508 155 565 b 309 248 298 451 321 346 z m 133 575 b 145 572 137 573 141 572 b 155 573 148 572 151 572 b 164 576 158 573 161 574 b 171 580 167 577 169 578 b 175 586 173 582 174 584 b 175 590 175 587 175 589 b 171 598 175 593 174 596 b 167 600 170 598 168 599 b 155 603 163 602 159 603 b 145 602 152 603 148 603 b 136 599 142 602 139 601 b 129 595 133 598 131 597 b 125 589 127 593 126 591 b 124 585 125 588 124 586 b 129 577 125 582 126 579 b 133 575 130 577 131 576 z m 197 575 b 209 572 201 573 205 572 b 219 573 212 572 216 572 b 228 576 222 573 225 574 b 235 580 231 577 233 578 b 239 586 237 582 238 584 b 240 590 239 587 240 589 b 235 598 239 593 238 596 b 231 600 234 598 233 599 b 219 603 227 602 223 603 b 209 602 216 603 213 603 b 200 599 206 602 203 601 b 193 595 197 598 195 597 b 189 589 191 593 190 591 b 189 585 189 588 189 586 b 193 577 189 582 190 579 b 197 575 194 577 196 576 z "},"÷":{"ha":478,"x_min":0,"x_max":0,"o":"m 127 460 l 127 460 b 146 451 133 456 139 452 b 170 446 154 448 162 446 b 188 446 176 446 182 446 b 222 455 200 447 211 450 b 240 468 232 459 234 462 b 248 478 244 471 246 474 b 251 483 249 480 250 481 b 251 483 251 483 251 483 b 251 500 253 489 253 495 b 241 514 249 506 246 510 b 222 524 235 519 229 522 b 198 529 214 527 206 528 b 180 528 192 528 186 528 b 146 519 168 527 157 524 b 133 511 142 516 137 514 b 117 491 126 506 120 499 b 117 491 117 491 117 491 b 118 475 115 485 115 480 b 127 460 119 469 122 464 z m 344 375 b 325 385 338 380 332 383 b 301 390 318 388 310 390 b 283 390 295 390 289 390 b 249 380 271 388 260 385 b 236 372 245 378 240 375 b 220 353 229 367 224 361 b 220 352 220 353 220 353 b 221 336 218 347 218 341 b 231 322 222 330 225 325 b 231 322 231 322 231 322 b 249 312 236 317 242 314 b 273 307 257 309 265 307 b 292 308 279 307 285 307 b 325 317 303 309 315 312 b 343 329 335 321 337 323 b 351 339 347 332 350 335 b 354 345 352 341 353 343 b 354 345 354 345 354 345 b 354 361 356 350 356 356 b 344 375 352 367 349 372 z m 396 428 b 84 423 292 428 188 429 b 82 403 68 422 63 405 b 90 402 84 403 87 402 b 99 403 93 402 96 402 b 389 407 196 406 292 406 b 396 428 407 407 420 428 z "},"ø":{"ha":458,"x_min":0,"x_max":0,"o":"m 474 291 b 346 252 435 274 391 260 b 344 340 348 282 348 312 b 245 531 335 408 304 490 b 195 552 230 542 212 549 b 195 578 195 561 195 569 b 160 574 195 591 160 588 b 160 555 160 567 160 561 b 79 530 132 553 104 544 b 2 382 28 499 -7 444 b 2 381 2 382 2 381 b 146 -5 -33 252 -28 2 b 160 -4 151 -5 155 -5 b 160 -38 160 -16 160 -27 b 195 -35 160 -52 195 -50 b 195 3 195 -22 195 -9 b 299 101 240 19 275 59 b 343 229 321 140 336 184 b 493 275 396 238 447 254 b 474 291 514 284 487 297 z m 160 56 b 144 71 155 60 149 65 b 113 158 125 95 117 128 b 112 256 108 191 108 224 b 160 237 128 248 144 242 b 160 56 160 177 160 117 z m 160 266 b 138 275 153 269 145 272 b 117 287 131 279 124 283 b 146 392 123 323 134 358 b 43 431 160 435 89 448 b 160 532 55 485 107 530 b 160 266 160 443 160 354 z m 256 94 b 195 49 241 71 218 52 b 195 229 195 109 195 169 b 306 225 231 223 269 222 b 256 94 297 176 280 130 z m 309 248 b 195 255 271 244 232 246 b 195 526 195 345 195 436 b 225 510 205 523 215 517 b 309 248 298 451 321 346 z "},"ù":{"ha":539,"x_min":0,"x_max":0,"o":"m 536 290 b 477 90 515 223 504 155 b 422 -3 468 67 449 6 b 417 519 376 -20 398 373 b 296 533 423 574 313 574 b 294 528 295 532 294 530 b 225 196 275 417 257 305 b 171 62 212 150 197 102 b 138 27 161 48 153 34 b 106 258 87 3 104 184 b 116 528 108 348 113 438 b -7 515 118 576 -7 567 b -14 271 -8 433 -18 352 b 30 46 -11 199 -6 110 b 157 11 57 -3 115 -12 b 255 184 215 42 238 126 b 275 257 262 208 269 232 b 274 235 274 249 274 242 b 340 -22 272 156 264 29 b 567 288 494 -126 540 206 b 536 290 571 301 540 301 z m 217 583 b 240 577 222 577 232 575 b 248 590 246 578 253 584 b 206 636 234 606 221 621 b 186 641 201 641 193 643 b 179 629 180 640 174 635 b 217 583 191 614 204 598 z "},"ú":{"ha":539,"x_min":0,"x_max":0,"o":"m 536 290 b 477 90 515 223 504 155 b 422 -3 468 67 449 6 b 417 519 376 -20 398 373 b 296 533 423 574 313 574 b 294 528 295 532 294 530 b 225 196 275 417 257 305 b 171 62 212 150 197 102 b 138 27 161 48 153 34 b 106 258 87 3 104 184 b 116 528 107 348 113 438 b -7 515 118 576 -7 567 b -14 271 -8 433 -18 352 b 30 46 -11 199 -6 110 b 157 11 57 -3 115 -12 b 255 184 215 42 238 126 b 275 257 262 208 269 232 b 274 235 274 249 274 242 b 340 -22 272 156 264 29 b 567 288 494 -126 540 206 b 536 290 571 301 540 301 z m 185 572 b 208 579 193 571 203 572 b 246 625 221 594 234 609 b 240 637 251 631 245 635 b 219 631 232 639 224 637 b 178 586 205 616 191 601 b 185 572 172 580 180 574 z "},"û":{"ha":539,"x_min":0,"x_max":0,"o":"m 536 290 b 477 90 515 223 504 155 b 422 -3 468 67 449 6 b 417 519 376 -20 398 373 b 296 533 423 574 313 574 b 294 528 295 532 294 530 b 225 196 275 417 257 305 b 171 62 212 150 197 102 b 138 27 161 48 153 34 b 106 258 87 3 104 184 b 116 528 108 348 113 438 b -7 515 118 576 -7 567 b -14 271 -8 433 -18 352 b 30 46 -11 199 -6 110 b 157 11 57 -3 115 -12 b 255 184 215 42 238 126 b 275 257 262 208 269 232 b 274 235 274 249 274 242 b 340 -22 272 156 264 29 b 567 288 494 -126 540 206 b 536 290 571 301 540 301 z m 165 577 b 188 583 172 575 182 577 b 212 613 196 593 204 603 b 236 583 220 603 228 593 b 260 577 242 577 252 575 b 267 590 265 578 273 584 b 227 635 254 606 241 620 b 219 641 226 638 222 641 b 212 642 217 642 214 642 b 205 641 210 642 208 642 b 197 635 202 641 198 638 b 157 590 183 620 170 606 b 165 577 152 584 159 578 z "},"ü":{"ha":539,"x_min":0,"x_max":0,"o":"m 536 290 b 477 90 515 223 504 155 b 422 -3 468 67 449 6 b 417 519 376 -20 398 373 b 296 533 423 574 313 574 b 294 528 295 532 294 530 b 225 196 275 417 257 305 b 171 62 212 150 197 102 b 138 27 161 48 153 34 b 106 258 87 3 104 184 b 116 528 108 348 113 438 b -7 515 118 576 -7 567 b -14 271 -8 433 -18 352 b 30 46 -11 199 -6 110 b 157 11 57 -3 115 -12 b 255 184 215 42 238 126 b 275 257 262 208 269 232 b 274 235 274 249 274 242 b 340 -22 272 156 264 29 b 567 288 494 -126 540 206 b 536 290 571 301 540 301 z m 169 583 b 180 580 172 581 176 581 b 191 581 184 580 187 580 b 200 584 194 582 197 583 b 207 589 203 585 205 587 b 211 594 209 590 210 592 b 211 599 211 596 211 597 b 207 606 211 602 209 604 b 203 609 205 607 204 608 b 191 611 199 610 195 611 b 181 611 187 612 184 611 b 171 608 177 610 174 609 b 165 603 169 607 166 605 b 161 597 163 602 161 600 b 160 593 160 596 160 595 b 164 586 161 590 162 588 b 169 583 166 585 167 584 z m 233 583 b 245 580 237 581 241 581 b 255 581 248 580 252 580 b 264 584 258 582 261 583 b 271 589 267 585 269 587 b 275 594 273 590 274 592 b 276 599 275 596 275 597 b 271 606 275 602 274 604 b 267 609 270 607 268 608 b 255 611 263 610 259 611 b 245 611 252 612 248 611 b 236 608 242 610 239 609 b 229 603 233 607 231 605 b 225 597 227 602 226 600 b 224 593 225 596 225 595 b 229 586 225 590 226 588 b 233 583 230 585 232 584 z "},"ý":{"ha":557,"x_min":0,"x_max":0,"o":"m 559 288 b 404 191 505 260 453 227 b 394 533 401 305 396 419 b 280 532 394 576 296 571 b 278 528 279 531 278 530 b 210 196 260 417 242 305 b 156 62 197 150 182 102 b 122 27 146 48 138 33 b 90 258 77 11 89 184 b 100 528 92 348 97 438 b -23 515 102 576 -22 567 b -30 271 -24 433 -34 352 b 14 46 -26 199 -22 110 b 142 11 42 -3 99 -12 b 240 184 200 42 223 126 b 281 357 257 241 270 299 b 286 95 283 270 285 182 b 241 54 271 82 256 68 b -5 -281 142 -42 50 -153 b -57 -681 -56 -398 -95 -555 b 99 -812 -35 -750 25 -808 b 353 -541 246 -819 320 -660 b 406 16 402 -362 405 -168 b 405 161 406 65 406 113 b 578 272 459 203 517 240 b 559 288 598 282 572 295 z m 262 -396 b 217 -612 252 -469 240 -542 b 141 -744 202 -660 180 -714 b 95 -762 124 -758 115 -759 b 7 -727 66 -766 32 -758 b -3 -378 -65 -636 -32 -478 b 227 -1 39 -233 124 -110 b 286 59 246 20 266 40 b 262 -396 287 -93 282 -244 z m 164 560 b 185 566 171 558 179 560 b 226 611 199 581 212 596 b 218 625 231 617 224 623 b 195 619 211 627 200 625 b 157 572 182 603 169 588 b 164 560 153 567 159 562 z "},"ÿ":{"ha":558,"x_min":0,"x_max":0,"o":"m 560 288 b 405 191 506 260 455 227 b 396 533 402 305 397 419 b 281 532 395 576 297 571 b 280 528 280 531 280 530 b 211 196 261 417 243 305 b 157 62 198 150 183 102 b 124 27 147 48 140 33 b 92 258 79 11 90 184 b 102 528 93 348 99 438 b -22 515 104 576 -21 567 b -28 271 -22 433 -32 352 b 16 46 -25 199 -20 110 b 143 11 43 -3 101 -12 b 241 184 201 42 224 126 b 282 357 258 241 271 299 b 287 95 284 270 286 182 b 243 54 272 82 257 68 b -3 -281 144 -42 52 -153 b -55 -681 -54 -398 -94 -555 b 101 -812 -34 -750 26 -808 b 354 -541 248 -819 322 -660 b 407 16 403 -362 406 -168 b 406 161 408 65 407 113 b 580 272 461 203 519 240 b 560 288 600 282 574 295 z m 263 -396 b 219 -612 253 -469 241 -542 b 142 -744 203 -660 181 -714 b 97 -762 125 -758 116 -759 b 9 -727 67 -766 33 -758 b -2 -378 -63 -636 -30 -478 b 228 -1 40 -233 125 -110 b 288 59 247 20 267 40 b 263 -396 288 -93 284 -244 z m 154 579 b 166 576 158 577 162 576 b 176 577 169 576 173 576 b 186 580 179 577 183 578 b 192 584 188 581 190 582 b 196 590 194 586 196 588 b 197 594 196 591 197 593 b 192 601 196 597 195 600 b 188 604 191 602 190 603 b 176 607 184 606 181 607 b 166 606 173 607 170 607 b 157 603 163 606 160 605 b 150 599 154 602 152 601 b 146 593 148 597 147 595 b 146 589 146 591 146 590 b 150 581 146 586 148 583 b 154 579 151 580 153 580 z m 219 579 b 230 576 222 577 226 576 b 241 577 234 576 237 576 b 250 580 244 577 247 578 b 257 584 252 581 255 582 b 261 590 258 586 260 588 b 261 594 261 591 261 593 b 257 601 261 597 259 600 b 252 604 255 602 254 603 b 241 607 249 606 245 607 b 231 606 237 607 234 607 b 221 603 227 606 224 605 b 214 599 219 602 216 601 b 210 593 213 597 211 595 b 210 589 210 591 210 590 b 214 581 210 586 212 583 b 219 579 216 580 217 580 z "},"Œ":{"ha":1950,"x_min":0,"x_max":0,"o":"m 1948 278 b 1368 -236 1875 44 1685 -366 b 1238 222 1195 -165 1153 68 b 1501 377 1295 325 1391 372 b 1509 378 1504 377 1507 377 b 1532 378 1517 378 1525 378 b 1598 428 1557 379 1601 397 b 1523 463 1596 461 1547 463 b 1126 682 1356 458 1199 525 b 1124 1104 1066 812 1068 973 b 1298 1322 1160 1190 1221 1267 b 1597 1408 1386 1384 1490 1407 b 1938 1090 1777 1410 1932 1271 b 1854 885 1940 1014 1914 934 b 1566 916 1771 818 1629 827 b 1533 906 1558 927 1524 919 b 1955 972 1640 756 1890 811 b 1783 1395 2018 1132 1934 1321 b 1418 1435 1674 1449 1535 1460 b 1107 1258 1299 1409 1191 1346 b 1000 1101 1063 1213 1027 1159 b 577 1453 944 1297 796 1457 b 71 1130 365 1448 171 1313 b 39 498 -34 940 -58 696 b 237 320 80 415 149 347 b 234 260 236 300 235 280 b 290 -137 228 128 225 -18 b 536 -273 342 -232 425 -289 b 780 -85 652 -257 720 -179 b 938 256 847 21 900 136 b 1018 601 973 365 1001 482 b 1139 472 1049 550 1089 506 b 1279 407 1183 443 1230 422 b 1136 287 1223 378 1173 339 b 1077 -31 1071 197 1048 77 b 1667 -225 1144 -284 1461 -361 b 1980 276 1835 -114 1922 91 b 1948 278 1985 290 1952 290 z m 899 258 b 755 -57 863 148 816 42 b 511 -239 703 -141 625 -253 b 394 -73 432 -229 406 -138 b 374 283 374 45 369 164 b 376 314 375 294 376 304 b 528 415 436 329 489 365 b 604 558 561 458 585 508 b 570 560 609 572 575 573 b 378 336 534 467 477 365 b 536 1109 395 597 448 864 b 401 1117 557 1167 421 1166 b 297 740 352 997 323 867 b 239 344 270 609 250 477 b 72 508 166 372 107 437 b 88 1093 -17 690 1 913 b 589 1430 179 1281 373 1434 b 975 1040 812 1427 936 1238 b 965 720 941 937 935 824 b 985 664 971 701 978 682 b 899 258 972 526 941 389 z "},"œ":{"ha":729,"x_min":0,"x_max":0,"o":"m 726 279 b 606 92 691 213 656 147 b 527 40 590 74 554 35 b 483 72 514 42 492 62 b 433 323 427 134 418 235 b 628 403 507 316 588 333 b 570 553 663 464 640 536 b 332 394 453 581 369 494 b 245 531 317 448 289 501 b 79 530 195 566 130 560 b 2 382 28 499 -7 444 b 2 381 2 382 2 381 b 146 -5 -33 252 -28 2 b 299 101 215 -7 267 44 b 324 155 309 118 317 136 b 460 4 343 83 384 21 b 757 277 604 -26 713 172 b 726 279 763 290 732 288 z m 459 415 b 562 524 475 453 509 536 b 611 457 593 517 611 487 b 436 343 610 364 515 337 b 459 415 442 369 450 394 z m 256 94 b 144 71 230 54 180 26 b 113 158 125 95 117 128 b 112 256 108 191 108 224 b 306 225 171 227 239 219 b 256 94 297 176 280 130 z m 310 256 b 309 248 310 253 310 250 b 138 275 250 242 190 249 b 117 287 131 279 124 283 b 146 392 123 323 134 358 b 43 431 160 435 89 448 b 225 510 60 508 155 565 b 312 305 284 463 310 385 b 310 256 311 290 310 273 z "},"Š":{"ha":1036,"x_min":0,"x_max":0,"o":"m 927 276 b 710 767 911 456 818 626 b 585 915 681 805 634 856 b 714 1141 644 982 690 1062 b 706 1364 736 1212 746 1297 b 547 1452 672 1421 611 1447 b 352 1389 476 1458 402 1441 b 290 1232 311 1346 289 1292 b 464 877 293 1100 387 978 b 480 857 469 870 475 864 b 325 783 434 820 382 792 b 154 847 258 772 191 787 b 109 1012 124 897 110 954 b 74 1008 108 1026 74 1023 b 173 784 76 930 101 827 b 385 776 235 747 319 753 b 496 835 424 790 462 810 b 722 492 581 726 665 620 b 705 -53 800 319 825 108 b 223 -236 593 -202 410 -296 b 94 244 25 -173 -55 90 b 373 344 164 316 274 356 b 594 163 478 332 554 256 b 627 172 600 151 633 157 b 278 362 566 313 431 389 b -20 76 132 337 -4 232 b 206 -265 -37 -80 63 -214 b 703 -203 366 -322 563 -297 b 927 276 863 -95 944 85 z m 488 1412 b 632 1397 528 1440 595 1425 b 695 1264 674 1366 693 1315 b 595 980 700 1163 653 1060 b 564 940 586 967 575 953 b 488 1412 438 1097 317 1294 z m 513 1484 b 521 1478 514 1481 517 1479 b 528 1477 523 1477 525 1477 b 534 1478 530 1477 532 1477 b 542 1484 538 1479 542 1481 b 583 1529 556 1499 570 1514 b 575 1542 588 1535 581 1541 b 552 1536 567 1544 557 1542 b 528 1507 544 1526 536 1517 b 503 1536 520 1517 511 1526 b 480 1542 498 1542 488 1544 b 472 1529 474 1541 467 1535 b 513 1484 486 1514 499 1499 z "},"š":{"ha":397,"x_min":0,"x_max":0,"o":"m 401 285 b 213 174 337 254 269 220 b 207 183 211 177 209 180 b 89 376 168 243 105 304 b 215 539 73 450 142 532 b 267 425 288 546 290 471 b 198 311 248 385 222 348 b 224 305 191 298 218 296 b 311 487 255 355 317 424 b 217 560 306 538 264 561 b -9 332 108 556 -49 458 b 100 138 14 262 62 201 b 130 83 110 121 121 102 b 123 72 128 79 125 76 b 124 -53 103 39 79 -29 b 260 -7 169 -77 238 -50 b 226 152 285 43 256 104 b 241 165 231 157 236 161 b 419 270 294 209 357 240 b 401 285 439 279 413 291 z m 134 5 b 143 47 134 19 137 33 b 143 46 143 47 143 46 b 149 -6 147 29 150 12 b 147 -28 149 -13 148 -21 b 134 5 148 -50 143 -39 z m 193 596 b 201 589 194 593 197 590 b 208 589 203 589 205 589 b 214 589 210 589 212 589 b 223 596 218 590 222 593 b 263 640 236 610 250 625 b 255 654 268 646 261 652 b 232 648 248 656 237 654 b 208 618 224 638 216 628 b 183 648 200 628 192 638 b 160 654 178 654 168 656 b 153 640 154 652 147 646 b 193 596 166 625 179 610 z "},"Ÿ":{"ha":1360,"x_min":0,"x_max":0,"o":"m 1265 974 b 1235 1426 1260 1124 1257 1278 b 1108 1421 1227 1475 1121 1467 b 1108 1420 1108 1421 1108 1421 b 877 792 1035 1209 977 993 b 686 534 831 698 773 596 b 515 541 636 497 556 491 b 461 752 470 597 464 683 b 461 1039 456 848 460 944 b 310 1452 461 1166 478 1418 b 2 1224 167 1482 49 1344 b 12 972 -28 1146 -36 1045 b 176 899 49 916 110 885 b 166 917 197 904 182 920 b 12 1102 63 895 12 1020 b 108 1337 13 1189 51 1272 b 252 1399 143 1378 207 1428 b 297 1342 275 1385 286 1368 b 332 1127 326 1276 329 1198 b 336 850 336 1034 332 942 b 502 462 341 720 345 504 b 888 743 679 414 817 612 b 1109 1330 987 929 1045 1131 b 1123 1063 1113 1241 1120 1152 b 1127 692 1128 940 1129 816 b 1059 36 1124 473 1111 249 b 825 -261 1031 -78 979 -277 b 634 93 670 -245 631 -30 b 701 327 635 173 651 263 b 781 380 721 353 748 374 b 930 245 864 393 907 309 b 963 254 934 232 968 238 b 855 393 943 309 913 369 b 740 390 819 407 776 405 b 619 232 675 363 638 297 b 706 -236 574 85 588 -125 b 1090 -153 830 -351 1001 -265 b 1211 130 1153 -73 1187 32 b 1260 502 1240 252 1252 377 b 1265 974 1269 659 1270 817 z m 703 1475 b 714 1473 706 1474 710 1473 b 725 1474 718 1472 721 1473 b 734 1476 728 1474 731 1475 b 741 1481 737 1477 739 1479 b 745 1487 743 1483 744 1484 b 745 1491 745 1488 745 1490 b 741 1498 745 1494 743 1496 b 737 1501 739 1499 738 1500 b 725 1504 733 1503 729 1504 b 715 1503 721 1504 718 1504 b 705 1500 711 1503 708 1502 b 699 1495 703 1499 701 1497 b 695 1490 697 1494 695 1492 b 694 1486 694 1488 694 1487 b 698 1478 695 1483 696 1480 b 703 1475 700 1477 701 1476 z m 767 1475 b 779 1473 771 1474 775 1473 b 789 1474 782 1472 786 1473 b 798 1476 792 1474 795 1475 b 805 1481 801 1477 803 1479 b 809 1487 807 1483 808 1484 b 810 1491 809 1488 809 1490 b 805 1498 809 1494 808 1496 b 801 1501 804 1499 802 1500 b 789 1504 797 1503 793 1504 b 779 1503 786 1504 782 1504 b 770 1500 776 1503 773 1502 b 763 1495 767 1499 765 1497 b 759 1490 761 1494 760 1492 b 758 1486 759 1488 759 1487 b 763 1478 759 1483 760 1480 b 767 1475 764 1477 766 1476 z "},"Ź":{"ha":899,"x_min":0,"x_max":0,"o":"m 892 -137 b 683 -272 856 -216 773 -279 b 450 -119 585 -266 510 -190 b 412 -75 438 -105 425 -90 b 515 14 450 -48 484 -18 b 738 429 624 129 692 278 b 795 440 757 432 776 436 b 786 455 813 444 800 459 b 743 447 771 452 757 450 b 747 459 744 451 745 455 b 794 983 795 628 817 808 b 588 1398 774 1131 721 1313 b 205 1354 466 1475 307 1452 b 126 903 89 1241 39 1047 b 495 779 201 781 362 730 b 476 794 515 786 489 799 b 143 942 349 747 198 820 b 223 1331 86 1069 126 1232 b 442 1412 279 1388 360 1431 b 575 1295 504 1398 546 1349 b 666 902 637 1177 660 1034 b 607 460 672 752 650 603 b 600 435 605 452 603 443 b 563 436 588 435 576 436 b 558 419 549 437 538 420 b 595 418 570 418 582 418 b 424 84 556 299 504 182 b 342 -2 400 55 372 25 b 113 60 278 56 202 95 b -21 -89 55 37 -12 -25 b 92 -183 -31 -155 39 -180 b 388 -92 196 -189 299 -151 b 632 -287 457 -173 521 -259 b 932 -143 758 -319 865 -245 b 892 -137 945 -124 900 -119 z m 118 -123 b 51 -106 95 -128 65 -127 b 82 4 27 -71 58 -21 b 304 -7 148 75 238 48 b 320 -20 309 -11 314 -16 b 118 -123 259 -69 190 -109 z m 395 1476 b 403 1469 396 1473 400 1470 b 410 1469 405 1469 408 1469 b 417 1469 412 1469 415 1469 b 425 1476 420 1470 424 1473 b 465 1520 439 1490 452 1505 b 457 1534 471 1526 463 1532 b 434 1528 450 1536 440 1534 b 410 1498 426 1518 418 1508 b 386 1528 402 1508 394 1518 b 362 1534 380 1534 370 1536 b 355 1520 357 1532 349 1526 b 395 1476 368 1505 381 1490 z "},"ž":{"ha":413,"x_min":0,"x_max":0,"o":"m 397 303 b 187 134 322 257 251 198 b 179 153 185 140 182 146 b 256 340 229 201 254 271 b 151 545 257 415 219 508 b -1 377 48 601 -45 472 b 31 386 4 366 37 372 b 116 529 -1 451 59 559 b 126 297 173 500 149 353 b 51 178 107 250 82 216 b 61 133 37 160 46 143 b 100 36 77 102 90 69 b 51 -28 83 15 66 -7 b -54 -237 5 -92 -34 -161 b -73 -497 -76 -319 -93 -413 b 3 -612 -63 -540 -39 -591 b 143 -587 47 -633 107 -615 b 256 -279 230 -518 251 -383 b 199 106 262 -152 247 -15 b 423 291 266 177 342 241 b 397 303 440 301 408 309 z m 95 -510 b 69 -551 88 -525 80 -539 b 48 -567 61 -560 49 -566 b -39 -473 -7 -577 -31 -521 b 79 -41 -64 -322 -7 -163 b 109 0 89 -27 99 -13 b 136 -199 125 -65 133 -132 b 95 -510 140 -300 137 -416 z m 70 579 b 78 573 71 576 75 573 b 85 572 80 572 83 572 b 92 573 87 572 89 572 b 100 579 95 573 99 576 b 140 624 114 594 127 608 b 132 637 145 630 138 636 b 109 631 125 639 115 637 b 85 601 101 621 93 611 b 61 631 77 611 69 621 b 37 637 55 637 45 639 b 30 624 32 636 24 630 b 70 579 43 608 56 594 z "},"–":{"ha":451,"x_min":0,"x_max":0,"o":"m 372 536 b 83 536 276 536 179 536 b 78 523 71 536 62 523 b 368 523 175 523 271 523 b 372 536 380 523 389 536 z "},"—":{"ha":361,"x_min":0,"x_max":0,"o":"m 283 536 b 83 536 216 536 149 536 b 78 523 71 536 62 523 b 278 523 145 523 212 523 b 283 536 290 523 300 536 z "},"“":{"ha":307,"x_min":0,"x_max":0,"o":"m 133 1287 b 127 1299 134 1293 131 1296 b 120 1305 125 1301 122 1303 b 89 1301 112 1311 96 1306 b 78 1212 58 1280 71 1245 b 115 1117 85 1178 95 1146 b 150 1129 122 1107 158 1116 b 133 1287 119 1180 117 1231 z m 237 1129 b 219 1287 205 1180 203 1231 b 213 1299 220 1293 217 1296 b 206 1305 211 1301 208 1303 b 175 1301 198 1311 182 1306 b 164 1212 144 1280 157 1245 b 201 1117 171 1178 181 1146 b 237 1129 208 1107 244 1116 z "},"„":{"ha":306,"x_min":0,"x_max":0,"o":"m 236 37 b 230 44 235 40 233 43 b 218 50 226 46 222 48 b 185 44 208 55 193 53 b 185 -32 165 22 184 -4 b 157 -130 186 -66 175 -101 b 192 -134 148 -145 185 -144 b 236 37 224 -85 239 -21 z m 144 44 b 132 50 140 46 136 48 b 99 44 122 55 107 53 b 99 -32 79 22 98 -4 b 71 -130 100 -66 89 -101 b 105 -134 62 -145 99 -144 b 150 37 138 -85 153 -21 b 144 44 149 40 147 43 z "},"•":{"ha":244,"x_min":0,"x_max":0,"o":"m 166 553 b 156 556 163 554 160 555 b 132 559 148 559 140 560 b 111 556 125 559 118 558 b 92 549 104 555 98 552 b 78 540 86 547 82 544 b 70 529 74 537 72 534 b 69 522 70 527 70 524 b 79 510 71 516 74 512 b 88 506 82 508 85 507 b 113 503 96 504 104 503 b 134 506 120 503 127 504 b 153 513 141 508 147 510 b 167 522 158 515 163 518 b 175 533 170 525 173 529 b 175 540 175 536 175 538 b 166 553 174 546 171 550 z "},"…":{"ha":357,"x_min":0,"x_max":0,"o":"m 118 16 b 113 18 116 17 115 17 b 104 19 110 19 107 19 b 94 19 101 20 97 19 b 87 17 91 18 89 17 b 78 13 84 16 81 15 b 72 8 76 12 74 10 b 70 4 71 7 71 6 b 70 -1 69 2 69 1 b 74 -5 71 -3 72 -4 b 79 -7 76 -6 77 -7 b 86 -8 81 -8 84 -8 b 93 -9 89 -9 91 -9 b 102 -8 96 -9 99 -8 b 110 -5 105 -7 107 -6 b 115 -2 111 -4 113 -3 b 120 3 117 -1 119 1 b 122 6 121 4 121 5 b 122 12 123 8 123 10 b 118 16 121 14 120 15 z m 200 16 b 196 18 199 17 197 17 b 187 19 193 19 190 19 b 176 19 183 20 180 19 b 169 17 174 18 172 17 b 161 13 166 16 164 15 b 155 8 159 12 156 10 b 153 4 154 7 153 6 b 153 -1 152 2 152 1 b 157 -5 154 -3 155 -4 b 162 -7 159 -6 160 -7 b 169 -8 164 -8 167 -8 b 176 -9 171 -9 174 -9 b 185 -8 179 -9 182 -8 b 192 -5 187 -7 190 -6 b 197 -2 194 -4 196 -3 b 203 3 199 -1 201 1 b 205 6 203 4 204 5 b 204 12 206 8 206 10 b 200 16 204 14 202 15 z m 287 12 b 283 16 286 14 285 15 b 279 18 282 17 280 17 b 270 19 276 19 273 19 b 259 19 266 20 263 19 b 252 17 257 18 255 17 b 244 13 249 16 246 15 b 237 8 241 12 239 10 b 235 4 237 7 236 6 b 236 -1 235 2 235 1 b 240 -5 236 -3 238 -4 b 244 -7 241 -6 243 -7 b 252 -8 247 -8 249 -8 b 259 -9 254 -9 256 -9 b 267 -8 262 -9 265 -8 b 275 -5 270 -7 273 -6 b 280 -2 277 -4 278 -3 b 285 3 282 -1 284 1 b 288 6 286 4 287 5 b 287 12 288 8 288 10 z "},"‰":{"ha":1057,"x_min":0,"x_max":0,"o":"m 530 1279 b 72 -33 378 841 228 403 b 205 -41 51 -89 187 -91 b 662 1271 362 395 513 833 b 530 1279 681 1327 547 1328 z m 187 822 b 365 998 291 800 362 906 b 191 1145 368 1094 296 1194 b 177 1138 187 1143 182 1141 b 106 1114 150 1140 117 1129 b 187 822 46 1033 71 846 z m 217 1108 b 208 1127 217 1116 213 1123 b 317 1073 255 1152 299 1118 b 326 964 331 1039 333 1000 b 293 887 322 935 311 909 b 208 915 252 839 221 871 b 217 1108 189 982 224 1043 z m 503 425 b 489 417 499 423 494 420 b 418 394 462 419 429 408 b 499 101 358 312 383 125 b 677 277 603 80 674 186 b 503 425 680 374 608 473 z m 638 243 b 605 167 634 215 623 189 b 520 194 564 119 533 150 b 529 387 501 261 536 322 b 520 407 529 396 525 402 b 629 352 567 431 611 397 b 638 243 643 318 645 279 z m 814 425 b 800 417 809 423 805 420 b 729 394 773 419 739 408 b 810 101 668 312 694 125 b 988 277 914 80 984 186 b 814 425 991 374 919 473 z m 949 243 b 915 167 944 215 934 189 b 831 194 875 119 844 150 b 840 387 812 261 847 322 b 830 407 839 396 836 402 b 939 352 877 431 921 397 b 949 243 953 318 955 279 z "},"€":{"ha":1235,"x_min":0,"x_max":0,"o":"m 1133 259 b 940 -149 1090 115 1035 -32 b 656 -265 870 -235 769 -302 b 448 -53 555 -233 494 -143 b 342 331 388 66 357 199 b 337 388 340 350 339 369 b 401 389 358 388 380 388 b 407 408 416 389 429 407 b 336 408 384 408 360 408 b 334 548 333 454 332 501 b 401 548 356 548 379 548 b 407 567 416 548 429 567 b 334 568 383 568 359 568 b 515 1165 344 779 399 991 b 783 1361 577 1258 667 1345 b 1034 1246 886 1375 986 1341 b 1031 958 1079 1157 1073 1046 b 936 846 1010 913 978 872 b 828 819 905 826 865 812 b 736 896 786 826 758 861 b 703 887 729 907 695 900 b 854 796 738 831 785 791 b 997 859 907 799 958 823 b 1104 1124 1070 925 1104 1027 b 974 1372 1104 1228 1060 1314 b 593 1358 866 1446 701 1417 b 195 568 317 1207 211 867 b 87 567 159 567 123 567 b 81 548 71 567 60 548 b 194 548 118 548 156 548 b 193 505 193 533 193 519 b 194 408 192 474 193 441 b 87 408 159 408 123 408 b 81 389 71 408 60 389 b 195 388 119 389 157 388 b 542 -283 211 129 295 -173 b 1165 257 890 -438 1087 -4 b 1133 259 1170 271 1136 271 z "},"":{"ha":635,"x_min":0,"x_max":0,"o":"m 640 274 b 624 221 634 256 630 238 b 518 -5 594 145 572 58 b 469 -17 501 -25 483 -46 b 448 85 455 14 451 52 b 429 389 438 186 432 287 b 651 948 559 544 637 746 b 645 1111 654 991 656 1053 b 945 1039 750 1115 855 1100 b 984 1063 959 1029 1004 1049 b 639 1140 880 1133 760 1146 b 530 1265 623 1201 591 1253 b 343 1108 427 1287 373 1207 b 330 1106 338 1107 334 1107 b 214 1265 317 1181 286 1250 b 17 1072 99 1290 45 1187 b -143 1056 -36 1066 -90 1060 b -219 1058 -169 1055 -194 1054 b -302 1100 -237 1060 -307 1073 b -351 1095 -298 1120 -347 1113 b -276 1036 -358 1059 -303 1043 b -136 1028 -231 1023 -183 1025 b 11 1042 -87 1032 -38 1037 b -13 838 -5 964 -9 884 b -22 401 -24 693 -25 547 b 32 32 -20 277 -16 147 b 206 -47 61 -38 132 -99 b 316 139 263 -7 292 69 b 348 32 323 103 334 67 b 522 -47 377 -38 448 -99 b 659 219 601 9 627 134 b 675 272 665 236 669 254 b 640 274 680 286 645 287 z m 617 954 b 427 433 607 768 540 582 b 427 775 425 547 425 661 b 453 1090 429 879 432 987 b 454 1094 453 1091 454 1092 b 599 1109 502 1100 551 1105 b 609 1109 602 1109 605 1109 b 617 954 619 1058 620 1005 z m 518 1229 b 600 1144 562 1244 590 1175 b 601 1138 600 1142 601 1140 b 460 1122 554 1134 506 1128 b 518 1229 469 1164 485 1218 z m 335 1079 b 334 1076 335 1078 334 1077 b 334 1079 334 1077 334 1078 b 335 1079 334 1079 334 1079 z m 202 1229 b 284 1144 246 1244 274 1175 b 294 1102 288 1131 291 1117 b 136 1085 241 1096 189 1090 b 137 1090 136 1086 137 1088 b 202 1229 145 1127 159 1214 z m 231 1067 b 299 1075 254 1069 276 1072 b 301 954 304 1034 304 993 b 111 433 291 768 224 582 b 111 775 109 547 109 661 b 131 1055 113 868 115 963 b 231 1067 164 1059 198 1063 z m 202 -5 b 153 -17 185 -25 167 -46 b 132 85 139 14 135 52 b 113 389 122 186 116 287 b 297 735 197 489 259 609 b 294 401 291 624 291 512 b 304 211 295 338 297 274 b 202 -5 276 138 254 55 z "}}}
